%TF.GenerationSoftware,KiCad,Pcbnew,8.0.9*%
%TF.CreationDate,2025-09-12T10:49:09+02:00*%
%TF.ProjectId,iot_weatherstation_full_vcut,696f745f-7765-4617-9468-657273746174,rev?*%
%TF.SameCoordinates,Original*%
%TF.FileFunction,Copper,L1,Top*%
%TF.FilePolarity,Positive*%
%FSLAX46Y46*%
G04 Gerber Fmt 4.6, Leading zero omitted, Abs format (unit mm)*
G04 Created by KiCad (PCBNEW 8.0.9) date 2025-09-12 10:49:09*
%MOMM*%
%LPD*%
G01*
G04 APERTURE LIST*
G04 Aperture macros list*
%AMRoundRect*
0 Rectangle with rounded corners*
0 $1 Rounding radius*
0 $2 $3 $4 $5 $6 $7 $8 $9 X,Y pos of 4 corners*
0 Add a 4 corners polygon primitive as box body*
4,1,4,$2,$3,$4,$5,$6,$7,$8,$9,$2,$3,0*
0 Add four circle primitives for the rounded corners*
1,1,$1+$1,$2,$3*
1,1,$1+$1,$4,$5*
1,1,$1+$1,$6,$7*
1,1,$1+$1,$8,$9*
0 Add four rect primitives between the rounded corners*
20,1,$1+$1,$2,$3,$4,$5,0*
20,1,$1+$1,$4,$5,$6,$7,0*
20,1,$1+$1,$6,$7,$8,$9,0*
20,1,$1+$1,$8,$9,$2,$3,0*%
G04 Aperture macros list end*
%TA.AperFunction,SMDPad,CuDef*%
%ADD10RoundRect,0.250000X0.250000X-0.750000X0.250000X0.750000X-0.250000X0.750000X-0.250000X-0.750000X0*%
%TD*%
%TA.AperFunction,SMDPad,CuDef*%
%ADD11R,1.550000X0.600000*%
%TD*%
%TA.AperFunction,SMDPad,CuDef*%
%ADD12R,1.800000X1.200000*%
%TD*%
%TA.AperFunction,ComponentPad*%
%ADD13C,1.524000*%
%TD*%
%TA.AperFunction,ComponentPad*%
%ADD14C,2.010000*%
%TD*%
%TA.AperFunction,ComponentPad*%
%ADD15C,1.700000*%
%TD*%
%TA.AperFunction,ComponentPad*%
%ADD16R,1.700000X1.700000*%
%TD*%
%TA.AperFunction,ComponentPad*%
%ADD17O,1.700000X1.700000*%
%TD*%
%TA.AperFunction,ViaPad*%
%ADD18C,0.600000*%
%TD*%
%TA.AperFunction,Conductor*%
%ADD19C,0.350000*%
%TD*%
%TA.AperFunction,Conductor*%
%ADD20C,0.200000*%
%TD*%
%TA.AperFunction,Conductor*%
%ADD21C,0.500000*%
%TD*%
G04 APERTURE END LIST*
D10*
%TO.P,J10,1,Pin_1*%
%TO.N,unconnected-(J10-Pin_1-Pad1)*%
X219813533Y-118407723D03*
%TD*%
%TO.P,J9,1,Pin_1*%
%TO.N,unconnected-(J9-Pin_1-Pad1)*%
X174575525Y-118362455D03*
%TD*%
D11*
%TO.P,J6,1,1*%
%TO.N,+3V3*%
X131507000Y-136049800D03*
%TO.P,J6,2,2*%
%TO.N,GND*%
X131507000Y-135049800D03*
%TO.P,J6,3,3*%
%TO.N,/BME688/SDA*%
X131507000Y-134049800D03*
%TO.P,J6,4,4*%
%TO.N,/BME688/SCL*%
X131507000Y-133049800D03*
D12*
%TO.P,J6,MP1,MP1*%
%TO.N,GND*%
X135382000Y-137349800D03*
%TO.P,J6,MP2,MP2*%
X135382000Y-131749800D03*
%TD*%
D10*
%TO.P,J11,1,Pin_1*%
%TO.N,unconnected-(J11-Pin_1-Pad1)*%
X265078562Y-118229192D03*
%TD*%
%TO.P,J3,1,Pin_1*%
%TO.N,unconnected-(J3-Pin_1-Pad1)*%
X174574200Y-121640600D03*
%TD*%
D11*
%TO.P,J8,1,1*%
%TO.N,+3V3*%
X141926097Y-114798802D03*
%TO.P,J8,2,2*%
%TO.N,GND*%
X141926097Y-113798802D03*
%TO.P,J8,3,3*%
%TO.N,/BME688/SDA*%
X141926097Y-112798802D03*
%TO.P,J8,4,4*%
%TO.N,/BME688/SCL*%
X141926097Y-111798802D03*
D12*
%TO.P,J8,MP1,MP1*%
%TO.N,GND*%
X145801097Y-116098802D03*
%TO.P,J8,MP2,MP2*%
X145801097Y-110498802D03*
%TD*%
D10*
%TO.P,J4,1,Pin_1*%
%TO.N,unconnected-(J4-Pin_1-Pad1)*%
X219786200Y-121716800D03*
%TD*%
D13*
%TO.P,U4,1,NC*%
%TO.N,unconnected-(U4-NC-Pad1)*%
X307534400Y-149956800D03*
%TO.P,U4,2,LED_A*%
%TO.N,LED_A*%
X307534400Y-152496800D03*
%TO.P,U4,3,5V*%
%TO.N,+5V*%
X307534400Y-155036800D03*
%TO.P,U4,4,REST*%
%TO.N,/ESP32/REST*%
X307534400Y-157576800D03*
%TO.P,U4,5,F_CS*%
%TO.N,unconnected-(U4-F_CS-Pad5)*%
X307534400Y-160116800D03*
%TO.P,U4,6,CS*%
%TO.N,/ESP32/CS*%
X307534400Y-162656800D03*
%TO.P,U4,7,DB15*%
%TO.N,unconnected-(U4-DB15-Pad7)*%
X307534400Y-165196800D03*
%TO.P,U4,8,DB14*%
%TO.N,unconnected-(U4-DB14-Pad8)*%
X307534400Y-167736800D03*
%TO.P,U4,9,DB13*%
%TO.N,unconnected-(U4-DB13-Pad9)*%
X307534400Y-170276800D03*
%TO.P,U4,10,DB12*%
%TO.N,unconnected-(U4-DB12-Pad10)*%
X307534400Y-172816800D03*
%TO.P,U4,11,DB11*%
%TO.N,unconnected-(U4-DB11-Pad11)*%
X307534400Y-175356800D03*
%TO.P,U4,12,DB10*%
%TO.N,unconnected-(U4-DB10-Pad12)*%
X307534400Y-177896800D03*
%TO.P,U4,13,DB9*%
%TO.N,unconnected-(U4-DB9-Pad13)*%
X307534400Y-180436800D03*
%TO.P,U4,14,DB8*%
%TO.N,unconnected-(U4-DB8-Pad14)*%
X307534400Y-182976800D03*
%TO.P,U4,15,RD*%
%TO.N,/ESP32/RD*%
X307534400Y-185516800D03*
%TO.P,U4,16,WR*%
%TO.N,/ESP32/WR*%
X307534400Y-188056800D03*
%TO.P,U4,17,RS*%
%TO.N,/ESP32/RS*%
X307534400Y-190596800D03*
%TO.P,U4,18,NC*%
%TO.N,unconnected-(U4-NC-Pad18)*%
X307534400Y-193136800D03*
%TO.P,U4,19,3V3*%
%TO.N,+3V3*%
X307534400Y-195676800D03*
%TO.P,U4,20,GND*%
%TO.N,GND*%
X307534400Y-198216800D03*
%TO.P,U4,21,DB0*%
%TO.N,/ESP32/D0*%
X304994400Y-198216800D03*
%TO.P,U4,22,DB1*%
%TO.N,/ESP32/D1*%
X304994400Y-195676800D03*
%TO.P,U4,23,DB2*%
%TO.N,/ESP32/D2*%
X304994400Y-193136800D03*
%TO.P,U4,24,DB3*%
%TO.N,/ESP32/D3*%
X304994400Y-190596800D03*
%TO.P,U4,25,DB4*%
%TO.N,/ESP32/D4*%
X304994400Y-188056800D03*
%TO.P,U4,26,DB5*%
%TO.N,/ESP32/D5*%
X304994400Y-185516800D03*
%TO.P,U4,27,DB6*%
%TO.N,/ESP32/D6*%
X304994400Y-182976800D03*
%TO.P,U4,28,DB7*%
%TO.N,/ESP32/D7*%
X304994400Y-180436800D03*
%TO.P,U4,29,T_CLK*%
%TO.N,/ESP32/T_CLK*%
X304994400Y-177896800D03*
%TO.P,U4,30,T_CS*%
%TO.N,/ESP32/T_CS*%
X304994400Y-175356800D03*
%TO.P,U4,31,T_DIN*%
%TO.N,/ESP32/T_DIN*%
X304994400Y-172816800D03*
%TO.P,U4,32,NC*%
%TO.N,unconnected-(U4-NC-Pad32)*%
X304994400Y-170276800D03*
%TO.P,U4,33,T_DO*%
%TO.N,/ESP32/T_DO*%
X304994400Y-167736800D03*
%TO.P,U4,34,T_IRQ*%
%TO.N,/ESP32/T_IRQ*%
X304994400Y-165196800D03*
%TO.P,U4,35,SD_DO*%
%TO.N,unconnected-(U4-SD_DO-Pad35)*%
X304994400Y-162656800D03*
%TO.P,U4,36,SD_CLK*%
%TO.N,unconnected-(U4-SD_CLK-Pad36)*%
X304994400Y-160116800D03*
%TO.P,U4,37,SD_DIN*%
%TO.N,unconnected-(U4-SD_DIN-Pad37)*%
X304994400Y-157576800D03*
%TO.P,U4,38,SD_CS*%
%TO.N,unconnected-(U4-SD_CS-Pad38)*%
X304994400Y-155036800D03*
%TO.P,U4,39,NC*%
%TO.N,unconnected-(U4-NC-Pad39)*%
X304994400Y-152496800D03*
%TO.P,U4,40,NC*%
%TO.N,unconnected-(U4-NC-Pad40)*%
X304994400Y-149956800D03*
%TD*%
D10*
%TO.P,J7,1,Pin_1*%
%TO.N,unconnected-(J7-Pin_1-Pad1)*%
X265099800Y-121666000D03*
%TD*%
D14*
%TO.P,J1,S1,SHIELD*%
%TO.N,GND*%
X133248400Y-211963000D03*
D15*
X137048400Y-211963000D03*
D14*
X133248400Y-203323000D03*
D15*
X137048400Y-203323000D03*
%TD*%
D16*
%TO.P,J2,1,Pin_1*%
%TO.N,+5V*%
X139395200Y-189738000D03*
D17*
%TO.P,J2,2,Pin_2*%
%TO.N,/ESP32/TX0*%
X139395200Y-192278000D03*
%TO.P,J2,3,Pin_3*%
%TO.N,/ESP32/RX0*%
X139395200Y-194818000D03*
%TO.P,J2,4,Pin_4*%
%TO.N,GND*%
X139395200Y-197358000D03*
%TD*%
D18*
%TO.N,GND*%
X305714400Y-212098457D03*
X147752400Y-212013800D03*
X147065200Y-173966200D03*
X305714400Y-208288457D03*
X304444400Y-210828457D03*
X144265200Y-171166200D03*
X306984400Y-210828457D03*
X309295800Y-209550000D03*
X307534400Y-208280000D03*
X309295800Y-210845400D03*
X140131800Y-202705200D03*
X143347103Y-207391400D03*
X306984400Y-212098457D03*
X305714400Y-209558457D03*
X145849381Y-110487540D03*
X308254400Y-210828457D03*
X147065200Y-171166200D03*
X135382000Y-137337800D03*
X303199800Y-163525200D03*
X147065200Y-172566200D03*
X305714400Y-210828457D03*
X137894400Y-181825600D03*
X145665200Y-171166200D03*
X131507000Y-135037800D03*
X144265200Y-173966200D03*
X308254400Y-209550000D03*
X137338400Y-210393000D03*
X137338400Y-204893000D03*
X151398900Y-209906000D03*
X306292700Y-144638800D03*
X145665200Y-172566200D03*
X309295800Y-208280000D03*
X306984400Y-209550000D03*
X304444400Y-209558457D03*
X135344400Y-131699000D03*
X141974381Y-113787540D03*
X144265200Y-172566200D03*
X162560000Y-156273600D03*
X309295800Y-212090000D03*
X137972800Y-167055800D03*
X150829200Y-200431400D03*
X162552600Y-191173000D03*
X145665200Y-173966200D03*
X140208000Y-159207200D03*
X304444400Y-212098457D03*
X145849381Y-116087540D03*
X158452600Y-191173000D03*
X308254400Y-212098457D03*
X151994200Y-212013800D03*
X158460000Y-156273600D03*
X141401800Y-207975200D03*
%TO.N,+3V3*%
X216631583Y-109510940D03*
X219636381Y-115989740D03*
X131507000Y-136049800D03*
X139496800Y-160324800D03*
X140881000Y-168249600D03*
X309438461Y-206568461D03*
X144653000Y-188798200D03*
X270233183Y-110690740D03*
X139217400Y-168198800D03*
X141926097Y-114798802D03*
X149098900Y-203606000D03*
X173713181Y-115201740D03*
X175877383Y-108887340D03*
%TO.N,+5V*%
X303733200Y-207725400D03*
X146798900Y-209906000D03*
%TO.N,/ESP32/D7*%
X149375200Y-165316200D03*
%TO.N,/ESP32/T_DIN*%
X145565200Y-165316200D03*
%TO.N,/ESP32/RS*%
X155705200Y-175971200D03*
%TO.N,/ESP32/WR*%
X155705200Y-177241200D03*
%TO.N,/ESP32/D6*%
X150645200Y-165316200D03*
%TO.N,/ESP32/T_CLK*%
X148105200Y-165316200D03*
%TO.N,BOOT0*%
X154457400Y-182816200D03*
X160553400Y-188061600D03*
%TO.N,/ESP32/D2*%
X155705200Y-172161200D03*
%TO.N,/ESP32/D0*%
X155705200Y-174701200D03*
%TO.N,/ESP32/D5*%
X151915200Y-165316200D03*
%TO.N,/ESP32/RD*%
X153185200Y-182816200D03*
%TO.N,/ESP32/TFT_LED_PWM*%
X305739800Y-147142200D03*
X141755200Y-165316200D03*
%TO.N,/ESP32/D3*%
X155705200Y-170891200D03*
%TO.N,/ESP32/T_CS*%
X146835200Y-165316200D03*
%TO.N,/ESP32/D4*%
X155705200Y-169621200D03*
%TO.N,/ESP32/REST*%
X140284200Y-181381400D03*
%TO.N,/BME688/SCL*%
X171858981Y-113611740D03*
X150114000Y-186131200D03*
X221541381Y-110030340D03*
X263425981Y-111351140D03*
X131507000Y-133049800D03*
X141940983Y-111793340D03*
%TO.N,/ESP32/T_IRQ*%
X143025200Y-165316200D03*
%TO.N,/ESP32/CS*%
X140485200Y-182816200D03*
%TO.N,/ESP32/D1*%
X155705200Y-173431200D03*
%TO.N,/ESP32/T_DO*%
X144295200Y-165316200D03*
%TO.N,/BME688/SDA*%
X141935200Y-112793340D03*
X220474581Y-110030340D03*
X131507000Y-134049800D03*
X148742400Y-186131200D03*
X171909781Y-112788740D03*
X263425981Y-112646540D03*
%TD*%
D19*
%TO.N,GND*%
X306247800Y-197967600D02*
X306497000Y-198216800D01*
X306497000Y-198216800D02*
X307534400Y-198216800D01*
X303199800Y-163525200D02*
X303682400Y-164007800D01*
X306247800Y-164338000D02*
X306247800Y-197967600D01*
D20*
X142007581Y-113820740D02*
X141974381Y-113787540D01*
D19*
X305917600Y-164007800D02*
X306247800Y-164338000D01*
X303682400Y-164007800D02*
X305917600Y-164007800D01*
D21*
%TO.N,+3V3*%
X139477000Y-167939200D02*
X139217400Y-168198800D01*
X138980000Y-161814600D02*
X139477000Y-162311600D01*
X138083200Y-136093200D02*
X138027800Y-136037800D01*
X144653000Y-185674000D02*
X144653000Y-188798200D01*
X143933000Y-184954000D02*
X144653000Y-185674000D01*
X145237200Y-189382400D02*
X145237200Y-202209400D01*
X140881000Y-160794600D02*
X140881000Y-168249600D01*
X145237200Y-202209400D02*
X146633800Y-203606000D01*
X139818200Y-184954000D02*
X143933000Y-184954000D01*
X309031522Y-206975400D02*
X153001124Y-206975400D01*
X138083200Y-161115028D02*
X138782772Y-161814600D01*
X139217400Y-184353200D02*
X139818200Y-184954000D01*
X153001124Y-206975400D02*
X152054200Y-206028476D01*
X139496800Y-160324800D02*
X140411200Y-160324800D01*
X138027800Y-136037800D02*
X131507000Y-136037800D01*
X144653000Y-188798200D02*
X145237200Y-189382400D01*
X138782772Y-161814600D02*
X138980000Y-161814600D01*
X146633800Y-203606000D02*
X149098900Y-203606000D01*
X140411200Y-160324800D02*
X140881000Y-160794600D01*
X138083200Y-136093200D02*
X138083200Y-161115028D01*
X151409000Y-203606000D02*
X149098900Y-203606000D01*
X309438461Y-206568461D02*
X309031522Y-206975400D01*
X152054200Y-204251200D02*
X151409000Y-203606000D01*
X139217400Y-168198800D02*
X139217400Y-184353200D01*
X139477000Y-162311600D02*
X139477000Y-167939200D01*
X152054200Y-206028476D02*
X152054200Y-204251200D01*
%TO.N,+5V*%
X147290400Y-207725400D02*
X146798900Y-208216900D01*
X303733200Y-207725400D02*
X147290400Y-207725400D01*
X146798900Y-208216900D02*
X146798900Y-209906000D01*
D20*
%TO.N,/ESP32/D7*%
X149375200Y-162943200D02*
X149650400Y-162668000D01*
X168512160Y-202574400D02*
X299726344Y-202574400D01*
X301756800Y-180436800D02*
X304994400Y-180436800D01*
X149650400Y-162668000D02*
X166386896Y-162668000D01*
X149375200Y-165316200D02*
X149375200Y-162943200D01*
X167255600Y-163536704D02*
X167255600Y-201317840D01*
X301291800Y-180901800D02*
X301756800Y-180436800D01*
X166386896Y-162668000D02*
X167255600Y-163536704D01*
X167255600Y-201317840D02*
X168512160Y-202574400D01*
X301291800Y-201008944D02*
X301291800Y-180901800D01*
X299726344Y-202574400D02*
X301291800Y-201008944D01*
%TO.N,/ESP32/T_DIN*%
X168918504Y-201593400D02*
X299320000Y-201593400D01*
X168236600Y-163401256D02*
X168243200Y-163407856D01*
X300310800Y-173069000D02*
X300563000Y-172816800D01*
X168236600Y-163130360D02*
X168236600Y-163401256D01*
X145565200Y-162079600D02*
X145957800Y-161687000D01*
X300563000Y-172816800D02*
X304994400Y-172816800D01*
X145957800Y-161687000D02*
X166793240Y-161687000D01*
X300310800Y-200602600D02*
X300310800Y-173069000D01*
X168243200Y-200918096D02*
X168918504Y-201593400D01*
X145565200Y-165316200D02*
X145565200Y-162079600D01*
X168243200Y-163407856D02*
X168243200Y-200918096D01*
X166793240Y-161687000D02*
X168236600Y-163130360D01*
X299320000Y-201593400D02*
X300310800Y-200602600D01*
%TO.N,/ESP32/RS*%
X164639600Y-202401424D02*
X167428576Y-205190400D01*
X308420200Y-190596800D02*
X307534400Y-190596800D01*
X164639600Y-176272800D02*
X164639600Y-202401424D01*
X164338000Y-175971200D02*
X164639600Y-176272800D01*
X308603400Y-190780000D02*
X308420200Y-190596800D01*
X155705200Y-175971200D02*
X164338000Y-175971200D01*
X308118200Y-205190400D02*
X308603400Y-204705200D01*
X167428576Y-205190400D02*
X308118200Y-205190400D01*
X308603400Y-204705200D02*
X308603400Y-190780000D01*
%TO.N,/ESP32/WR*%
X308930400Y-204840648D02*
X308930400Y-188330400D01*
X164312600Y-202536872D02*
X167293128Y-205517400D01*
X308253648Y-205517400D02*
X308930400Y-204840648D01*
X308930400Y-188330400D02*
X308656800Y-188056800D01*
X167293128Y-205517400D02*
X308253648Y-205517400D01*
X155705200Y-177241200D02*
X163957000Y-177241200D01*
X163957000Y-177241200D02*
X164312600Y-177596800D01*
X164312600Y-177596800D02*
X164312600Y-202536872D01*
X308656800Y-188056800D02*
X307534400Y-188056800D01*
%TO.N,/ESP32/D6*%
X304994400Y-182976800D02*
X301985400Y-182976800D01*
X299861792Y-202901400D02*
X168376712Y-202901400D01*
X150645200Y-163248000D02*
X150645200Y-165316200D01*
X301985400Y-182976800D02*
X301618800Y-183343400D01*
X150898200Y-162995000D02*
X150645200Y-163248000D01*
X301618800Y-183343400D02*
X301618800Y-201144392D01*
X168376712Y-202901400D02*
X166928600Y-201453288D01*
X166928600Y-201453288D02*
X166928600Y-163672152D01*
X301618800Y-201144392D02*
X299861792Y-202901400D01*
X166251448Y-162995000D02*
X150898200Y-162995000D01*
X166928600Y-163672152D02*
X166251448Y-162995000D01*
%TO.N,/ESP32/T_CLK*%
X167589200Y-201188992D02*
X168647608Y-202247400D01*
X148105200Y-165316200D02*
X148105200Y-162638400D01*
X299590896Y-202247400D02*
X300964800Y-200873496D01*
X167589200Y-180492400D02*
X167589200Y-201188992D01*
X168647608Y-202247400D02*
X299590896Y-202247400D01*
X166522344Y-162341000D02*
X167582600Y-163401256D01*
X300964800Y-178104600D02*
X301244000Y-177825400D01*
X300964800Y-200873496D02*
X300964800Y-178104600D01*
X148402600Y-162341000D02*
X166522344Y-162341000D01*
X304923000Y-177825400D02*
X304994400Y-177896800D01*
X167582600Y-180485800D02*
X167589200Y-180492400D01*
X148105200Y-162638400D02*
X148402600Y-162341000D01*
X167582600Y-163401256D02*
X167582600Y-180485800D01*
X301244000Y-177825400D02*
X304923000Y-177825400D01*
%TO.N,BOOT0*%
X160286400Y-182816200D02*
X160553400Y-183083200D01*
X154457400Y-182816200D02*
X160286400Y-182816200D01*
X160553400Y-183083200D02*
X160553400Y-188061600D01*
%TO.N,/ESP32/D2*%
X165049200Y-172161200D02*
X155705200Y-172161200D01*
X303255400Y-193136800D02*
X302926800Y-193465400D01*
X300403584Y-204209400D02*
X167834920Y-204209400D01*
X165620600Y-172732600D02*
X165049200Y-172161200D01*
X302926800Y-193465400D02*
X302926800Y-201686184D01*
X165620600Y-201995080D02*
X165620600Y-172732600D01*
X302926800Y-201686184D02*
X300403584Y-204209400D01*
X167834920Y-204209400D02*
X165620600Y-201995080D01*
X304994400Y-193136800D02*
X303255400Y-193136800D01*
%TO.N,/ESP32/D0*%
X155705200Y-174701200D02*
X164592000Y-174701200D01*
X164966600Y-202265976D02*
X167564024Y-204863400D01*
X300674480Y-204863400D02*
X303580800Y-201957080D01*
X164966600Y-175075800D02*
X164966600Y-202265976D01*
X303580800Y-201957080D02*
X303580800Y-198424800D01*
X303580800Y-198424800D02*
X303788800Y-198216800D01*
X167564024Y-204863400D02*
X300674480Y-204863400D01*
X164592000Y-174701200D02*
X164966600Y-175075800D01*
X303788800Y-198216800D02*
X304994400Y-198216800D01*
%TO.N,/ESP32/D5*%
X301945800Y-185912000D02*
X302341000Y-185516800D01*
X166601600Y-201588736D02*
X168241264Y-203228400D01*
X166601600Y-163807600D02*
X166601600Y-201588736D01*
X168241264Y-203228400D02*
X299997240Y-203228400D01*
X151915200Y-163603600D02*
X152196800Y-163322000D01*
X302341000Y-185516800D02*
X304994400Y-185516800D01*
X299997240Y-203228400D02*
X301945800Y-201279840D01*
X152196800Y-163322000D02*
X166116000Y-163322000D01*
X304723800Y-185470800D02*
X304993600Y-185740600D01*
X301945800Y-201279840D02*
X301945800Y-185912000D01*
X166116000Y-163322000D02*
X166601600Y-163807600D01*
X151915200Y-165316200D02*
X151915200Y-163603600D01*
%TO.N,/ESP32/RD*%
X153469600Y-205844400D02*
X308389096Y-205844400D01*
X309257400Y-204976096D02*
X309257400Y-185937400D01*
X308389096Y-205844400D02*
X309257400Y-204976096D01*
X308836800Y-185516800D02*
X307534400Y-185516800D01*
X153185200Y-205560000D02*
X153469600Y-205844400D01*
X309257400Y-185937400D02*
X308836800Y-185516800D01*
X153185200Y-182816200D02*
X153185200Y-205560000D01*
%TO.N,/ESP32/TFT_LED_PWM*%
X305739800Y-147142200D02*
X299745400Y-147142200D01*
X299329800Y-200196256D02*
X298913656Y-200612400D01*
X142081200Y-160686800D02*
X141755200Y-161012800D01*
X169224200Y-162730616D02*
X167180384Y-160686800D01*
X167180384Y-160686800D02*
X142081200Y-160686800D01*
X169324848Y-200612400D02*
X169224200Y-200511752D01*
X169224200Y-200511752D02*
X169224200Y-162730616D01*
X298913656Y-200612400D02*
X169324848Y-200612400D01*
X299329800Y-147557800D02*
X299329800Y-200196256D01*
X299745400Y-147142200D02*
X299329800Y-147557800D01*
X141755200Y-161012800D02*
X141755200Y-165316200D01*
%TO.N,/ESP32/D3*%
X302599800Y-190871400D02*
X302599800Y-201550736D01*
X165947600Y-171332400D02*
X165506400Y-170891200D01*
X165947600Y-201859632D02*
X165947600Y-171332400D01*
X300268136Y-203882400D02*
X167970368Y-203882400D01*
X302874400Y-190596800D02*
X302599800Y-190871400D01*
X304994400Y-190596800D02*
X302874400Y-190596800D01*
X167970368Y-203882400D02*
X165947600Y-201859632D01*
X165506400Y-170891200D02*
X155705200Y-170891200D01*
X302599800Y-201550736D02*
X300268136Y-203882400D01*
%TO.N,/ESP32/T_CS*%
X146835200Y-162435200D02*
X147256400Y-162014000D01*
X299455448Y-201920400D02*
X300637800Y-200738048D01*
X166657792Y-162014000D02*
X167909600Y-163265808D01*
X167916200Y-178009800D02*
X167916200Y-201053544D01*
X300637800Y-175637600D02*
X300918600Y-175356800D01*
X168783056Y-201920400D02*
X299455448Y-201920400D01*
X167916200Y-201053544D02*
X168783056Y-201920400D01*
X300918600Y-175356800D02*
X304994400Y-175356800D01*
X300637800Y-200738048D02*
X300637800Y-175637600D01*
X146835200Y-165316200D02*
X146835200Y-162435200D01*
X167909600Y-163265808D02*
X167909600Y-178003200D01*
X147256400Y-162014000D02*
X166657792Y-162014000D01*
X167909600Y-178003200D02*
X167916200Y-178009800D01*
%TO.N,/ESP32/D4*%
X166274600Y-201724184D02*
X166274600Y-170084600D01*
X302615600Y-188036200D02*
X302272800Y-188379000D01*
X302272800Y-201415288D02*
X300132688Y-203555400D01*
X304994400Y-188056800D02*
X302636200Y-188056800D01*
X302636200Y-188056800D02*
X302615600Y-188036200D01*
X304317400Y-188010800D02*
X304666600Y-188360000D01*
X168105816Y-203555400D02*
X166274600Y-201724184D01*
X166274600Y-170084600D02*
X165811200Y-169621200D01*
X165811200Y-169621200D02*
X155705200Y-169621200D01*
X302272800Y-188379000D02*
X302272800Y-201415288D01*
X300132688Y-203555400D02*
X168105816Y-203555400D01*
%TO.N,/ESP32/REST*%
X140331800Y-184477000D02*
X147520000Y-184477000D01*
X153198704Y-206498400D02*
X308659992Y-206498400D01*
X139885200Y-184030400D02*
X140331800Y-184477000D01*
X139885200Y-181780400D02*
X139885200Y-184030400D01*
X152146000Y-187782200D02*
X152531200Y-188167400D01*
X152531200Y-188167400D02*
X152531200Y-205830896D01*
X309586800Y-157576800D02*
X307534400Y-157576800D01*
X309911400Y-205246992D02*
X309911400Y-157901400D01*
X147678800Y-187308048D02*
X148152952Y-187782200D01*
X147678800Y-184635800D02*
X147678800Y-187308048D01*
X140284200Y-181381400D02*
X139885200Y-181780400D01*
X147520000Y-184477000D02*
X147678800Y-184635800D01*
X152531200Y-205830896D02*
X153198704Y-206498400D01*
X309911400Y-157901400D02*
X309586800Y-157576800D01*
X148152952Y-187782200D02*
X152146000Y-187782200D01*
X308659992Y-206498400D02*
X309911400Y-205246992D01*
%TO.N,/BME688/SCL*%
X131507000Y-133037800D02*
X138549600Y-133037800D01*
X143283981Y-112621140D02*
X143487181Y-112824340D01*
X139115800Y-161010600D02*
X139806848Y-161010600D01*
X219188781Y-110630340D02*
X220941381Y-110630340D01*
X170436581Y-112824340D02*
X171223981Y-113611740D01*
X143283981Y-111986140D02*
X143283981Y-112621140D01*
X221541381Y-110030340D02*
X263197381Y-110030340D01*
X140281000Y-179701800D02*
X141455800Y-180876600D01*
X218467981Y-113611740D02*
X218896581Y-113183140D01*
X138549600Y-133037800D02*
X138887200Y-133375400D01*
X149736200Y-180876600D02*
X150114000Y-181254400D01*
X263197381Y-110030340D02*
X263425981Y-110258940D01*
X150114000Y-181254400D02*
X150114000Y-186131200D01*
X218896581Y-113183140D02*
X218896581Y-110922540D01*
X141455800Y-180876600D02*
X149736200Y-180876600D01*
X220941381Y-110630340D02*
X221541381Y-110030340D01*
X263425981Y-110258940D02*
X263425981Y-111351140D01*
X143091181Y-111793340D02*
X143283981Y-111986140D01*
X140281000Y-161484752D02*
X140281000Y-179701800D01*
X141940983Y-111793340D02*
X143091181Y-111793340D01*
X218896581Y-110922540D02*
X219188781Y-110630340D01*
X171223981Y-113611740D02*
X171858981Y-113611740D01*
X138887200Y-160782000D02*
X139115800Y-161010600D01*
X143487181Y-112824340D02*
X170436581Y-112824340D01*
X139806848Y-161010600D02*
X140281000Y-161484752D01*
X171858981Y-113611740D02*
X218467981Y-113611740D01*
X138887200Y-133375400D02*
X138887200Y-160782000D01*
%TO.N,/ESP32/T_IRQ*%
X168897200Y-162866064D02*
X168897200Y-200647200D01*
X143329000Y-161013800D02*
X167044936Y-161013800D01*
X304719800Y-164922200D02*
X304994400Y-165196800D01*
X167044936Y-161013800D02*
X168897200Y-162866064D01*
X299656800Y-165290200D02*
X300024800Y-164922200D01*
X143025200Y-161317600D02*
X143329000Y-161013800D01*
X300024800Y-164922200D02*
X304719800Y-164922200D01*
X299049104Y-200939400D02*
X299656800Y-200331704D01*
X143025200Y-165316200D02*
X143025200Y-161317600D01*
X168897200Y-200647200D02*
X169189400Y-200939400D01*
X169189400Y-200939400D02*
X299049104Y-200939400D01*
X299656800Y-200331704D02*
X299656800Y-165290200D01*
%TO.N,/ESP32/CS*%
X152858200Y-187961000D02*
X152858200Y-205695448D01*
X152352400Y-187455200D02*
X152858200Y-187961000D01*
X309584400Y-163044400D02*
X309196800Y-162656800D01*
X140485200Y-182816200D02*
X140485200Y-183893800D01*
X140485200Y-183893800D02*
X140741400Y-184150000D01*
X148005800Y-187172600D02*
X148288400Y-187455200D01*
X309196800Y-162656800D02*
X307534400Y-162656800D01*
X152858200Y-205695448D02*
X153334152Y-206171400D01*
X309584400Y-205111544D02*
X309584400Y-163044400D01*
X148288400Y-187455200D02*
X152352400Y-187455200D01*
X308524544Y-206171400D02*
X309584400Y-205111544D01*
X153334152Y-206171400D02*
X308524544Y-206171400D01*
X140741400Y-184150000D02*
X147675600Y-184150000D01*
X147675600Y-184150000D02*
X148005800Y-184480200D01*
X148005800Y-184480200D02*
X148005800Y-187172600D01*
%TO.N,/ESP32/D1*%
X303253800Y-201821632D02*
X303253800Y-196084800D01*
X303661800Y-195676800D02*
X304994400Y-195676800D01*
X303253800Y-196084800D02*
X303661800Y-195676800D01*
X165293600Y-202130528D02*
X167699472Y-204536400D01*
X155705200Y-173431200D02*
X164744400Y-173431200D01*
X300539032Y-204536400D02*
X303253800Y-201821632D01*
X167699472Y-204536400D02*
X300539032Y-204536400D01*
X164744400Y-173431200D02*
X165293600Y-173980400D01*
X165293600Y-173980400D02*
X165293600Y-202130528D01*
%TO.N,/ESP32/T_DO*%
X299983800Y-168138200D02*
X299983800Y-200467152D01*
X144576800Y-161340800D02*
X144295200Y-161622400D01*
X299983800Y-200467152D02*
X299184552Y-201266400D01*
X166909488Y-161340800D02*
X144576800Y-161340800D01*
X168570200Y-163001512D02*
X166909488Y-161340800D01*
X304994400Y-167736800D02*
X300385200Y-167736800D01*
X300385200Y-167736800D02*
X299983800Y-168138200D01*
X144295200Y-161622400D02*
X144295200Y-165316200D01*
X299184552Y-201266400D02*
X169053952Y-201266400D01*
X169053952Y-201266400D02*
X168570200Y-200782648D01*
X168570200Y-200782648D02*
X168570200Y-163001512D01*
%TO.N,unconnected-(U4-SD_DO-Pad35)*%
X305320600Y-163077400D02*
X304854000Y-162610800D01*
%TO.N,/BME688/SDA*%
X141940983Y-112793340D02*
X141935200Y-112793340D01*
X139954000Y-161620200D02*
X139671400Y-161337600D01*
X221292852Y-109430340D02*
X263841981Y-109430340D01*
X138560200Y-134597800D02*
X138000200Y-134037800D01*
X220474581Y-110030340D02*
X220692852Y-110030340D01*
X148742400Y-186131200D02*
X148742400Y-181660800D01*
X143610981Y-112287740D02*
X143820581Y-112497340D01*
X170668381Y-112497340D02*
X170944581Y-112773540D01*
X138560200Y-160917448D02*
X138560200Y-134597800D01*
X218122581Y-112788740D02*
X218417181Y-112494140D01*
X171909781Y-112788740D02*
X218122581Y-112788740D01*
X263841981Y-109430340D02*
X264025981Y-109614340D01*
X140839981Y-112793340D02*
X140591581Y-112544940D01*
X148285200Y-181203600D02*
X141320352Y-181203600D01*
X218848981Y-110030340D02*
X220474581Y-110030340D01*
X141320352Y-181203600D02*
X139954000Y-179837248D01*
X264025981Y-109614340D02*
X264025981Y-112427540D01*
X141935200Y-112793340D02*
X140839981Y-112793340D01*
X218417181Y-110462140D02*
X218848981Y-110030340D01*
X264025981Y-112427540D02*
X263806981Y-112646540D01*
X143820581Y-112497340D02*
X170668381Y-112497340D01*
X170944581Y-112773540D02*
X171894581Y-112773540D01*
X140591581Y-111274940D02*
X140794781Y-111071740D01*
X171894581Y-112773540D02*
X171909781Y-112788740D01*
X138980352Y-161337600D02*
X138560200Y-160917448D01*
X140794781Y-111071740D02*
X143182381Y-111071740D01*
X143182381Y-111071740D02*
X143610981Y-111500340D01*
X139954000Y-179837248D02*
X139954000Y-161620200D01*
X148742400Y-181660800D02*
X148285200Y-181203600D01*
X263806981Y-112646540D02*
X263425981Y-112646540D01*
X138000200Y-134037800D02*
X131507000Y-134037800D01*
X140591581Y-112544940D02*
X140591581Y-111274940D01*
X218417181Y-112494140D02*
X218417181Y-110462140D01*
X143610981Y-111500340D02*
X143610981Y-112287740D01*
X139671400Y-161337600D02*
X138980352Y-161337600D01*
X220692852Y-110030340D02*
X221292852Y-109430340D01*
%TD*%
%TA.AperFunction,Conductor*%
%TO.N,+3V3*%
G36*
X309756905Y-106257925D02*
G01*
X309802660Y-106310729D01*
X309813866Y-106362243D01*
X309813546Y-119481966D01*
X309793860Y-119549005D01*
X309741055Y-119594759D01*
X309689529Y-119605963D01*
X266049653Y-119599886D01*
X265982616Y-119580192D01*
X265936868Y-119527382D01*
X265926935Y-119458222D01*
X265944129Y-119410793D01*
X266013376Y-119298526D01*
X266068561Y-119131989D01*
X266079062Y-119029201D01*
X266079061Y-117429184D01*
X266068561Y-117326395D01*
X266013376Y-117159858D01*
X265921274Y-117010536D01*
X265797218Y-116886480D01*
X265704450Y-116829261D01*
X265647898Y-116794379D01*
X265647893Y-116794377D01*
X265646424Y-116793890D01*
X265481359Y-116739193D01*
X265481357Y-116739192D01*
X265378572Y-116728692D01*
X264778560Y-116728692D01*
X264778542Y-116728693D01*
X264675765Y-116739192D01*
X264675762Y-116739193D01*
X264509230Y-116794377D01*
X264509225Y-116794379D01*
X264359904Y-116886481D01*
X264235851Y-117010534D01*
X264143749Y-117159855D01*
X264143747Y-117159860D01*
X264115911Y-117243862D01*
X264088563Y-117326395D01*
X264088563Y-117326396D01*
X264088562Y-117326396D01*
X264078062Y-117429175D01*
X264078062Y-119029193D01*
X264078063Y-119029210D01*
X264088562Y-119131988D01*
X264088563Y-119131991D01*
X264143747Y-119298523D01*
X264143751Y-119298532D01*
X264212825Y-119410519D01*
X264231265Y-119477911D01*
X264210342Y-119544575D01*
X264156700Y-119589344D01*
X264107269Y-119599615D01*
X220881432Y-119593596D01*
X220814395Y-119573902D01*
X220768647Y-119521092D01*
X220758714Y-119451932D01*
X220763740Y-119430602D01*
X220803532Y-119310520D01*
X220814033Y-119207732D01*
X220814032Y-117607715D01*
X220809408Y-117562453D01*
X220803532Y-117504926D01*
X220803531Y-117504923D01*
X220788532Y-117459659D01*
X220748347Y-117338389D01*
X220656245Y-117189067D01*
X220532189Y-117065011D01*
X220382867Y-116972909D01*
X220216330Y-116917724D01*
X220216328Y-116917723D01*
X220113543Y-116907223D01*
X219513531Y-116907223D01*
X219513513Y-116907224D01*
X219410736Y-116917723D01*
X219410733Y-116917724D01*
X219244201Y-116972908D01*
X219244196Y-116972910D01*
X219094875Y-117065012D01*
X218970822Y-117189065D01*
X218878720Y-117338386D01*
X218878719Y-117338389D01*
X218823534Y-117504926D01*
X218823534Y-117504927D01*
X218823533Y-117504927D01*
X218813033Y-117607706D01*
X218813033Y-119207724D01*
X218813034Y-119207741D01*
X218823533Y-119310519D01*
X218823534Y-119310522D01*
X218863223Y-119430295D01*
X218865625Y-119500124D01*
X218829893Y-119560165D01*
X218767372Y-119591358D01*
X218745500Y-119593299D01*
X175630511Y-119587295D01*
X175563474Y-119567601D01*
X175517726Y-119514791D01*
X175507793Y-119445631D01*
X175512817Y-119424310D01*
X175565524Y-119265252D01*
X175576025Y-119162464D01*
X175576024Y-117562447D01*
X175565524Y-117459658D01*
X175510339Y-117293121D01*
X175418237Y-117143799D01*
X175294181Y-117019743D01*
X175166733Y-116941133D01*
X175144861Y-116927642D01*
X175144856Y-116927640D01*
X175143387Y-116927153D01*
X174978322Y-116872456D01*
X174978320Y-116872455D01*
X174875535Y-116861955D01*
X174275523Y-116861955D01*
X174275505Y-116861956D01*
X174172728Y-116872455D01*
X174172725Y-116872456D01*
X174006193Y-116927640D01*
X174006188Y-116927642D01*
X173856867Y-117019744D01*
X173732814Y-117143797D01*
X173640712Y-117293118D01*
X173640710Y-117293123D01*
X173625710Y-117338391D01*
X173585526Y-117459658D01*
X173585526Y-117459659D01*
X173585525Y-117459659D01*
X173575025Y-117562438D01*
X173575025Y-119162456D01*
X173575026Y-119162473D01*
X173585525Y-119265251D01*
X173585526Y-119265254D01*
X173638129Y-119423997D01*
X173640531Y-119493825D01*
X173604799Y-119553867D01*
X173542279Y-119585060D01*
X173520406Y-119587001D01*
X129938529Y-119580932D01*
X129871492Y-119561238D01*
X129825744Y-119508428D01*
X129814546Y-119456932D01*
X129814651Y-115146646D01*
X140651097Y-115146646D01*
X140657498Y-115206174D01*
X140657500Y-115206181D01*
X140707742Y-115340888D01*
X140707746Y-115340895D01*
X140793906Y-115455989D01*
X140793909Y-115455992D01*
X140909003Y-115542152D01*
X140909010Y-115542156D01*
X141043717Y-115592398D01*
X141043724Y-115592400D01*
X141103252Y-115598801D01*
X141103269Y-115598802D01*
X141676097Y-115598802D01*
X142176097Y-115598802D01*
X142748925Y-115598802D01*
X142748941Y-115598801D01*
X142808469Y-115592400D01*
X142808476Y-115592398D01*
X142943183Y-115542156D01*
X142943190Y-115542152D01*
X143058284Y-115455992D01*
X143058287Y-115455989D01*
X143062069Y-115450937D01*
X144400597Y-115450937D01*
X144400597Y-116746672D01*
X144400598Y-116746678D01*
X144407005Y-116806285D01*
X144457299Y-116941130D01*
X144457303Y-116941137D01*
X144543549Y-117056346D01*
X144543552Y-117056349D01*
X144658761Y-117142595D01*
X144658768Y-117142599D01*
X144793614Y-117192893D01*
X144793613Y-117192893D01*
X144800541Y-117193637D01*
X144853224Y-117199302D01*
X146748969Y-117199301D01*
X146808580Y-117192893D01*
X146943428Y-117142598D01*
X147058643Y-117056348D01*
X147144893Y-116941133D01*
X147195188Y-116806285D01*
X147201597Y-116746675D01*
X147201596Y-115450930D01*
X147195188Y-115391319D01*
X147176378Y-115340888D01*
X147144894Y-115256473D01*
X147144890Y-115256466D01*
X147058644Y-115141257D01*
X147058641Y-115141254D01*
X146943432Y-115055008D01*
X146943425Y-115055004D01*
X146808579Y-115004710D01*
X146808580Y-115004710D01*
X146748980Y-114998303D01*
X146748978Y-114998302D01*
X146748970Y-114998302D01*
X146748961Y-114998302D01*
X144853226Y-114998302D01*
X144853220Y-114998303D01*
X144793613Y-115004710D01*
X144658768Y-115055004D01*
X144658761Y-115055008D01*
X144543552Y-115141254D01*
X144543549Y-115141257D01*
X144457303Y-115256466D01*
X144457299Y-115256473D01*
X144407005Y-115391319D01*
X144400598Y-115450918D01*
X144400598Y-115450925D01*
X144400597Y-115450937D01*
X143062069Y-115450937D01*
X143144447Y-115340895D01*
X143144451Y-115340888D01*
X143194693Y-115206181D01*
X143194695Y-115206174D01*
X143201096Y-115146646D01*
X143201097Y-115146629D01*
X143201097Y-115048802D01*
X142176097Y-115048802D01*
X142176097Y-115598802D01*
X141676097Y-115598802D01*
X141676097Y-115048802D01*
X140651097Y-115048802D01*
X140651097Y-115146646D01*
X129814651Y-115146646D01*
X129814713Y-112623994D01*
X139991079Y-112623994D01*
X140000547Y-112659330D01*
X140032004Y-112776725D01*
X140047380Y-112803357D01*
X140047381Y-112803359D01*
X140047382Y-112803359D01*
X140060335Y-112825795D01*
X140111060Y-112913654D01*
X140111062Y-112913657D01*
X140240301Y-113042896D01*
X140240306Y-113042900D01*
X140471265Y-113273860D01*
X140588596Y-113341601D01*
X140636812Y-113392167D01*
X140650597Y-113448988D01*
X140650597Y-114146672D01*
X140650598Y-114146678D01*
X140657006Y-114206286D01*
X140675616Y-114256184D01*
X140680600Y-114325876D01*
X140675617Y-114342848D01*
X140657499Y-114391425D01*
X140657498Y-114391429D01*
X140651097Y-114450957D01*
X140651097Y-114548802D01*
X140903028Y-114548802D01*
X140946361Y-114556620D01*
X141043614Y-114592893D01*
X141043613Y-114592893D01*
X141050541Y-114593637D01*
X141103224Y-114599302D01*
X142748969Y-114599301D01*
X142808580Y-114592893D01*
X142905833Y-114556619D01*
X142949166Y-114548802D01*
X143201097Y-114548802D01*
X143201097Y-114450974D01*
X143201096Y-114450957D01*
X143194695Y-114391429D01*
X143176576Y-114342850D01*
X143171592Y-114273158D01*
X143176573Y-114256193D01*
X143195188Y-114206285D01*
X143201597Y-114146675D01*
X143201596Y-113531099D01*
X143221280Y-113464061D01*
X143274084Y-113418306D01*
X143343243Y-113408362D01*
X143357678Y-113411323D01*
X143408123Y-113424840D01*
X143408124Y-113424840D01*
X170136484Y-113424840D01*
X170203523Y-113444525D01*
X170224164Y-113461158D01*
X170855265Y-114092260D01*
X170855267Y-114092261D01*
X170855271Y-114092264D01*
X170992190Y-114171313D01*
X170992193Y-114171315D01*
X170992197Y-114171317D01*
X171144924Y-114212241D01*
X171144926Y-114212241D01*
X171276570Y-114212241D01*
X171343609Y-114231926D01*
X171353884Y-114239295D01*
X171356717Y-114241554D01*
X171356719Y-114241556D01*
X171509459Y-114337529D01*
X171524666Y-114342850D01*
X171679726Y-114397108D01*
X171679731Y-114397109D01*
X171858977Y-114417305D01*
X171858981Y-114417305D01*
X171858985Y-114417305D01*
X172038230Y-114397109D01*
X172038233Y-114397108D01*
X172038236Y-114397108D01*
X172208503Y-114337529D01*
X172361243Y-114241556D01*
X172361248Y-114241550D01*
X172364078Y-114239295D01*
X172366256Y-114238405D01*
X172367139Y-114237851D01*
X172367236Y-114238005D01*
X172428764Y-114212885D01*
X172441393Y-114212240D01*
X218381312Y-114212240D01*
X218381328Y-114212241D01*
X218388924Y-114212241D01*
X218547035Y-114212241D01*
X218547038Y-114212241D01*
X218699766Y-114171317D01*
X218759097Y-114137062D01*
X218836697Y-114092260D01*
X218948501Y-113980456D01*
X218948501Y-113980454D01*
X218958705Y-113970251D01*
X218958709Y-113970246D01*
X219255087Y-113673868D01*
X219255092Y-113673864D01*
X219265295Y-113663660D01*
X219265297Y-113663660D01*
X219377101Y-113551856D01*
X219435371Y-113450929D01*
X219439069Y-113444525D01*
X219456155Y-113414930D01*
X219456156Y-113414929D01*
X219456156Y-113414927D01*
X219456158Y-113414925D01*
X219497082Y-113262197D01*
X219497082Y-113104083D01*
X219497082Y-113096488D01*
X219497081Y-113096470D01*
X219497081Y-111354840D01*
X219516766Y-111287801D01*
X219569570Y-111242046D01*
X219621081Y-111230840D01*
X220854712Y-111230840D01*
X220854728Y-111230841D01*
X220862324Y-111230841D01*
X221020435Y-111230841D01*
X221020438Y-111230841D01*
X221173166Y-111189917D01*
X221223285Y-111160979D01*
X221310097Y-111110860D01*
X221421901Y-110999056D01*
X221421901Y-110999054D01*
X221432109Y-110988847D01*
X221432111Y-110988844D01*
X221559916Y-110861038D01*
X221621237Y-110827555D01*
X221633692Y-110825503D01*
X221720636Y-110815708D01*
X221890903Y-110756129D01*
X222043643Y-110660156D01*
X222043648Y-110660150D01*
X222046478Y-110657895D01*
X222048656Y-110657005D01*
X222049539Y-110656451D01*
X222049636Y-110656605D01*
X222111164Y-110631485D01*
X222123793Y-110630840D01*
X262701481Y-110630840D01*
X262768520Y-110650525D01*
X262814275Y-110703329D01*
X262825481Y-110754840D01*
X262825481Y-110768727D01*
X262805796Y-110835766D01*
X262798431Y-110846036D01*
X262796167Y-110848874D01*
X262700192Y-111001616D01*
X262640612Y-111171885D01*
X262640611Y-111171890D01*
X262620416Y-111351136D01*
X262620416Y-111351143D01*
X262640611Y-111530389D01*
X262640612Y-111530394D01*
X262700192Y-111700663D01*
X262796165Y-111853402D01*
X262853922Y-111911159D01*
X262887407Y-111972482D01*
X262882423Y-112042174D01*
X262853922Y-112086521D01*
X262796165Y-112144277D01*
X262700192Y-112297016D01*
X262640612Y-112467285D01*
X262640611Y-112467290D01*
X262620416Y-112646536D01*
X262620416Y-112646543D01*
X262640611Y-112825789D01*
X262640612Y-112825794D01*
X262700192Y-112996063D01*
X262796165Y-113148802D01*
X262923719Y-113276356D01*
X262923721Y-113276357D01*
X263070040Y-113368296D01*
X263076459Y-113372329D01*
X263198203Y-113414929D01*
X263246726Y-113431908D01*
X263246731Y-113431909D01*
X263425977Y-113452105D01*
X263425981Y-113452105D01*
X263425985Y-113452105D01*
X263605230Y-113431909D01*
X263605233Y-113431908D01*
X263605236Y-113431908D01*
X263775503Y-113372329D01*
X263928243Y-113276356D01*
X263960242Y-113244356D01*
X264015829Y-113212262D01*
X264038766Y-113206117D01*
X264092932Y-113174844D01*
X264175697Y-113127060D01*
X264287501Y-113015256D01*
X264287501Y-113015255D01*
X264304929Y-112997827D01*
X264304934Y-112997820D01*
X264506501Y-112796256D01*
X264585558Y-112659324D01*
X264626482Y-112506597D01*
X264626482Y-112348482D01*
X264626482Y-112340887D01*
X264626481Y-112340869D01*
X264626481Y-109535281D01*
X264624552Y-109528082D01*
X264624552Y-109528083D01*
X264624551Y-109528078D01*
X264585558Y-109382555D01*
X264540522Y-109304551D01*
X264506501Y-109245624D01*
X264394697Y-109133820D01*
X264394696Y-109133819D01*
X264390366Y-109129489D01*
X264390355Y-109129479D01*
X264329571Y-109068695D01*
X264329569Y-109068692D01*
X264210698Y-108949821D01*
X264210697Y-108949820D01*
X264123885Y-108899700D01*
X264123885Y-108899699D01*
X264123881Y-108899698D01*
X264073766Y-108870763D01*
X263921038Y-108829839D01*
X263762924Y-108829839D01*
X263755328Y-108829839D01*
X263755312Y-108829840D01*
X221371909Y-108829840D01*
X221213795Y-108829840D01*
X221061067Y-108870763D01*
X221061066Y-108870763D01*
X221061064Y-108870764D01*
X221061061Y-108870765D01*
X221010948Y-108899699D01*
X221010947Y-108899700D01*
X220967541Y-108924760D01*
X220924137Y-108949819D01*
X220924134Y-108949821D01*
X220812332Y-109061624D01*
X220812330Y-109061626D01*
X220740138Y-109133818D01*
X220673725Y-109200231D01*
X220612402Y-109233715D01*
X220572161Y-109235769D01*
X220474584Y-109224775D01*
X220474577Y-109224775D01*
X220295331Y-109244970D01*
X220295326Y-109244971D01*
X220125057Y-109304551D01*
X219972317Y-109400525D01*
X219969484Y-109402785D01*
X219967305Y-109403674D01*
X219966423Y-109404229D01*
X219966325Y-109404074D01*
X219904798Y-109429195D01*
X219892169Y-109429840D01*
X218769921Y-109429840D01*
X218729000Y-109440804D01*
X218729000Y-109440805D01*
X218691732Y-109450791D01*
X218617195Y-109470763D01*
X218617190Y-109470766D01*
X218480271Y-109549815D01*
X218480263Y-109549821D01*
X217936662Y-110093422D01*
X217936658Y-110093427D01*
X217890189Y-110173916D01*
X217890189Y-110173917D01*
X217857604Y-110230354D01*
X217857604Y-110230355D01*
X217816680Y-110383083D01*
X217816680Y-110383085D01*
X217816680Y-110551186D01*
X217816681Y-110551199D01*
X217816681Y-112064240D01*
X217796996Y-112131279D01*
X217744192Y-112177034D01*
X217692681Y-112188240D01*
X172492193Y-112188240D01*
X172425154Y-112168555D01*
X172414878Y-112161185D01*
X172412044Y-112158925D01*
X172412043Y-112158924D01*
X172355277Y-112123255D01*
X172259304Y-112062951D01*
X172089035Y-112003371D01*
X172089030Y-112003370D01*
X171909785Y-111983175D01*
X171909777Y-111983175D01*
X171730531Y-112003370D01*
X171730526Y-112003371D01*
X171560258Y-112062951D01*
X171470638Y-112119263D01*
X171415300Y-112154034D01*
X171349330Y-112173040D01*
X171244679Y-112173040D01*
X171177640Y-112153355D01*
X171156998Y-112136721D01*
X171037098Y-112016821D01*
X171037097Y-112016820D01*
X170924202Y-111951640D01*
X170924202Y-111951639D01*
X170924197Y-111951638D01*
X170915811Y-111946796D01*
X170900167Y-111937763D01*
X170861984Y-111927532D01*
X170747438Y-111896839D01*
X170589324Y-111896839D01*
X170581728Y-111896839D01*
X170581712Y-111896840D01*
X144335481Y-111896840D01*
X144268442Y-111877155D01*
X144222687Y-111824351D01*
X144211481Y-111772840D01*
X144211481Y-111589399D01*
X144211482Y-111589386D01*
X144211482Y-111421285D01*
X144211482Y-111421283D01*
X144181824Y-111310599D01*
X144182518Y-111281439D01*
X144176795Y-111274338D01*
X144174622Y-111275593D01*
X144134607Y-111206286D01*
X144134605Y-111206284D01*
X144091501Y-111131624D01*
X143979697Y-111019820D01*
X143979696Y-111019819D01*
X143975366Y-111015489D01*
X143975355Y-111015479D01*
X143669971Y-110710095D01*
X143669969Y-110710092D01*
X143551098Y-110591221D01*
X143551090Y-110591215D01*
X143449568Y-110532602D01*
X143414169Y-110512164D01*
X143414168Y-110512163D01*
X143353074Y-110495793D01*
X143261438Y-110471239D01*
X143103324Y-110471239D01*
X143095728Y-110471239D01*
X143095712Y-110471240D01*
X140873838Y-110471240D01*
X140715723Y-110471240D01*
X140562996Y-110512163D01*
X140562995Y-110512163D01*
X140562993Y-110512164D01*
X140562992Y-110512164D01*
X140527594Y-110532602D01*
X140426068Y-110591217D01*
X140426063Y-110591221D01*
X140111062Y-110906222D01*
X140111060Y-110906225D01*
X140063979Y-110987774D01*
X140063977Y-110987776D01*
X140032006Y-111043149D01*
X140032004Y-111043152D01*
X140013862Y-111110859D01*
X139991080Y-111195883D01*
X139991080Y-111195885D01*
X139991080Y-111363986D01*
X139991081Y-111363999D01*
X139991081Y-112458270D01*
X139991080Y-112458288D01*
X139991080Y-112623994D01*
X139991079Y-112623994D01*
X129814713Y-112623994D01*
X129814781Y-109850937D01*
X144400597Y-109850937D01*
X144400597Y-111146672D01*
X144400598Y-111146678D01*
X144406741Y-111203821D01*
X144405271Y-111211963D01*
X144407480Y-111213971D01*
X144417781Y-111235176D01*
X144457300Y-111341132D01*
X144457303Y-111341137D01*
X144543549Y-111456346D01*
X144543552Y-111456349D01*
X144658761Y-111542595D01*
X144658768Y-111542599D01*
X144793614Y-111592893D01*
X144793613Y-111592893D01*
X144800541Y-111593637D01*
X144853224Y-111599302D01*
X146748969Y-111599301D01*
X146808580Y-111592893D01*
X146943428Y-111542598D01*
X147058643Y-111456348D01*
X147144893Y-111341133D01*
X147195188Y-111206285D01*
X147201597Y-111146675D01*
X147201596Y-109850930D01*
X147195188Y-109791319D01*
X147144893Y-109656471D01*
X147144892Y-109656470D01*
X147144890Y-109656466D01*
X147058644Y-109541257D01*
X147058641Y-109541254D01*
X146943432Y-109455008D01*
X146943425Y-109455004D01*
X146808579Y-109404710D01*
X146808580Y-109404710D01*
X146748980Y-109398303D01*
X146748978Y-109398302D01*
X146748970Y-109398302D01*
X146748961Y-109398302D01*
X144853226Y-109398302D01*
X144853220Y-109398303D01*
X144793613Y-109404710D01*
X144658768Y-109455004D01*
X144658761Y-109455008D01*
X144543552Y-109541254D01*
X144543549Y-109541257D01*
X144457303Y-109656466D01*
X144457299Y-109656473D01*
X144407005Y-109791319D01*
X144400598Y-109850918D01*
X144400598Y-109850925D01*
X144400597Y-109850937D01*
X129814781Y-109850937D01*
X129814866Y-106362237D01*
X129834552Y-106295198D01*
X129887357Y-106249444D01*
X129938866Y-106238240D01*
X309689866Y-106238240D01*
X309756905Y-106257925D01*
G37*
%TD.AperFunction*%
%TD*%
%TA.AperFunction,Conductor*%
%TO.N,GND*%
G36*
X137416003Y-161475313D02*
G01*
X137437902Y-161500135D01*
X137477411Y-161559266D01*
X137500251Y-161593448D01*
X137500252Y-161593449D01*
X138199821Y-162293016D01*
X138262948Y-162356143D01*
X138304357Y-162397552D01*
X138427270Y-162479680D01*
X138427283Y-162479687D01*
X138563854Y-162536256D01*
X138563859Y-162536258D01*
X138622377Y-162547897D01*
X138684286Y-162580280D01*
X138685866Y-162581833D01*
X138690181Y-162586148D01*
X138723666Y-162647471D01*
X138726500Y-162673829D01*
X138726500Y-167506260D01*
X138706815Y-167573299D01*
X138690181Y-167593941D01*
X138587584Y-167696537D01*
X138491611Y-167849276D01*
X138432031Y-168019545D01*
X138432030Y-168019550D01*
X138411835Y-168198796D01*
X138411835Y-168198803D01*
X138432030Y-168378049D01*
X138432031Y-168378054D01*
X138459942Y-168457817D01*
X138466900Y-168498772D01*
X138466900Y-184427118D01*
X138466900Y-184427120D01*
X138466899Y-184427120D01*
X138495740Y-184572107D01*
X138495743Y-184572117D01*
X138552314Y-184708692D01*
X138570309Y-184735623D01*
X138570310Y-184735626D01*
X138634446Y-184831614D01*
X138634452Y-184831621D01*
X139235249Y-185432416D01*
X139339784Y-185536951D01*
X139339787Y-185536953D01*
X139339788Y-185536954D01*
X139462694Y-185619077D01*
X139462696Y-185619078D01*
X139462705Y-185619084D01*
X139486493Y-185628937D01*
X139486494Y-185628938D01*
X139486495Y-185628938D01*
X139599288Y-185675659D01*
X139704919Y-185696670D01*
X139731161Y-185701890D01*
X139744281Y-185704500D01*
X139744282Y-185704500D01*
X139744283Y-185704500D01*
X139892118Y-185704500D01*
X143570770Y-185704500D01*
X143637809Y-185724185D01*
X143658451Y-185740819D01*
X143866181Y-185948549D01*
X143899666Y-186009872D01*
X143902500Y-186036230D01*
X143902500Y-188498228D01*
X143895542Y-188539182D01*
X143867631Y-188618947D01*
X143847435Y-188798196D01*
X143847435Y-188798203D01*
X143867630Y-188977449D01*
X143867631Y-188977454D01*
X143927211Y-189147723D01*
X143997091Y-189258935D01*
X144023184Y-189300462D01*
X144150738Y-189428016D01*
X144264130Y-189499265D01*
X144303483Y-189523992D01*
X144309753Y-189527012D01*
X144308868Y-189528848D01*
X144344938Y-189551506D01*
X144450381Y-189656948D01*
X144483866Y-189718271D01*
X144486700Y-189744630D01*
X144486700Y-202283318D01*
X144486700Y-202283320D01*
X144486699Y-202283320D01*
X144515540Y-202428307D01*
X144515543Y-202428317D01*
X144572114Y-202564892D01*
X144592618Y-202595578D01*
X144592619Y-202595581D01*
X144654246Y-202687814D01*
X144654252Y-202687821D01*
X146050849Y-204084416D01*
X146155384Y-204188951D01*
X146155387Y-204188953D01*
X146155388Y-204188954D01*
X146278294Y-204271077D01*
X146278296Y-204271078D01*
X146278305Y-204271084D01*
X146302414Y-204281070D01*
X146302415Y-204281071D01*
X146302416Y-204281071D01*
X146414888Y-204327659D01*
X146531041Y-204350763D01*
X146550268Y-204354587D01*
X146559881Y-204356500D01*
X146559882Y-204356500D01*
X146559883Y-204356500D01*
X146707718Y-204356500D01*
X148798928Y-204356500D01*
X148839882Y-204363457D01*
X148882067Y-204378219D01*
X148919645Y-204391368D01*
X148919650Y-204391369D01*
X149098896Y-204411565D01*
X149098900Y-204411565D01*
X149098904Y-204411565D01*
X149278149Y-204391369D01*
X149278152Y-204391368D01*
X149278155Y-204391368D01*
X149357917Y-204363457D01*
X149398872Y-204356500D01*
X151046770Y-204356500D01*
X151113809Y-204376185D01*
X151134446Y-204392814D01*
X151267382Y-204525749D01*
X151300866Y-204587070D01*
X151303700Y-204613429D01*
X151303700Y-206102394D01*
X151303700Y-206102396D01*
X151303699Y-206102396D01*
X151332540Y-206247383D01*
X151332543Y-206247393D01*
X151389113Y-206383966D01*
X151389114Y-206383967D01*
X151389116Y-206383971D01*
X151402482Y-206403974D01*
X151402483Y-206403977D01*
X151471246Y-206506890D01*
X151471252Y-206506897D01*
X151727575Y-206763219D01*
X151761060Y-206824542D01*
X151756076Y-206894233D01*
X151714205Y-206950167D01*
X151648740Y-206974584D01*
X151639894Y-206974900D01*
X147216480Y-206974900D01*
X147071492Y-207003740D01*
X147071486Y-207003742D01*
X146934908Y-207060314D01*
X146934896Y-207060321D01*
X146885669Y-207093213D01*
X146811988Y-207142444D01*
X146811980Y-207142450D01*
X146215948Y-207738483D01*
X146195557Y-207769001D01*
X146175302Y-207799317D01*
X146154559Y-207830361D01*
X146133816Y-207861404D01*
X146133812Y-207861411D01*
X146077243Y-207997982D01*
X146077240Y-207997992D01*
X146048400Y-208142979D01*
X146048400Y-209606028D01*
X146041442Y-209646982D01*
X146013531Y-209726747D01*
X145993335Y-209905996D01*
X145993335Y-209906003D01*
X146013530Y-210085249D01*
X146013531Y-210085254D01*
X146073111Y-210255523D01*
X146169084Y-210408262D01*
X146296638Y-210535816D01*
X146449378Y-210631789D01*
X146614495Y-210689566D01*
X146619645Y-210691368D01*
X146619650Y-210691369D01*
X146798896Y-210711565D01*
X146798900Y-210711565D01*
X146798904Y-210711565D01*
X146978149Y-210691369D01*
X146978152Y-210691368D01*
X146978155Y-210691368D01*
X147148422Y-210631789D01*
X147301162Y-210535816D01*
X147428716Y-210408262D01*
X147524689Y-210255522D01*
X147584268Y-210085255D01*
X147604465Y-209906000D01*
X147584268Y-209726745D01*
X147556358Y-209646982D01*
X147549400Y-209606028D01*
X147549400Y-208599900D01*
X147569085Y-208532861D01*
X147621889Y-208487106D01*
X147673400Y-208475900D01*
X303433228Y-208475900D01*
X303474183Y-208482858D01*
X303553945Y-208510768D01*
X303553950Y-208510769D01*
X303733196Y-208530965D01*
X303733200Y-208530965D01*
X303733204Y-208530965D01*
X303912449Y-208510769D01*
X303912452Y-208510768D01*
X303912455Y-208510768D01*
X304082722Y-208451189D01*
X304235462Y-208355216D01*
X304363016Y-208227662D01*
X304458989Y-208074922D01*
X304518568Y-207904655D01*
X304523441Y-207861411D01*
X304526302Y-207836017D01*
X304553368Y-207771603D01*
X304610963Y-207732048D01*
X304649522Y-207725900D01*
X309105442Y-207725900D01*
X309202984Y-207706496D01*
X309250435Y-207697058D01*
X309387017Y-207640484D01*
X309436251Y-207607586D01*
X309509938Y-207558352D01*
X309599719Y-207468570D01*
X309661039Y-207435087D01*
X309730731Y-207440071D01*
X309786665Y-207481942D01*
X309811082Y-207547406D01*
X309811398Y-207556256D01*
X309811024Y-222886896D01*
X309791338Y-222953935D01*
X309738533Y-222999689D01*
X309669374Y-223009630D01*
X309605819Y-222980604D01*
X309599343Y-222974574D01*
X309379256Y-222754487D01*
X309107001Y-222537372D01*
X309106999Y-222537371D01*
X308812130Y-222352092D01*
X308498382Y-222200999D01*
X308169692Y-222085985D01*
X308169684Y-222085982D01*
X307915048Y-222027863D01*
X307830171Y-222008491D01*
X307830167Y-222008490D01*
X307830158Y-222008489D01*
X307484124Y-221969500D01*
X307484120Y-221969500D01*
X307135880Y-221969500D01*
X307135875Y-221969500D01*
X306789841Y-222008489D01*
X306789829Y-222008491D01*
X306450315Y-222085982D01*
X306450307Y-222085985D01*
X306121617Y-222200999D01*
X305807869Y-222352092D01*
X305513000Y-222537371D01*
X305512998Y-222537372D01*
X305240743Y-222754487D01*
X304994487Y-223000743D01*
X304777372Y-223272998D01*
X304777371Y-223273000D01*
X304592092Y-223567869D01*
X304440999Y-223881617D01*
X304325985Y-224210307D01*
X304325982Y-224210315D01*
X304248491Y-224549829D01*
X304248489Y-224549841D01*
X304209500Y-224895875D01*
X304209500Y-225244124D01*
X304248489Y-225590158D01*
X304248491Y-225590170D01*
X304325982Y-225929684D01*
X304325985Y-225929692D01*
X304440999Y-226258382D01*
X304592092Y-226572130D01*
X304777371Y-226866999D01*
X304777372Y-226867001D01*
X304994487Y-227139256D01*
X305183450Y-227328219D01*
X305216935Y-227389542D01*
X305211951Y-227459234D01*
X305170079Y-227515167D01*
X305104615Y-227539584D01*
X305095769Y-227539900D01*
X134524231Y-227539900D01*
X134457192Y-227520215D01*
X134411437Y-227467411D01*
X134401493Y-227398253D01*
X134430518Y-227334697D01*
X134436550Y-227328219D01*
X134625506Y-227139263D01*
X134810928Y-226906751D01*
X134842627Y-226867001D01*
X134842628Y-226866999D01*
X134842630Y-226866997D01*
X135027906Y-226572133D01*
X135179002Y-226258379D01*
X135294018Y-225929681D01*
X135371509Y-225590171D01*
X135410500Y-225244120D01*
X135410500Y-224895880D01*
X135371509Y-224549829D01*
X135294018Y-224210319D01*
X135179002Y-223881621D01*
X135027906Y-223567867D01*
X134842630Y-223273003D01*
X134842628Y-223273000D01*
X134842627Y-223272998D01*
X134625512Y-223000743D01*
X134379256Y-222754487D01*
X134107001Y-222537372D01*
X134106999Y-222537371D01*
X133812130Y-222352092D01*
X133498382Y-222200999D01*
X133169692Y-222085985D01*
X133169684Y-222085982D01*
X132915048Y-222027863D01*
X132830171Y-222008491D01*
X132830167Y-222008490D01*
X132830158Y-222008489D01*
X132484124Y-221969500D01*
X132484120Y-221969500D01*
X132135880Y-221969500D01*
X132135875Y-221969500D01*
X131789841Y-222008489D01*
X131789829Y-222008491D01*
X131450315Y-222085982D01*
X131450307Y-222085985D01*
X131121617Y-222200999D01*
X130807869Y-222352092D01*
X130513000Y-222537371D01*
X130512998Y-222537372D01*
X130240743Y-222754487D01*
X130023705Y-222971525D01*
X129962382Y-223005010D01*
X129892690Y-223000026D01*
X129836757Y-222958154D01*
X129812340Y-222892690D01*
X129812024Y-222883841D01*
X129812028Y-222754494D01*
X129812291Y-211963000D01*
X131738746Y-211963000D01*
X131757331Y-212199156D01*
X131812635Y-212429512D01*
X131812638Y-212429520D01*
X131903285Y-212648365D01*
X131903287Y-212648368D01*
X132019628Y-212838218D01*
X132632051Y-212225795D01*
X132654654Y-212280364D01*
X132727977Y-212390100D01*
X132821300Y-212483423D01*
X132931036Y-212556746D01*
X132985603Y-212579348D01*
X132373180Y-213191770D01*
X132373180Y-213191771D01*
X132563031Y-213308112D01*
X132563034Y-213308114D01*
X132781879Y-213398761D01*
X132781887Y-213398764D01*
X133012243Y-213454068D01*
X133248400Y-213472653D01*
X133484556Y-213454068D01*
X133714912Y-213398764D01*
X133714920Y-213398761D01*
X133933765Y-213308114D01*
X133933768Y-213308112D01*
X134123617Y-213191771D01*
X134123618Y-213191770D01*
X133511196Y-212579348D01*
X133565764Y-212556746D01*
X133675500Y-212483423D01*
X133768823Y-212390100D01*
X133842146Y-212280364D01*
X133864748Y-212225796D01*
X134477170Y-212838218D01*
X134477171Y-212838217D01*
X134593512Y-212648368D01*
X134593514Y-212648365D01*
X134684161Y-212429520D01*
X134684164Y-212429512D01*
X134739468Y-212199156D01*
X134758053Y-211963000D01*
X134758053Y-211962998D01*
X135693243Y-211962998D01*
X135693243Y-211963001D01*
X135713830Y-212198315D01*
X135713832Y-212198326D01*
X135774966Y-212426483D01*
X135774970Y-212426492D01*
X135874798Y-212640576D01*
X135933473Y-212724372D01*
X136432050Y-212225794D01*
X136454654Y-212280364D01*
X136527977Y-212390100D01*
X136621300Y-212483423D01*
X136731036Y-212556746D01*
X136785604Y-212579348D01*
X136287026Y-213077926D01*
X136370817Y-213136598D01*
X136370821Y-213136600D01*
X136584907Y-213236429D01*
X136584916Y-213236433D01*
X136813073Y-213297567D01*
X136813084Y-213297569D01*
X137048398Y-213318157D01*
X137048402Y-213318157D01*
X137283715Y-213297569D01*
X137283726Y-213297567D01*
X137511883Y-213236433D01*
X137511892Y-213236429D01*
X137725980Y-213136599D01*
X137809771Y-213077925D01*
X137311195Y-212579349D01*
X137365764Y-212556746D01*
X137475500Y-212483423D01*
X137568823Y-212390100D01*
X137642146Y-212280364D01*
X137664749Y-212225795D01*
X138163325Y-212724371D01*
X138221999Y-212640580D01*
X138321829Y-212426492D01*
X138321833Y-212426483D01*
X138382967Y-212198326D01*
X138382969Y-212198315D01*
X138403557Y-211963001D01*
X138403557Y-211962998D01*
X138382969Y-211727684D01*
X138382967Y-211727673D01*
X138321833Y-211499516D01*
X138321829Y-211499507D01*
X138222001Y-211285424D01*
X138163325Y-211201626D01*
X137664748Y-211700203D01*
X137642146Y-211645636D01*
X137568823Y-211535900D01*
X137475500Y-211442577D01*
X137365764Y-211369254D01*
X137311195Y-211346650D01*
X137809772Y-210848073D01*
X137725976Y-210789398D01*
X137511892Y-210689570D01*
X137511883Y-210689566D01*
X137283726Y-210628432D01*
X137283715Y-210628430D01*
X137048402Y-210607843D01*
X137048398Y-210607843D01*
X136813084Y-210628430D01*
X136813073Y-210628432D01*
X136584916Y-210689566D01*
X136584907Y-210689570D01*
X136370823Y-210789399D01*
X136370821Y-210789400D01*
X136287027Y-210848073D01*
X136287026Y-210848073D01*
X136785604Y-211346650D01*
X136731036Y-211369254D01*
X136621300Y-211442577D01*
X136527977Y-211535900D01*
X136454654Y-211645636D01*
X136432051Y-211700204D01*
X135933473Y-211201626D01*
X135933473Y-211201627D01*
X135874800Y-211285421D01*
X135874799Y-211285423D01*
X135774970Y-211499507D01*
X135774966Y-211499516D01*
X135713832Y-211727673D01*
X135713830Y-211727684D01*
X135693243Y-211962998D01*
X134758053Y-211962998D01*
X134739468Y-211726843D01*
X134684164Y-211496487D01*
X134684161Y-211496479D01*
X134593514Y-211277634D01*
X134593512Y-211277631D01*
X134477170Y-211087780D01*
X133864748Y-211700202D01*
X133842146Y-211645636D01*
X133768823Y-211535900D01*
X133675500Y-211442577D01*
X133565764Y-211369254D01*
X133511194Y-211346650D01*
X134123618Y-210734228D01*
X133933768Y-210617887D01*
X133933765Y-210617885D01*
X133714920Y-210527238D01*
X133714912Y-210527235D01*
X133484556Y-210471931D01*
X133248400Y-210453346D01*
X133012243Y-210471931D01*
X132781887Y-210527235D01*
X132781879Y-210527238D01*
X132563034Y-210617885D01*
X132563031Y-210617887D01*
X132373180Y-210734228D01*
X132985603Y-211346651D01*
X132931036Y-211369254D01*
X132821300Y-211442577D01*
X132727977Y-211535900D01*
X132654654Y-211645636D01*
X132632051Y-211700203D01*
X132019628Y-211087780D01*
X131903287Y-211277631D01*
X131903285Y-211277634D01*
X131812638Y-211496479D01*
X131812635Y-211496487D01*
X131757331Y-211726843D01*
X131738746Y-211963000D01*
X129812291Y-211963000D01*
X129812502Y-203323000D01*
X131738746Y-203323000D01*
X131757331Y-203559156D01*
X131812635Y-203789512D01*
X131812638Y-203789520D01*
X131903285Y-204008365D01*
X131903287Y-204008368D01*
X132019628Y-204198218D01*
X132632051Y-203585795D01*
X132654654Y-203640364D01*
X132727977Y-203750100D01*
X132821300Y-203843423D01*
X132931036Y-203916746D01*
X132985603Y-203939348D01*
X132373180Y-204551770D01*
X132373180Y-204551771D01*
X132563031Y-204668112D01*
X132563034Y-204668114D01*
X132781879Y-204758761D01*
X132781887Y-204758764D01*
X133012243Y-204814068D01*
X133248400Y-204832653D01*
X133484556Y-204814068D01*
X133714912Y-204758764D01*
X133714920Y-204758761D01*
X133933765Y-204668114D01*
X133933768Y-204668112D01*
X134123617Y-204551771D01*
X134123618Y-204551770D01*
X133511196Y-203939348D01*
X133565764Y-203916746D01*
X133675500Y-203843423D01*
X133768823Y-203750100D01*
X133842146Y-203640364D01*
X133864748Y-203585796D01*
X134477170Y-204198218D01*
X134477171Y-204198217D01*
X134593512Y-204008368D01*
X134593514Y-204008365D01*
X134684161Y-203789520D01*
X134684164Y-203789512D01*
X134739468Y-203559156D01*
X134758053Y-203323000D01*
X134758053Y-203322998D01*
X135693243Y-203322998D01*
X135693243Y-203323001D01*
X135713830Y-203558315D01*
X135713832Y-203558326D01*
X135774966Y-203786483D01*
X135774970Y-203786492D01*
X135874798Y-204000576D01*
X135933473Y-204084372D01*
X136432050Y-203585794D01*
X136454654Y-203640364D01*
X136527977Y-203750100D01*
X136621300Y-203843423D01*
X136731036Y-203916746D01*
X136785604Y-203939348D01*
X136287026Y-204437926D01*
X136370817Y-204496598D01*
X136370821Y-204496600D01*
X136584907Y-204596429D01*
X136584916Y-204596433D01*
X136813073Y-204657567D01*
X136813084Y-204657569D01*
X137048398Y-204678157D01*
X137048402Y-204678157D01*
X137283715Y-204657569D01*
X137283726Y-204657567D01*
X137511883Y-204596433D01*
X137511892Y-204596429D01*
X137725980Y-204496599D01*
X137809771Y-204437925D01*
X137311195Y-203939349D01*
X137365764Y-203916746D01*
X137475500Y-203843423D01*
X137568823Y-203750100D01*
X137642146Y-203640364D01*
X137664749Y-203585795D01*
X138163325Y-204084371D01*
X138221999Y-204000580D01*
X138321829Y-203786492D01*
X138321833Y-203786483D01*
X138382967Y-203558326D01*
X138382969Y-203558315D01*
X138403557Y-203323001D01*
X138403557Y-203322998D01*
X138382969Y-203087684D01*
X138382967Y-203087673D01*
X138321833Y-202859516D01*
X138321829Y-202859507D01*
X138222001Y-202645424D01*
X138163325Y-202561626D01*
X137664748Y-203060203D01*
X137642146Y-203005636D01*
X137568823Y-202895900D01*
X137475500Y-202802577D01*
X137365764Y-202729254D01*
X137311195Y-202706650D01*
X137809772Y-202208073D01*
X137725976Y-202149398D01*
X137511892Y-202049570D01*
X137511883Y-202049566D01*
X137283726Y-201988432D01*
X137283715Y-201988430D01*
X137048402Y-201967843D01*
X137048398Y-201967843D01*
X136813084Y-201988430D01*
X136813073Y-201988432D01*
X136584916Y-202049566D01*
X136584907Y-202049570D01*
X136370823Y-202149399D01*
X136370821Y-202149400D01*
X136287027Y-202208073D01*
X136287026Y-202208073D01*
X136785604Y-202706650D01*
X136731036Y-202729254D01*
X136621300Y-202802577D01*
X136527977Y-202895900D01*
X136454654Y-203005636D01*
X136432051Y-203060204D01*
X135933473Y-202561626D01*
X135933473Y-202561627D01*
X135874800Y-202645421D01*
X135874799Y-202645423D01*
X135774970Y-202859507D01*
X135774966Y-202859516D01*
X135713832Y-203087673D01*
X135713830Y-203087684D01*
X135693243Y-203322998D01*
X134758053Y-203322998D01*
X134739468Y-203086843D01*
X134684164Y-202856487D01*
X134684161Y-202856479D01*
X134593514Y-202637634D01*
X134593512Y-202637631D01*
X134477170Y-202447780D01*
X133864748Y-203060202D01*
X133842146Y-203005636D01*
X133768823Y-202895900D01*
X133675500Y-202802577D01*
X133565764Y-202729254D01*
X133511194Y-202706650D01*
X134123618Y-202094228D01*
X133933768Y-201977887D01*
X133933765Y-201977885D01*
X133714920Y-201887238D01*
X133714912Y-201887235D01*
X133484556Y-201831931D01*
X133248400Y-201813346D01*
X133012243Y-201831931D01*
X132781887Y-201887235D01*
X132781879Y-201887238D01*
X132563034Y-201977885D01*
X132563031Y-201977887D01*
X132373180Y-202094228D01*
X132985603Y-202706651D01*
X132931036Y-202729254D01*
X132821300Y-202802577D01*
X132727977Y-202895900D01*
X132654654Y-203005636D01*
X132632051Y-203060203D01*
X132019628Y-202447780D01*
X131903287Y-202637631D01*
X131903285Y-202637634D01*
X131812638Y-202856479D01*
X131812635Y-202856487D01*
X131757331Y-203086843D01*
X131738746Y-203323000D01*
X129812502Y-203323000D01*
X129812771Y-192277999D01*
X138039541Y-192277999D01*
X138039541Y-192278000D01*
X138060136Y-192513403D01*
X138060138Y-192513413D01*
X138121294Y-192741655D01*
X138121296Y-192741659D01*
X138121297Y-192741663D01*
X138202933Y-192916732D01*
X138221165Y-192955830D01*
X138221167Y-192955834D01*
X138356701Y-193149395D01*
X138356706Y-193149402D01*
X138523797Y-193316493D01*
X138523803Y-193316498D01*
X138709358Y-193446425D01*
X138752983Y-193501002D01*
X138760177Y-193570500D01*
X138728654Y-193632855D01*
X138709358Y-193649575D01*
X138523797Y-193779505D01*
X138356705Y-193946597D01*
X138221165Y-194140169D01*
X138221164Y-194140171D01*
X138121298Y-194354335D01*
X138121294Y-194354344D01*
X138060138Y-194582586D01*
X138060136Y-194582596D01*
X138039541Y-194817999D01*
X138039541Y-194818000D01*
X138060136Y-195053403D01*
X138060138Y-195053413D01*
X138121294Y-195281655D01*
X138121296Y-195281659D01*
X138121297Y-195281663D01*
X138202933Y-195456732D01*
X138221165Y-195495830D01*
X138221167Y-195495834D01*
X138356701Y-195689395D01*
X138356706Y-195689402D01*
X138523797Y-195856493D01*
X138523803Y-195856498D01*
X138709794Y-195986730D01*
X138753419Y-196041307D01*
X138760613Y-196110805D01*
X138729090Y-196173160D01*
X138709795Y-196189880D01*
X138524122Y-196319890D01*
X138524120Y-196319891D01*
X138357091Y-196486920D01*
X138357086Y-196486926D01*
X138221600Y-196680420D01*
X138221599Y-196680422D01*
X138121770Y-196894507D01*
X138121767Y-196894513D01*
X138064564Y-197107999D01*
X138064564Y-197108000D01*
X138962188Y-197108000D01*
X138929275Y-197165007D01*
X138895200Y-197292174D01*
X138895200Y-197423826D01*
X138929275Y-197550993D01*
X138962188Y-197608000D01*
X138064564Y-197608000D01*
X138121767Y-197821486D01*
X138121770Y-197821492D01*
X138221599Y-198035578D01*
X138357094Y-198229082D01*
X138524117Y-198396105D01*
X138717621Y-198531600D01*
X138931707Y-198631429D01*
X138931716Y-198631433D01*
X139145200Y-198688634D01*
X139145200Y-197791012D01*
X139202207Y-197823925D01*
X139329374Y-197858000D01*
X139461026Y-197858000D01*
X139588193Y-197823925D01*
X139645200Y-197791012D01*
X139645200Y-198688633D01*
X139858683Y-198631433D01*
X139858692Y-198631429D01*
X140072778Y-198531600D01*
X140266282Y-198396105D01*
X140433305Y-198229082D01*
X140568800Y-198035578D01*
X140668629Y-197821492D01*
X140668632Y-197821486D01*
X140725836Y-197608000D01*
X139828212Y-197608000D01*
X139861125Y-197550993D01*
X139895200Y-197423826D01*
X139895200Y-197292174D01*
X139861125Y-197165007D01*
X139828212Y-197108000D01*
X140725836Y-197108000D01*
X140725835Y-197107999D01*
X140668632Y-196894513D01*
X140668629Y-196894507D01*
X140568800Y-196680422D01*
X140568799Y-196680420D01*
X140433313Y-196486926D01*
X140433308Y-196486920D01*
X140266278Y-196319890D01*
X140080605Y-196189879D01*
X140036980Y-196135302D01*
X140029788Y-196065804D01*
X140061310Y-196003449D01*
X140080606Y-195986730D01*
X140208942Y-195896868D01*
X140266601Y-195856495D01*
X140433695Y-195689401D01*
X140569235Y-195495830D01*
X140669103Y-195281663D01*
X140730263Y-195053408D01*
X140750859Y-194818000D01*
X140730263Y-194582592D01*
X140669103Y-194354337D01*
X140569235Y-194140171D01*
X140546446Y-194107624D01*
X140433694Y-193946597D01*
X140266602Y-193779506D01*
X140266596Y-193779501D01*
X140081042Y-193649575D01*
X140037417Y-193594998D01*
X140030223Y-193525500D01*
X140061746Y-193463145D01*
X140081042Y-193446425D01*
X140208942Y-193356868D01*
X140266601Y-193316495D01*
X140433695Y-193149401D01*
X140569235Y-192955830D01*
X140669103Y-192741663D01*
X140730263Y-192513408D01*
X140750859Y-192278000D01*
X140730263Y-192042592D01*
X140669103Y-191814337D01*
X140569235Y-191600171D01*
X140546445Y-191567624D01*
X140433696Y-191406600D01*
X140433695Y-191406599D01*
X140311767Y-191284671D01*
X140278284Y-191223351D01*
X140283268Y-191153659D01*
X140325139Y-191097725D01*
X140356115Y-191080810D01*
X140487531Y-191031796D01*
X140602746Y-190945546D01*
X140688996Y-190830331D01*
X140739291Y-190695483D01*
X140745700Y-190635873D01*
X140745699Y-188840128D01*
X140739291Y-188780517D01*
X140688996Y-188645669D01*
X140688995Y-188645668D01*
X140688993Y-188645664D01*
X140602747Y-188530455D01*
X140602744Y-188530452D01*
X140487535Y-188444206D01*
X140487528Y-188444202D01*
X140352682Y-188393908D01*
X140352683Y-188393908D01*
X140293083Y-188387501D01*
X140293081Y-188387500D01*
X140293073Y-188387500D01*
X140293064Y-188387500D01*
X138497329Y-188387500D01*
X138497323Y-188387501D01*
X138437716Y-188393908D01*
X138302871Y-188444202D01*
X138302864Y-188444206D01*
X138187655Y-188530452D01*
X138187652Y-188530455D01*
X138101406Y-188645664D01*
X138101402Y-188645671D01*
X138051108Y-188780517D01*
X138049073Y-188799450D01*
X138044701Y-188840123D01*
X138044700Y-188840135D01*
X138044700Y-190635870D01*
X138044701Y-190635876D01*
X138051108Y-190695483D01*
X138101402Y-190830328D01*
X138101406Y-190830335D01*
X138187652Y-190945544D01*
X138187655Y-190945547D01*
X138302864Y-191031793D01*
X138302871Y-191031797D01*
X138434281Y-191080810D01*
X138490215Y-191122681D01*
X138514632Y-191188145D01*
X138499780Y-191256418D01*
X138478630Y-191284673D01*
X138356703Y-191406600D01*
X138221165Y-191600169D01*
X138221164Y-191600171D01*
X138121298Y-191814335D01*
X138121294Y-191814344D01*
X138060138Y-192042586D01*
X138060136Y-192042596D01*
X138039541Y-192277999D01*
X129812771Y-192277999D01*
X129812850Y-189027624D01*
X129812876Y-187982397D01*
X129832562Y-187915358D01*
X129885367Y-187869604D01*
X129936876Y-187858400D01*
X137210800Y-187858400D01*
X137210800Y-161569026D01*
X137230485Y-161501987D01*
X137283289Y-161456232D01*
X137352447Y-161446288D01*
X137416003Y-161475313D01*
G37*
%TD.AperFunction*%
%TA.AperFunction,Conductor*%
G36*
X165882942Y-163942185D02*
G01*
X165903584Y-163958819D01*
X165964781Y-164020016D01*
X165998266Y-164081339D01*
X166001100Y-164107697D01*
X166001100Y-168896699D01*
X165981415Y-168963738D01*
X165928611Y-169009493D01*
X165877100Y-169020699D01*
X165724547Y-169020699D01*
X165724531Y-169020700D01*
X156287612Y-169020700D01*
X156220573Y-169001015D01*
X156210297Y-168993645D01*
X156207463Y-168991385D01*
X156207462Y-168991384D01*
X156123990Y-168938935D01*
X156054723Y-168895411D01*
X155884454Y-168835831D01*
X155884449Y-168835830D01*
X155705204Y-168815635D01*
X155705196Y-168815635D01*
X155525950Y-168835830D01*
X155525945Y-168835831D01*
X155355676Y-168895411D01*
X155202937Y-168991384D01*
X155075384Y-169118937D01*
X154979411Y-169271676D01*
X154919831Y-169441945D01*
X154919830Y-169441950D01*
X154899635Y-169621196D01*
X154899635Y-169621203D01*
X154919830Y-169800449D01*
X154919831Y-169800454D01*
X154979411Y-169970723D01*
X155075384Y-170123462D01*
X155075385Y-170123463D01*
X155120441Y-170168520D01*
X155153925Y-170229843D01*
X155148940Y-170299535D01*
X155120441Y-170343880D01*
X155075384Y-170388937D01*
X154979411Y-170541676D01*
X154919831Y-170711945D01*
X154919830Y-170711950D01*
X154899635Y-170891196D01*
X154899635Y-170891203D01*
X154919830Y-171070449D01*
X154919831Y-171070454D01*
X154979411Y-171240723D01*
X155075384Y-171393462D01*
X155075385Y-171393463D01*
X155120441Y-171438520D01*
X155153925Y-171499843D01*
X155148940Y-171569535D01*
X155120441Y-171613880D01*
X155075384Y-171658937D01*
X154979411Y-171811676D01*
X154919831Y-171981945D01*
X154919830Y-171981950D01*
X154899635Y-172161196D01*
X154899635Y-172161203D01*
X154919830Y-172340449D01*
X154919831Y-172340454D01*
X154979411Y-172510723D01*
X155075384Y-172663462D01*
X155075385Y-172663463D01*
X155120441Y-172708520D01*
X155153925Y-172769843D01*
X155148940Y-172839535D01*
X155120441Y-172883880D01*
X155075384Y-172928937D01*
X154979411Y-173081676D01*
X154919831Y-173251945D01*
X154919830Y-173251950D01*
X154899635Y-173431196D01*
X154899635Y-173431203D01*
X154919830Y-173610449D01*
X154919831Y-173610454D01*
X154979411Y-173780723D01*
X155075384Y-173933462D01*
X155075385Y-173933463D01*
X155120441Y-173978520D01*
X155153925Y-174039843D01*
X155148940Y-174109535D01*
X155120441Y-174153880D01*
X155075384Y-174198937D01*
X154979411Y-174351676D01*
X154919831Y-174521945D01*
X154919830Y-174521950D01*
X154899635Y-174701196D01*
X154899635Y-174701203D01*
X154919830Y-174880449D01*
X154919831Y-174880454D01*
X154979411Y-175050723D01*
X155075384Y-175203462D01*
X155075385Y-175203463D01*
X155120441Y-175248520D01*
X155153925Y-175309843D01*
X155148940Y-175379535D01*
X155120441Y-175423880D01*
X155075384Y-175468937D01*
X154979411Y-175621676D01*
X154919831Y-175791945D01*
X154919830Y-175791950D01*
X154899635Y-175971196D01*
X154899635Y-175971203D01*
X154919830Y-176150449D01*
X154919831Y-176150454D01*
X154979411Y-176320723D01*
X155075384Y-176473462D01*
X155075385Y-176473463D01*
X155120441Y-176518520D01*
X155153925Y-176579843D01*
X155148940Y-176649535D01*
X155120441Y-176693880D01*
X155075384Y-176738937D01*
X154979411Y-176891676D01*
X154919831Y-177061945D01*
X154919830Y-177061950D01*
X154899635Y-177241196D01*
X154899635Y-177241203D01*
X154919830Y-177420449D01*
X154919831Y-177420454D01*
X154979411Y-177590723D01*
X155075384Y-177743462D01*
X155202938Y-177871016D01*
X155293280Y-177927782D01*
X155353626Y-177965700D01*
X155355678Y-177966989D01*
X155525945Y-178026568D01*
X155525950Y-178026569D01*
X155705196Y-178046765D01*
X155705200Y-178046765D01*
X155705204Y-178046765D01*
X155884449Y-178026569D01*
X155884452Y-178026568D01*
X155884455Y-178026568D01*
X156054722Y-177966989D01*
X156207462Y-177871016D01*
X156207467Y-177871010D01*
X156210297Y-177868755D01*
X156212475Y-177867865D01*
X156213358Y-177867311D01*
X156213455Y-177867465D01*
X156274983Y-177842345D01*
X156287612Y-177841700D01*
X163588100Y-177841700D01*
X163655139Y-177861385D01*
X163700894Y-177914189D01*
X163712100Y-177965700D01*
X163712100Y-202450202D01*
X163712099Y-202450220D01*
X163712099Y-202615926D01*
X163712098Y-202615926D01*
X163753024Y-202768661D01*
X163753025Y-202768662D01*
X163774689Y-202806184D01*
X163774690Y-202806186D01*
X163832075Y-202905581D01*
X163832081Y-202905589D01*
X163950949Y-203024457D01*
X163950955Y-203024462D01*
X165958712Y-205032219D01*
X165992197Y-205093542D01*
X165987213Y-205163234D01*
X165945341Y-205219167D01*
X165879877Y-205243584D01*
X165871031Y-205243900D01*
X153909700Y-205243900D01*
X153842661Y-205224215D01*
X153796906Y-205171411D01*
X153785700Y-205119900D01*
X153785700Y-183563912D01*
X153805385Y-183496873D01*
X153858189Y-183451118D01*
X153927347Y-183441174D01*
X153975670Y-183458917D01*
X154107878Y-183541989D01*
X154251187Y-183592135D01*
X154278145Y-183601568D01*
X154278150Y-183601569D01*
X154457396Y-183621765D01*
X154457400Y-183621765D01*
X154457404Y-183621765D01*
X154636649Y-183601569D01*
X154636652Y-183601568D01*
X154636655Y-183601568D01*
X154806922Y-183541989D01*
X154959662Y-183446016D01*
X154959667Y-183446010D01*
X154962497Y-183443755D01*
X154964675Y-183442865D01*
X154965558Y-183442311D01*
X154965655Y-183442465D01*
X155027183Y-183417345D01*
X155039812Y-183416700D01*
X159828900Y-183416700D01*
X159895939Y-183436385D01*
X159941694Y-183489189D01*
X159952900Y-183540700D01*
X159952900Y-187479187D01*
X159933215Y-187546226D01*
X159925850Y-187556496D01*
X159923586Y-187559334D01*
X159827611Y-187712076D01*
X159768031Y-187882345D01*
X159768030Y-187882350D01*
X159747835Y-188061596D01*
X159747835Y-188061603D01*
X159768030Y-188240849D01*
X159768031Y-188240854D01*
X159827611Y-188411123D01*
X159922170Y-188561611D01*
X159923584Y-188563862D01*
X160051138Y-188691416D01*
X160080996Y-188710177D01*
X160192939Y-188780516D01*
X160203878Y-188787389D01*
X160374145Y-188846968D01*
X160374150Y-188846969D01*
X160553396Y-188867165D01*
X160553400Y-188867165D01*
X160553404Y-188867165D01*
X160732649Y-188846969D01*
X160732652Y-188846968D01*
X160732655Y-188846968D01*
X160902922Y-188787389D01*
X161055662Y-188691416D01*
X161183216Y-188563862D01*
X161279189Y-188411122D01*
X161338768Y-188240855D01*
X161358965Y-188061600D01*
X161358424Y-188056800D01*
X161338769Y-187882350D01*
X161338768Y-187882345D01*
X161279188Y-187712076D01*
X161202452Y-187589952D01*
X161183216Y-187559338D01*
X161183214Y-187559336D01*
X161183213Y-187559334D01*
X161180950Y-187556496D01*
X161180059Y-187554315D01*
X161179511Y-187553442D01*
X161179664Y-187553345D01*
X161154544Y-187491809D01*
X161153900Y-187479187D01*
X161153900Y-183172259D01*
X161153901Y-183172246D01*
X161153901Y-183004145D01*
X161153901Y-183004143D01*
X161112977Y-182851415D01*
X161084039Y-182801295D01*
X161033920Y-182714484D01*
X160922116Y-182602680D01*
X160922115Y-182602679D01*
X160917785Y-182598349D01*
X160917774Y-182598339D01*
X160773990Y-182454555D01*
X160773988Y-182454552D01*
X160655117Y-182335681D01*
X160655109Y-182335675D01*
X160553336Y-182276917D01*
X160553334Y-182276916D01*
X160518190Y-182256625D01*
X160518189Y-182256624D01*
X160502048Y-182252299D01*
X160365457Y-182215699D01*
X160207343Y-182215699D01*
X160199747Y-182215699D01*
X160199731Y-182215700D01*
X155039812Y-182215700D01*
X154972773Y-182196015D01*
X154962497Y-182188645D01*
X154959663Y-182186385D01*
X154959662Y-182186384D01*
X154860307Y-182123955D01*
X154806923Y-182090411D01*
X154636654Y-182030831D01*
X154636649Y-182030830D01*
X154457404Y-182010635D01*
X154457396Y-182010635D01*
X154278150Y-182030830D01*
X154278145Y-182030831D01*
X154107876Y-182090411D01*
X153955137Y-182186384D01*
X153908981Y-182232541D01*
X153847658Y-182266026D01*
X153777966Y-182261042D01*
X153733619Y-182232541D01*
X153687462Y-182186384D01*
X153534723Y-182090411D01*
X153364454Y-182030831D01*
X153364449Y-182030830D01*
X153185204Y-182010635D01*
X153185196Y-182010635D01*
X153005950Y-182030830D01*
X153005945Y-182030831D01*
X152835676Y-182090411D01*
X152682937Y-182186384D01*
X152555384Y-182313937D01*
X152459411Y-182466676D01*
X152399831Y-182636945D01*
X152399830Y-182636950D01*
X152379635Y-182816196D01*
X152379635Y-182816203D01*
X152399830Y-182995449D01*
X152399831Y-182995454D01*
X152459411Y-183165723D01*
X152555385Y-183318463D01*
X152557645Y-183321297D01*
X152558534Y-183323475D01*
X152559089Y-183324358D01*
X152558934Y-183324455D01*
X152584055Y-183385983D01*
X152584700Y-183398612D01*
X152584700Y-186734160D01*
X152565015Y-186801199D01*
X152512211Y-186846954D01*
X152443053Y-186856898D01*
X152433898Y-186855020D01*
X152431459Y-186854699D01*
X152431457Y-186854699D01*
X152273343Y-186854699D01*
X152265747Y-186854699D01*
X152265731Y-186854700D01*
X150821940Y-186854700D01*
X150754901Y-186835015D01*
X150709146Y-186782211D01*
X150699202Y-186713053D01*
X150728227Y-186649497D01*
X150734259Y-186643019D01*
X150743816Y-186633462D01*
X150839789Y-186480722D01*
X150899368Y-186310455D01*
X150907160Y-186241300D01*
X150919565Y-186131203D01*
X150919565Y-186131196D01*
X150899369Y-185951950D01*
X150899368Y-185951945D01*
X150839788Y-185781676D01*
X150786375Y-185696670D01*
X150743816Y-185628938D01*
X150743814Y-185628936D01*
X150743813Y-185628934D01*
X150741550Y-185626096D01*
X150740659Y-185623915D01*
X150740111Y-185623042D01*
X150740264Y-185622945D01*
X150715144Y-185561409D01*
X150714500Y-185548787D01*
X150714500Y-181343459D01*
X150714501Y-181343446D01*
X150714501Y-181175345D01*
X150714501Y-181175343D01*
X150673577Y-181022615D01*
X150641075Y-180966320D01*
X150641075Y-180966319D01*
X150594524Y-180885690D01*
X150594521Y-180885686D01*
X150594520Y-180885684D01*
X150482716Y-180773880D01*
X150482715Y-180773879D01*
X150478385Y-180769549D01*
X150478374Y-180769539D01*
X150223790Y-180514955D01*
X150223788Y-180514952D01*
X150104917Y-180396081D01*
X150104916Y-180396080D01*
X150011632Y-180342223D01*
X149967985Y-180317023D01*
X149815257Y-180276099D01*
X149657143Y-180276099D01*
X149649547Y-180276099D01*
X149649531Y-180276100D01*
X141755897Y-180276100D01*
X141688858Y-180256415D01*
X141668216Y-180239781D01*
X140917819Y-179489384D01*
X140884334Y-179428061D01*
X140881500Y-179401703D01*
X140881500Y-169165921D01*
X140901185Y-169098882D01*
X140953989Y-169053127D01*
X140991612Y-169042701D01*
X141060255Y-169034968D01*
X141230522Y-168975389D01*
X141383262Y-168879416D01*
X141510816Y-168751862D01*
X141606789Y-168599122D01*
X141666368Y-168428855D01*
X141670726Y-168390177D01*
X141686565Y-168249603D01*
X141686565Y-168249596D01*
X141666368Y-168070347D01*
X141666368Y-168070345D01*
X141638458Y-167990582D01*
X141631500Y-167949628D01*
X141631500Y-166245765D01*
X141651185Y-166178726D01*
X141703989Y-166132971D01*
X141748367Y-166123316D01*
X141748281Y-166122545D01*
X141934449Y-166101569D01*
X141934452Y-166101568D01*
X141934455Y-166101568D01*
X142104722Y-166041989D01*
X142257462Y-165946016D01*
X142302519Y-165900959D01*
X142363842Y-165867474D01*
X142433534Y-165872458D01*
X142477881Y-165900959D01*
X142522938Y-165946016D01*
X142675678Y-166041989D01*
X142845945Y-166101568D01*
X142845950Y-166101569D01*
X143025196Y-166121765D01*
X143025200Y-166121765D01*
X143025204Y-166121765D01*
X143204449Y-166101569D01*
X143204452Y-166101568D01*
X143204455Y-166101568D01*
X143374722Y-166041989D01*
X143527462Y-165946016D01*
X143572519Y-165900959D01*
X143633842Y-165867474D01*
X143703534Y-165872458D01*
X143747881Y-165900959D01*
X143792938Y-165946016D01*
X143945678Y-166041989D01*
X144115945Y-166101568D01*
X144115950Y-166101569D01*
X144295196Y-166121765D01*
X144295200Y-166121765D01*
X144295204Y-166121765D01*
X144474449Y-166101569D01*
X144474452Y-166101568D01*
X144474455Y-166101568D01*
X144644722Y-166041989D01*
X144797462Y-165946016D01*
X144842519Y-165900959D01*
X144903842Y-165867474D01*
X144973534Y-165872458D01*
X145017881Y-165900959D01*
X145062938Y-165946016D01*
X145215678Y-166041989D01*
X145385945Y-166101568D01*
X145385950Y-166101569D01*
X145565196Y-166121765D01*
X145565200Y-166121765D01*
X145565204Y-166121765D01*
X145744449Y-166101569D01*
X145744452Y-166101568D01*
X145744455Y-166101568D01*
X145914722Y-166041989D01*
X146067462Y-165946016D01*
X146112519Y-165900959D01*
X146173842Y-165867474D01*
X146243534Y-165872458D01*
X146287881Y-165900959D01*
X146332938Y-165946016D01*
X146485678Y-166041989D01*
X146655945Y-166101568D01*
X146655950Y-166101569D01*
X146835196Y-166121765D01*
X146835200Y-166121765D01*
X146835204Y-166121765D01*
X147014449Y-166101569D01*
X147014452Y-166101568D01*
X147014455Y-166101568D01*
X147184722Y-166041989D01*
X147337462Y-165946016D01*
X147382519Y-165900959D01*
X147443842Y-165867474D01*
X147513534Y-165872458D01*
X147557881Y-165900959D01*
X147602938Y-165946016D01*
X147755678Y-166041989D01*
X147925945Y-166101568D01*
X147925950Y-166101569D01*
X148105196Y-166121765D01*
X148105200Y-166121765D01*
X148105204Y-166121765D01*
X148284449Y-166101569D01*
X148284452Y-166101568D01*
X148284455Y-166101568D01*
X148454722Y-166041989D01*
X148607462Y-165946016D01*
X148652519Y-165900959D01*
X148713842Y-165867474D01*
X148783534Y-165872458D01*
X148827881Y-165900959D01*
X148872938Y-165946016D01*
X149025678Y-166041989D01*
X149195945Y-166101568D01*
X149195950Y-166101569D01*
X149375196Y-166121765D01*
X149375200Y-166121765D01*
X149375204Y-166121765D01*
X149554449Y-166101569D01*
X149554452Y-166101568D01*
X149554455Y-166101568D01*
X149724722Y-166041989D01*
X149877462Y-165946016D01*
X149922519Y-165900959D01*
X149983842Y-165867474D01*
X150053534Y-165872458D01*
X150097881Y-165900959D01*
X150142938Y-165946016D01*
X150295678Y-166041989D01*
X150465945Y-166101568D01*
X150465950Y-166101569D01*
X150645196Y-166121765D01*
X150645200Y-166121765D01*
X150645204Y-166121765D01*
X150824449Y-166101569D01*
X150824452Y-166101568D01*
X150824455Y-166101568D01*
X150994722Y-166041989D01*
X151147462Y-165946016D01*
X151192519Y-165900959D01*
X151253842Y-165867474D01*
X151323534Y-165872458D01*
X151367881Y-165900959D01*
X151412938Y-165946016D01*
X151565678Y-166041989D01*
X151735945Y-166101568D01*
X151735950Y-166101569D01*
X151915196Y-166121765D01*
X151915200Y-166121765D01*
X151915204Y-166121765D01*
X152094449Y-166101569D01*
X152094452Y-166101568D01*
X152094455Y-166101568D01*
X152264722Y-166041989D01*
X152417462Y-165946016D01*
X152545016Y-165818462D01*
X152640989Y-165665722D01*
X152700568Y-165495455D01*
X152720765Y-165316200D01*
X152700568Y-165136945D01*
X152640989Y-164966678D01*
X152545016Y-164813938D01*
X152545014Y-164813936D01*
X152545013Y-164813934D01*
X152542750Y-164811096D01*
X152541859Y-164808915D01*
X152541311Y-164808042D01*
X152541464Y-164807945D01*
X152516344Y-164746409D01*
X152515700Y-164733787D01*
X152515700Y-164046500D01*
X152535385Y-163979461D01*
X152588189Y-163933706D01*
X152639700Y-163922500D01*
X165815903Y-163922500D01*
X165882942Y-163942185D01*
G37*
%TD.AperFunction*%
%TA.AperFunction,Conductor*%
G36*
X307153400Y-198266960D02*
G01*
X307179364Y-198363861D01*
X307229524Y-198450740D01*
X307300460Y-198521676D01*
X307387339Y-198571836D01*
X307484240Y-198597800D01*
X307506952Y-198597800D01*
X306836210Y-199268540D01*
X306900990Y-199313899D01*
X306900992Y-199313900D01*
X307101115Y-199407219D01*
X307101129Y-199407224D01*
X307314413Y-199464373D01*
X307314423Y-199464375D01*
X307534399Y-199483621D01*
X307534401Y-199483621D01*
X307754376Y-199464375D01*
X307754382Y-199464374D01*
X307846806Y-199439609D01*
X307916656Y-199441272D01*
X307974519Y-199480434D01*
X308002023Y-199544662D01*
X308002900Y-199559384D01*
X308002900Y-204405103D01*
X307983215Y-204472142D01*
X307966581Y-204492784D01*
X307905784Y-204553581D01*
X307844461Y-204587066D01*
X307818103Y-204589900D01*
X302096577Y-204589900D01*
X302029538Y-204570215D01*
X301983783Y-204517411D01*
X301973839Y-204448253D01*
X302002864Y-204384697D01*
X302008896Y-204378219D01*
X302470369Y-203916746D01*
X303939306Y-202447807D01*
X303939311Y-202447804D01*
X303949514Y-202437600D01*
X303949516Y-202437600D01*
X304061320Y-202325796D01*
X304066101Y-202317514D01*
X304137465Y-202193909D01*
X304137468Y-202193902D01*
X304137469Y-202193901D01*
X304140377Y-202188865D01*
X304181300Y-202036137D01*
X304181300Y-201878023D01*
X304181300Y-199425301D01*
X304200985Y-199358262D01*
X304253789Y-199312507D01*
X304322947Y-199302563D01*
X304357705Y-199312919D01*
X304360735Y-199314331D01*
X304360738Y-199314334D01*
X304560950Y-199407694D01*
X304774332Y-199464870D01*
X304931523Y-199478622D01*
X304994398Y-199484123D01*
X304994400Y-199484123D01*
X304994402Y-199484123D01*
X305049417Y-199479309D01*
X305214468Y-199464870D01*
X305427850Y-199407694D01*
X305628062Y-199314334D01*
X305809020Y-199187626D01*
X305965226Y-199031420D01*
X306091934Y-198850462D01*
X306152294Y-198721018D01*
X306198466Y-198668579D01*
X306265659Y-198649427D01*
X306332541Y-198669643D01*
X306377058Y-198721019D01*
X306437298Y-198850205D01*
X306437301Y-198850211D01*
X306482658Y-198914987D01*
X306482658Y-198914988D01*
X307153400Y-198244246D01*
X307153400Y-198266960D01*
G37*
%TD.AperFunction*%
%TA.AperFunction,Conductor*%
G36*
X147021339Y-185097185D02*
G01*
X147067094Y-185149989D01*
X147078300Y-185201500D01*
X147078300Y-187221378D01*
X147078299Y-187221396D01*
X147078299Y-187387102D01*
X147078298Y-187387102D01*
X147078299Y-187387105D01*
X147119223Y-187539833D01*
X147127584Y-187554315D01*
X147148158Y-187589948D01*
X147148159Y-187589952D01*
X147148160Y-187589952D01*
X147198279Y-187676762D01*
X147198281Y-187676765D01*
X147317149Y-187795633D01*
X147317155Y-187795638D01*
X147668091Y-188146574D01*
X147668101Y-188146585D01*
X147672431Y-188150915D01*
X147672432Y-188150916D01*
X147784236Y-188262720D01*
X147841772Y-188295938D01*
X147921167Y-188341777D01*
X148073894Y-188382700D01*
X148073895Y-188382700D01*
X151806700Y-188382700D01*
X151873739Y-188402385D01*
X151919494Y-188455189D01*
X151930700Y-188506700D01*
X151930700Y-202824181D01*
X151911015Y-202891220D01*
X151858211Y-202936975D01*
X151789053Y-202946919D01*
X151759248Y-202938742D01*
X151627917Y-202884343D01*
X151627907Y-202884340D01*
X151482920Y-202855500D01*
X151482918Y-202855500D01*
X149398872Y-202855500D01*
X149357917Y-202848542D01*
X149278154Y-202820631D01*
X149278149Y-202820630D01*
X149098904Y-202800435D01*
X149098896Y-202800435D01*
X148919650Y-202820630D01*
X148919645Y-202820631D01*
X148839883Y-202848542D01*
X148798928Y-202855500D01*
X146996029Y-202855500D01*
X146928990Y-202835815D01*
X146908348Y-202819181D01*
X146024019Y-201934851D01*
X145990534Y-201873528D01*
X145987700Y-201847170D01*
X145987700Y-189308479D01*
X145976399Y-189251668D01*
X145972632Y-189232730D01*
X145958859Y-189163488D01*
X145925718Y-189083480D01*
X145902582Y-189027624D01*
X145902285Y-189026906D01*
X145902283Y-189026903D01*
X145820154Y-188903988D01*
X145820153Y-188903987D01*
X145820151Y-188903984D01*
X145715616Y-188799449D01*
X145584673Y-188668506D01*
X145439819Y-188523651D01*
X145406334Y-188462328D01*
X145403500Y-188435970D01*
X145403500Y-185600079D01*
X145374659Y-185455092D01*
X145374658Y-185455091D01*
X145374658Y-185455087D01*
X145318084Y-185318505D01*
X145285935Y-185270390D01*
X145265058Y-185203712D01*
X145283543Y-185136332D01*
X145335523Y-185089643D01*
X145389038Y-185077500D01*
X146954300Y-185077500D01*
X147021339Y-185097185D01*
G37*
%TD.AperFunction*%
%TA.AperFunction,Conductor*%
G36*
X305741903Y-120184487D02*
G01*
X305787823Y-120237147D01*
X305797984Y-120306274D01*
X305769158Y-120369920D01*
X305741163Y-120394005D01*
X305513012Y-120537362D01*
X305512998Y-120537372D01*
X305240743Y-120754487D01*
X304994487Y-121000743D01*
X304777372Y-121272998D01*
X304777371Y-121273000D01*
X304592092Y-121567869D01*
X304440999Y-121881617D01*
X304325985Y-122210307D01*
X304325982Y-122210315D01*
X304248491Y-122549829D01*
X304248489Y-122549841D01*
X304209500Y-122895875D01*
X304209500Y-123244124D01*
X304248489Y-123590158D01*
X304248491Y-123590170D01*
X304325982Y-123929684D01*
X304325985Y-123929692D01*
X304440999Y-124258382D01*
X304592092Y-124572130D01*
X304777371Y-124866999D01*
X304777372Y-124867001D01*
X304994487Y-125139256D01*
X305240743Y-125385512D01*
X305512998Y-125602627D01*
X305513001Y-125602628D01*
X305513003Y-125602630D01*
X305807867Y-125787906D01*
X306121621Y-125939002D01*
X306368488Y-126025384D01*
X306450307Y-126054014D01*
X306450315Y-126054017D01*
X306450318Y-126054017D01*
X306450319Y-126054018D01*
X306789829Y-126131509D01*
X307135876Y-126170499D01*
X307135877Y-126170500D01*
X307135880Y-126170500D01*
X307484123Y-126170500D01*
X307484123Y-126170499D01*
X307830171Y-126131509D01*
X308169681Y-126054018D01*
X308498379Y-125939002D01*
X308812133Y-125787906D01*
X309106997Y-125602630D01*
X309107001Y-125602627D01*
X309379256Y-125385512D01*
X309379258Y-125385509D01*
X309379263Y-125385506D01*
X309601726Y-125163042D01*
X309663047Y-125129559D01*
X309732738Y-125134543D01*
X309788672Y-125176414D01*
X309813089Y-125241879D01*
X309813405Y-125250728D01*
X309812634Y-156854231D01*
X309792948Y-156921270D01*
X309740143Y-156967024D01*
X309672446Y-156977167D01*
X309665859Y-156976299D01*
X309665857Y-156976299D01*
X309507743Y-156976299D01*
X309500147Y-156976299D01*
X309500131Y-156976300D01*
X308719704Y-156976300D01*
X308652665Y-156956615D01*
X308618129Y-156923423D01*
X308505227Y-156762181D01*
X308505223Y-156762177D01*
X308349020Y-156605974D01*
X308349016Y-156605971D01*
X308349015Y-156605970D01*
X308168066Y-156479268D01*
X308168058Y-156479264D01*
X308039211Y-156419182D01*
X307986771Y-156373010D01*
X307967619Y-156305817D01*
X307987835Y-156238935D01*
X308039211Y-156194418D01*
X308045202Y-156191624D01*
X308168062Y-156134334D01*
X308349020Y-156007626D01*
X308505226Y-155851420D01*
X308631934Y-155670462D01*
X308725294Y-155470250D01*
X308782470Y-155256868D01*
X308801723Y-155036800D01*
X308782470Y-154816732D01*
X308725294Y-154603350D01*
X308631934Y-154403139D01*
X308505226Y-154222180D01*
X308349020Y-154065974D01*
X308349016Y-154065971D01*
X308349015Y-154065970D01*
X308168066Y-153939268D01*
X308168058Y-153939264D01*
X308039211Y-153879182D01*
X307986771Y-153833010D01*
X307967619Y-153765817D01*
X307987835Y-153698935D01*
X308039211Y-153654418D01*
X308045202Y-153651624D01*
X308168062Y-153594334D01*
X308349020Y-153467626D01*
X308505226Y-153311420D01*
X308631934Y-153130462D01*
X308725294Y-152930250D01*
X308782470Y-152716868D01*
X308801723Y-152496800D01*
X308782470Y-152276732D01*
X308725294Y-152063350D01*
X308631934Y-151863139D01*
X308505226Y-151682180D01*
X308349020Y-151525974D01*
X308349016Y-151525971D01*
X308349015Y-151525970D01*
X308168066Y-151399268D01*
X308168058Y-151399264D01*
X308039211Y-151339182D01*
X307986771Y-151293010D01*
X307967619Y-151225817D01*
X307987835Y-151158935D01*
X308039211Y-151114418D01*
X308045202Y-151111624D01*
X308168062Y-151054334D01*
X308349020Y-150927626D01*
X308505226Y-150771420D01*
X308631934Y-150590462D01*
X308725294Y-150390250D01*
X308782470Y-150176868D01*
X308801723Y-149956800D01*
X308782470Y-149736732D01*
X308725294Y-149523350D01*
X308631934Y-149323139D01*
X308505226Y-149142180D01*
X308349020Y-148985974D01*
X308349016Y-148985971D01*
X308349015Y-148985970D01*
X308168066Y-148859268D01*
X308168062Y-148859266D01*
X308168060Y-148859265D01*
X307967850Y-148765906D01*
X307967847Y-148765905D01*
X307967845Y-148765904D01*
X307754470Y-148708730D01*
X307754462Y-148708729D01*
X307534402Y-148689477D01*
X307534398Y-148689477D01*
X307314337Y-148708729D01*
X307314329Y-148708730D01*
X307100954Y-148765904D01*
X307100948Y-148765907D01*
X306900740Y-148859265D01*
X306900738Y-148859266D01*
X306719777Y-148985975D01*
X306563575Y-149142177D01*
X306436866Y-149323138D01*
X306436865Y-149323140D01*
X306376782Y-149451989D01*
X306330609Y-149504428D01*
X306263416Y-149523580D01*
X306196535Y-149503364D01*
X306152018Y-149451989D01*
X306091934Y-149323140D01*
X306091933Y-149323138D01*
X305965227Y-149142181D01*
X305965223Y-149142177D01*
X305809020Y-148985974D01*
X305809016Y-148985971D01*
X305809015Y-148985970D01*
X305628066Y-148859268D01*
X305628062Y-148859266D01*
X305628060Y-148859265D01*
X305427850Y-148765906D01*
X305427847Y-148765905D01*
X305427845Y-148765904D01*
X305214470Y-148708730D01*
X305214462Y-148708729D01*
X304994402Y-148689477D01*
X304994398Y-148689477D01*
X304774337Y-148708729D01*
X304774329Y-148708730D01*
X304560954Y-148765904D01*
X304560948Y-148765907D01*
X304360740Y-148859265D01*
X304360738Y-148859266D01*
X304179777Y-148985975D01*
X304023575Y-149142177D01*
X303896866Y-149323138D01*
X303896865Y-149323140D01*
X303803507Y-149523348D01*
X303803504Y-149523354D01*
X303746330Y-149736729D01*
X303746329Y-149736737D01*
X303727077Y-149956797D01*
X303727077Y-149956802D01*
X303746329Y-150176862D01*
X303746330Y-150176870D01*
X303803504Y-150390245D01*
X303803505Y-150390247D01*
X303803506Y-150390250D01*
X303836782Y-150461611D01*
X303896866Y-150590462D01*
X303896868Y-150590466D01*
X304023570Y-150771415D01*
X304023575Y-150771421D01*
X304179778Y-150927624D01*
X304179784Y-150927629D01*
X304360733Y-151054331D01*
X304360735Y-151054332D01*
X304360738Y-151054334D01*
X304480148Y-151110015D01*
X304489589Y-151114418D01*
X304542028Y-151160590D01*
X304561180Y-151227784D01*
X304540964Y-151294665D01*
X304489589Y-151339182D01*
X304360740Y-151399265D01*
X304360738Y-151399266D01*
X304179777Y-151525975D01*
X304023575Y-151682177D01*
X303896866Y-151863138D01*
X303896865Y-151863140D01*
X303803507Y-152063348D01*
X303803504Y-152063354D01*
X303746330Y-152276729D01*
X303746329Y-152276737D01*
X303727077Y-152496797D01*
X303727077Y-152496802D01*
X303746329Y-152716862D01*
X303746330Y-152716870D01*
X303803504Y-152930245D01*
X303803505Y-152930247D01*
X303803506Y-152930250D01*
X303836782Y-153001611D01*
X303896866Y-153130462D01*
X303896868Y-153130466D01*
X304023570Y-153311415D01*
X304023575Y-153311421D01*
X304179778Y-153467624D01*
X304179784Y-153467629D01*
X304360733Y-153594331D01*
X304360735Y-153594332D01*
X304360738Y-153594334D01*
X304480148Y-153650015D01*
X304489589Y-153654418D01*
X304542028Y-153700590D01*
X304561180Y-153767784D01*
X304540964Y-153834665D01*
X304489589Y-153879182D01*
X304360740Y-153939265D01*
X304360738Y-153939266D01*
X304179777Y-154065975D01*
X304023575Y-154222177D01*
X303896866Y-154403138D01*
X303896865Y-154403140D01*
X303803507Y-154603348D01*
X303803504Y-154603354D01*
X303746330Y-154816729D01*
X303746329Y-154816737D01*
X303727077Y-155036797D01*
X303727077Y-155036802D01*
X303746329Y-155256862D01*
X303746330Y-155256870D01*
X303803504Y-155470245D01*
X303803505Y-155470247D01*
X303803506Y-155470250D01*
X303836782Y-155541611D01*
X303896866Y-155670462D01*
X303896868Y-155670466D01*
X304023570Y-155851415D01*
X304023575Y-155851421D01*
X304179778Y-156007624D01*
X304179784Y-156007629D01*
X304360733Y-156134331D01*
X304360735Y-156134332D01*
X304360738Y-156134334D01*
X304480148Y-156190015D01*
X304489589Y-156194418D01*
X304542028Y-156240590D01*
X304561180Y-156307784D01*
X304540964Y-156374665D01*
X304489589Y-156419182D01*
X304360740Y-156479265D01*
X304360738Y-156479266D01*
X304179777Y-156605975D01*
X304023575Y-156762177D01*
X303896866Y-156943138D01*
X303896865Y-156943140D01*
X303803507Y-157143348D01*
X303803504Y-157143354D01*
X303746330Y-157356729D01*
X303746329Y-157356737D01*
X303727077Y-157576797D01*
X303727077Y-157576802D01*
X303746329Y-157796862D01*
X303746330Y-157796870D01*
X303803504Y-158010245D01*
X303803505Y-158010247D01*
X303803506Y-158010250D01*
X303836782Y-158081611D01*
X303896866Y-158210462D01*
X303896868Y-158210466D01*
X304023570Y-158391415D01*
X304023575Y-158391421D01*
X304179778Y-158547624D01*
X304179784Y-158547629D01*
X304360733Y-158674331D01*
X304360735Y-158674332D01*
X304360738Y-158674334D01*
X304480148Y-158730015D01*
X304489589Y-158734418D01*
X304542028Y-158780590D01*
X304561180Y-158847784D01*
X304540964Y-158914665D01*
X304489589Y-158959182D01*
X304360740Y-159019265D01*
X304360738Y-159019266D01*
X304179777Y-159145975D01*
X304023575Y-159302177D01*
X303896866Y-159483138D01*
X303896865Y-159483140D01*
X303803507Y-159683348D01*
X303803504Y-159683354D01*
X303746330Y-159896729D01*
X303746329Y-159896737D01*
X303727077Y-160116797D01*
X303727077Y-160116802D01*
X303746329Y-160336862D01*
X303746330Y-160336870D01*
X303803504Y-160550245D01*
X303803505Y-160550247D01*
X303803506Y-160550250D01*
X303836782Y-160621611D01*
X303896866Y-160750462D01*
X303896868Y-160750466D01*
X304023570Y-160931415D01*
X304023575Y-160931421D01*
X304179778Y-161087624D01*
X304179784Y-161087629D01*
X304360733Y-161214331D01*
X304360735Y-161214332D01*
X304360738Y-161214334D01*
X304480148Y-161270015D01*
X304489589Y-161274418D01*
X304542028Y-161320590D01*
X304561180Y-161387784D01*
X304540964Y-161454665D01*
X304489589Y-161499182D01*
X304360740Y-161559265D01*
X304360738Y-161559266D01*
X304179777Y-161685975D01*
X304023575Y-161842177D01*
X303896866Y-162023138D01*
X303896865Y-162023140D01*
X303803507Y-162223348D01*
X303803504Y-162223354D01*
X303746330Y-162436729D01*
X303746329Y-162436737D01*
X303727077Y-162656797D01*
X303727077Y-162656802D01*
X303746329Y-162876862D01*
X303746330Y-162876870D01*
X303803504Y-163090245D01*
X303803505Y-163090247D01*
X303803506Y-163090250D01*
X303836782Y-163161611D01*
X303896866Y-163290462D01*
X303896868Y-163290466D01*
X304023570Y-163471415D01*
X304023575Y-163471421D01*
X304179778Y-163627624D01*
X304179784Y-163627629D01*
X304360733Y-163754331D01*
X304360735Y-163754332D01*
X304360738Y-163754334D01*
X304480148Y-163810015D01*
X304489589Y-163814418D01*
X304542028Y-163860590D01*
X304561180Y-163927784D01*
X304540964Y-163994665D01*
X304489589Y-164039182D01*
X304360740Y-164099265D01*
X304360738Y-164099266D01*
X304179781Y-164225972D01*
X304156544Y-164249210D01*
X304120371Y-164285382D01*
X304059051Y-164318866D01*
X304032692Y-164321700D01*
X300111470Y-164321700D01*
X300111454Y-164321699D01*
X300103858Y-164321699D01*
X300054300Y-164321699D01*
X299987261Y-164302014D01*
X299941506Y-164249210D01*
X299930300Y-164197699D01*
X299930300Y-147866700D01*
X299949985Y-147799661D01*
X300002789Y-147753906D01*
X300054300Y-147742700D01*
X305157388Y-147742700D01*
X305224427Y-147762385D01*
X305234703Y-147769755D01*
X305237536Y-147772014D01*
X305237538Y-147772016D01*
X305281535Y-147799661D01*
X305388226Y-147866700D01*
X305390278Y-147867989D01*
X305560545Y-147927568D01*
X305560550Y-147927569D01*
X305739796Y-147947765D01*
X305739800Y-147947765D01*
X305739804Y-147947765D01*
X305919049Y-147927569D01*
X305919052Y-147927568D01*
X305919055Y-147927568D01*
X306089322Y-147867989D01*
X306242062Y-147772016D01*
X306369616Y-147644462D01*
X306465589Y-147491722D01*
X306525168Y-147321455D01*
X306525169Y-147321449D01*
X306545365Y-147142203D01*
X306545365Y-147142196D01*
X306525169Y-146962950D01*
X306525168Y-146962945D01*
X306465588Y-146792676D01*
X306369615Y-146639937D01*
X306242062Y-146512384D01*
X306089323Y-146416411D01*
X305919054Y-146356831D01*
X305919049Y-146356830D01*
X305739804Y-146336635D01*
X305739796Y-146336635D01*
X305560550Y-146356830D01*
X305560545Y-146356831D01*
X305390276Y-146416411D01*
X305237536Y-146512385D01*
X305234703Y-146514645D01*
X305232524Y-146515534D01*
X305231642Y-146516089D01*
X305231544Y-146515934D01*
X305170017Y-146541055D01*
X305157388Y-146541700D01*
X299824457Y-146541700D01*
X299666343Y-146541700D01*
X299513615Y-146582623D01*
X299513614Y-146582623D01*
X299513612Y-146582624D01*
X299513609Y-146582625D01*
X299478466Y-146602916D01*
X299478464Y-146602917D01*
X299376690Y-146661675D01*
X299376682Y-146661681D01*
X298849281Y-147189082D01*
X298849279Y-147189085D01*
X298799161Y-147275894D01*
X298799159Y-147275896D01*
X298770225Y-147326009D01*
X298770224Y-147326010D01*
X298770223Y-147326015D01*
X298729299Y-147478743D01*
X298729299Y-147478745D01*
X298729299Y-147646846D01*
X298729300Y-147646859D01*
X298729300Y-199887900D01*
X298709615Y-199954939D01*
X298656811Y-200000694D01*
X298605300Y-200011900D01*
X169948700Y-200011900D01*
X169881661Y-199992215D01*
X169835906Y-199939411D01*
X169824700Y-199887900D01*
X169824700Y-162651558D01*
X169824245Y-162649860D01*
X169814887Y-162614936D01*
X169783777Y-162498831D01*
X169747168Y-162435423D01*
X169704720Y-162361900D01*
X169592916Y-162250096D01*
X169592915Y-162250095D01*
X169588585Y-162245765D01*
X169588574Y-162245755D01*
X167667974Y-160325155D01*
X167667972Y-160325152D01*
X167549101Y-160206281D01*
X167549100Y-160206280D01*
X167443903Y-160145545D01*
X167443902Y-160145544D01*
X167412167Y-160127222D01*
X167356265Y-160112243D01*
X167259441Y-160086299D01*
X167101327Y-160086299D01*
X167093731Y-160086299D01*
X167093715Y-160086300D01*
X142167870Y-160086300D01*
X142167854Y-160086299D01*
X142160258Y-160086299D01*
X142002143Y-160086299D01*
X141925779Y-160106761D01*
X141849414Y-160127223D01*
X141849409Y-160127226D01*
X141712490Y-160206275D01*
X141712486Y-160206278D01*
X141620946Y-160297818D01*
X141559622Y-160331302D01*
X141489931Y-160326318D01*
X141445584Y-160297817D01*
X141359416Y-160211649D01*
X140889621Y-159741852D01*
X140889614Y-159741846D01*
X140802165Y-159683415D01*
X140802066Y-159683350D01*
X140766695Y-159659716D01*
X140766694Y-159659715D01*
X140766692Y-159659714D01*
X140630117Y-159603143D01*
X140630107Y-159603140D01*
X140485120Y-159574300D01*
X140485118Y-159574300D01*
X139796772Y-159574300D01*
X139755817Y-159567342D01*
X139676054Y-159539431D01*
X139676050Y-159539430D01*
X139597816Y-159530616D01*
X139533402Y-159503549D01*
X139493847Y-159445955D01*
X139487700Y-159407396D01*
X139487700Y-133296344D01*
X139487700Y-133296343D01*
X139479149Y-133264432D01*
X139463658Y-133206618D01*
X139446777Y-133143616D01*
X139446775Y-133143612D01*
X139446774Y-133143609D01*
X139367724Y-133006690D01*
X139367721Y-133006686D01*
X139367720Y-133006684D01*
X139255916Y-132894880D01*
X139255915Y-132894879D01*
X139251585Y-132890549D01*
X139251574Y-132890539D01*
X139037190Y-132676155D01*
X139037188Y-132676152D01*
X138918317Y-132557281D01*
X138918316Y-132557280D01*
X138831504Y-132507160D01*
X138831504Y-132507159D01*
X138831500Y-132507158D01*
X138781385Y-132478223D01*
X138628657Y-132437299D01*
X138470543Y-132437299D01*
X138462947Y-132437299D01*
X138462931Y-132437300D01*
X136906000Y-132437300D01*
X136838961Y-132417615D01*
X136793206Y-132364811D01*
X136782000Y-132313300D01*
X136782000Y-131999800D01*
X133982000Y-131999800D01*
X133982000Y-132313300D01*
X133962315Y-132380339D01*
X133909511Y-132426094D01*
X133858000Y-132437300D01*
X132735337Y-132437300D01*
X132668298Y-132417615D01*
X132646765Y-132397569D01*
X132645813Y-132398522D01*
X132639548Y-132392257D01*
X132639546Y-132392254D01*
X132524331Y-132306004D01*
X132524329Y-132306003D01*
X132524328Y-132306002D01*
X132389482Y-132255708D01*
X132389483Y-132255708D01*
X132329883Y-132249301D01*
X132329881Y-132249300D01*
X132329873Y-132249300D01*
X132329865Y-132249300D01*
X131558916Y-132249300D01*
X131545035Y-132248520D01*
X131527499Y-132246544D01*
X131507002Y-132244235D01*
X131507000Y-132244235D01*
X131479034Y-132247385D01*
X131468955Y-132248521D01*
X131455074Y-132249300D01*
X130684129Y-132249300D01*
X130684123Y-132249301D01*
X130624516Y-132255708D01*
X130489671Y-132306002D01*
X130489664Y-132306006D01*
X130374455Y-132392252D01*
X130374452Y-132392255D01*
X130288206Y-132507464D01*
X130288202Y-132507471D01*
X130237910Y-132642313D01*
X130237909Y-132642317D01*
X130231500Y-132701927D01*
X130231500Y-132701934D01*
X130231500Y-132701935D01*
X130231500Y-133397670D01*
X130231501Y-133397676D01*
X130237908Y-133457282D01*
X130256253Y-133506466D01*
X130261237Y-133576158D01*
X130256253Y-133593131D01*
X130237910Y-133642311D01*
X130237909Y-133642315D01*
X130237909Y-133642317D01*
X130231500Y-133701927D01*
X130231500Y-133701934D01*
X130231500Y-133701935D01*
X130231500Y-134397670D01*
X130231501Y-134397676D01*
X130237909Y-134457284D01*
X130256519Y-134507182D01*
X130261503Y-134576874D01*
X130256520Y-134593846D01*
X130238402Y-134642423D01*
X130238401Y-134642427D01*
X130232000Y-134701955D01*
X130232000Y-134799800D01*
X130483931Y-134799800D01*
X130527263Y-134807617D01*
X130624517Y-134843891D01*
X130684127Y-134850300D01*
X131383000Y-134850299D01*
X131450039Y-134869983D01*
X131495794Y-134922787D01*
X131507000Y-134974299D01*
X131526685Y-134907260D01*
X131579489Y-134861505D01*
X131631000Y-134850299D01*
X132329871Y-134850299D01*
X132329872Y-134850299D01*
X132389483Y-134843891D01*
X132486736Y-134807617D01*
X132530069Y-134799800D01*
X132782000Y-134799800D01*
X132782000Y-134762300D01*
X132801685Y-134695261D01*
X132854489Y-134649506D01*
X132906000Y-134638300D01*
X137700103Y-134638300D01*
X137767142Y-134657985D01*
X137787784Y-134674619D01*
X137923381Y-134810216D01*
X137956866Y-134871539D01*
X137959700Y-134897897D01*
X137959700Y-135163300D01*
X137940015Y-135230339D01*
X137887211Y-135276094D01*
X137835700Y-135287300D01*
X132496555Y-135287300D01*
X132453222Y-135279482D01*
X132389482Y-135255708D01*
X132389483Y-135255708D01*
X132329883Y-135249301D01*
X132329881Y-135249300D01*
X132329873Y-135249300D01*
X132329865Y-135249300D01*
X131631000Y-135249300D01*
X131563961Y-135229615D01*
X131518206Y-135176811D01*
X131507000Y-135125300D01*
X131487315Y-135192339D01*
X131434511Y-135238094D01*
X131383000Y-135249300D01*
X130684129Y-135249300D01*
X130684123Y-135249301D01*
X130624516Y-135255708D01*
X130527264Y-135291982D01*
X130483931Y-135299800D01*
X130232000Y-135299800D01*
X130232000Y-135397644D01*
X130238401Y-135457172D01*
X130238403Y-135457183D01*
X130256519Y-135505753D01*
X130261503Y-135575444D01*
X130256520Y-135592416D01*
X130237910Y-135642313D01*
X130237909Y-135642317D01*
X130231500Y-135701927D01*
X130231500Y-135701934D01*
X130231500Y-135701935D01*
X130231500Y-136397670D01*
X130231501Y-136397676D01*
X130237908Y-136457283D01*
X130288202Y-136592128D01*
X130288206Y-136592135D01*
X130374452Y-136707344D01*
X130374455Y-136707347D01*
X130489664Y-136793593D01*
X130489671Y-136793597D01*
X130528248Y-136807985D01*
X130624517Y-136843891D01*
X130684127Y-136850300D01*
X131455079Y-136850299D01*
X131468964Y-136851079D01*
X131506999Y-136855365D01*
X131507000Y-136855365D01*
X131507001Y-136855365D01*
X131545036Y-136851079D01*
X131558921Y-136850299D01*
X132329871Y-136850299D01*
X132329872Y-136850299D01*
X132389483Y-136843891D01*
X132517569Y-136796117D01*
X132560902Y-136788300D01*
X133858000Y-136788300D01*
X133925039Y-136807985D01*
X133970794Y-136860789D01*
X133982000Y-136912300D01*
X133982000Y-137099800D01*
X136782000Y-137099800D01*
X136782000Y-136912300D01*
X136801685Y-136845261D01*
X136854489Y-136799506D01*
X136906000Y-136788300D01*
X137208700Y-136788300D01*
X137275739Y-136807985D01*
X137321494Y-136860789D01*
X137332700Y-136912300D01*
X137332700Y-159845192D01*
X137313015Y-159912231D01*
X137260211Y-159957986D01*
X137208308Y-159969191D01*
X129937170Y-159946182D01*
X129870193Y-159926286D01*
X129824605Y-159873337D01*
X129813562Y-159822180D01*
X129813588Y-158767694D01*
X129814094Y-137997644D01*
X133982000Y-137997644D01*
X133988401Y-138057172D01*
X133988403Y-138057179D01*
X134038645Y-138191886D01*
X134038649Y-138191893D01*
X134124809Y-138306987D01*
X134124812Y-138306990D01*
X134239906Y-138393150D01*
X134239913Y-138393154D01*
X134374620Y-138443396D01*
X134374627Y-138443398D01*
X134434155Y-138449799D01*
X134434172Y-138449800D01*
X135132000Y-138449800D01*
X135632000Y-138449800D01*
X136329828Y-138449800D01*
X136329844Y-138449799D01*
X136389372Y-138443398D01*
X136389379Y-138443396D01*
X136524086Y-138393154D01*
X136524093Y-138393150D01*
X136639187Y-138306990D01*
X136639190Y-138306987D01*
X136725350Y-138191893D01*
X136725354Y-138191886D01*
X136775596Y-138057179D01*
X136775598Y-138057172D01*
X136781999Y-137997644D01*
X136782000Y-137997627D01*
X136782000Y-137599800D01*
X135632000Y-137599800D01*
X135632000Y-138449800D01*
X135132000Y-138449800D01*
X135132000Y-137599800D01*
X133982000Y-137599800D01*
X133982000Y-137997644D01*
X129814094Y-137997644D01*
X129814262Y-131101955D01*
X133982000Y-131101955D01*
X133982000Y-131499800D01*
X135132000Y-131499800D01*
X135632000Y-131499800D01*
X136782000Y-131499800D01*
X136782000Y-131101972D01*
X136781999Y-131101955D01*
X136775598Y-131042427D01*
X136775596Y-131042420D01*
X136725354Y-130907713D01*
X136725350Y-130907706D01*
X136639190Y-130792612D01*
X136639187Y-130792609D01*
X136524093Y-130706449D01*
X136524086Y-130706445D01*
X136389379Y-130656203D01*
X136389372Y-130656201D01*
X136329844Y-130649800D01*
X135632000Y-130649800D01*
X135632000Y-131499800D01*
X135132000Y-131499800D01*
X135132000Y-130649800D01*
X134434155Y-130649800D01*
X134374627Y-130656201D01*
X134374620Y-130656203D01*
X134239913Y-130706445D01*
X134239906Y-130706449D01*
X134124812Y-130792609D01*
X134124809Y-130792612D01*
X134038649Y-130907706D01*
X134038645Y-130907713D01*
X133988403Y-131042420D01*
X133988401Y-131042427D01*
X133982000Y-131101955D01*
X129814262Y-131101955D01*
X129814404Y-125258529D01*
X129834090Y-125191493D01*
X129886895Y-125145739D01*
X129956054Y-125135798D01*
X130019609Y-125164824D01*
X130026085Y-125170854D01*
X130240743Y-125385512D01*
X130512998Y-125602627D01*
X130513001Y-125602628D01*
X130513003Y-125602630D01*
X130807867Y-125787906D01*
X131121621Y-125939002D01*
X131368488Y-126025384D01*
X131450307Y-126054014D01*
X131450315Y-126054017D01*
X131450318Y-126054017D01*
X131450319Y-126054018D01*
X131789829Y-126131509D01*
X132135876Y-126170499D01*
X132135877Y-126170500D01*
X132135880Y-126170500D01*
X132484123Y-126170500D01*
X132484123Y-126170499D01*
X132830171Y-126131509D01*
X133169681Y-126054018D01*
X133498379Y-125939002D01*
X133812133Y-125787906D01*
X134106997Y-125602630D01*
X134107001Y-125602627D01*
X134379256Y-125385512D01*
X134379258Y-125385509D01*
X134379263Y-125385506D01*
X134625506Y-125139263D01*
X134628270Y-125135798D01*
X134842627Y-124867001D01*
X134842628Y-124866999D01*
X134842630Y-124866997D01*
X135027906Y-124572133D01*
X135179002Y-124258379D01*
X135294018Y-123929681D01*
X135371509Y-123590171D01*
X135410500Y-123244120D01*
X135410500Y-122895880D01*
X135371509Y-122549829D01*
X135294018Y-122210319D01*
X135179002Y-121881621D01*
X135027906Y-121567867D01*
X134842630Y-121273003D01*
X134842628Y-121273000D01*
X134842627Y-121272998D01*
X134625512Y-121000743D01*
X134538544Y-120913775D01*
X134505059Y-120852452D01*
X134510043Y-120782760D01*
X134551915Y-120726827D01*
X134617379Y-120702410D01*
X134625799Y-120702096D01*
X173464340Y-120580145D01*
X173531435Y-120599618D01*
X173577355Y-120652278D01*
X173587516Y-120721405D01*
X173585250Y-120731101D01*
X173585618Y-120731180D01*
X173584201Y-120737796D01*
X173573700Y-120840583D01*
X173573700Y-122440601D01*
X173573701Y-122440618D01*
X173584200Y-122543396D01*
X173584201Y-122543399D01*
X173609451Y-122619596D01*
X173639386Y-122709934D01*
X173731488Y-122859256D01*
X173855544Y-122983312D01*
X174004866Y-123075414D01*
X174171403Y-123130599D01*
X174274191Y-123141100D01*
X174874208Y-123141099D01*
X174874216Y-123141098D01*
X174874219Y-123141098D01*
X174930502Y-123135348D01*
X174976997Y-123130599D01*
X175143534Y-123075414D01*
X175292856Y-122983312D01*
X175416912Y-122859256D01*
X175509014Y-122709934D01*
X175564199Y-122543397D01*
X175574700Y-122440609D01*
X175574699Y-120840592D01*
X175564199Y-120737803D01*
X175563665Y-120736190D01*
X175563628Y-120735135D01*
X175562782Y-120731180D01*
X175563487Y-120731029D01*
X175561262Y-120666361D01*
X175596993Y-120606319D01*
X175659512Y-120575126D01*
X175680971Y-120573185D01*
X218758073Y-120437926D01*
X218825169Y-120457399D01*
X218871089Y-120510059D01*
X218881250Y-120579186D01*
X218863998Y-120627018D01*
X218851386Y-120647466D01*
X218796201Y-120814003D01*
X218796201Y-120814004D01*
X218796200Y-120814004D01*
X218785700Y-120916783D01*
X218785700Y-122516801D01*
X218785701Y-122516818D01*
X218796200Y-122619596D01*
X218796201Y-122619599D01*
X218834553Y-122735336D01*
X218851386Y-122786134D01*
X218943488Y-122935456D01*
X219067544Y-123059512D01*
X219216866Y-123151614D01*
X219383403Y-123206799D01*
X219486191Y-123217300D01*
X220086208Y-123217299D01*
X220086216Y-123217298D01*
X220086219Y-123217298D01*
X220142502Y-123211548D01*
X220188997Y-123206799D01*
X220355534Y-123151614D01*
X220504856Y-123059512D01*
X220628912Y-122935456D01*
X220721014Y-122786134D01*
X220776199Y-122619597D01*
X220786700Y-122516809D01*
X220786699Y-120916792D01*
X220776199Y-120814003D01*
X220721014Y-120647466D01*
X220704429Y-120620578D01*
X220685990Y-120553188D01*
X220706912Y-120486524D01*
X220760554Y-120441754D01*
X220809575Y-120431485D01*
X264128208Y-120295467D01*
X264195305Y-120314940D01*
X264241225Y-120367600D01*
X264251386Y-120436727D01*
X264234132Y-120484561D01*
X264164989Y-120596659D01*
X264164985Y-120596668D01*
X264148152Y-120647468D01*
X264109801Y-120763203D01*
X264109801Y-120763204D01*
X264109800Y-120763204D01*
X264099300Y-120865983D01*
X264099300Y-122466001D01*
X264099301Y-122466018D01*
X264109800Y-122568796D01*
X264109801Y-122568799D01*
X264164985Y-122735331D01*
X264164987Y-122735336D01*
X264196321Y-122786136D01*
X264257088Y-122884656D01*
X264381144Y-123008712D01*
X264530466Y-123100814D01*
X264697003Y-123155999D01*
X264799791Y-123166500D01*
X265399808Y-123166499D01*
X265399816Y-123166498D01*
X265399819Y-123166498D01*
X265456102Y-123160748D01*
X265502597Y-123155999D01*
X265669134Y-123100814D01*
X265818456Y-123008712D01*
X265942512Y-122884656D01*
X266034614Y-122735334D01*
X266089799Y-122568797D01*
X266100300Y-122466009D01*
X266100299Y-120865992D01*
X266097703Y-120840583D01*
X266089799Y-120763203D01*
X266089798Y-120763200D01*
X266081382Y-120737803D01*
X266034614Y-120596666D01*
X265961712Y-120478473D01*
X265943273Y-120411082D01*
X265964196Y-120344419D01*
X266017838Y-120299649D01*
X266066857Y-120289380D01*
X305674804Y-120165013D01*
X305741903Y-120184487D01*
G37*
%TD.AperFunction*%
%TA.AperFunction,Conductor*%
G36*
X306332265Y-196130235D02*
G01*
X306376782Y-196181611D01*
X306436864Y-196310458D01*
X306436868Y-196310466D01*
X306563570Y-196491415D01*
X306563575Y-196491421D01*
X306719778Y-196647624D01*
X306719784Y-196647629D01*
X306900733Y-196774331D01*
X306900735Y-196774332D01*
X306900738Y-196774334D01*
X307029589Y-196834418D01*
X307030181Y-196834694D01*
X307082620Y-196880866D01*
X307101772Y-196948060D01*
X307081556Y-197014941D01*
X307030181Y-197059458D01*
X306900990Y-197119701D01*
X306836211Y-197165058D01*
X307506953Y-197835800D01*
X307484240Y-197835800D01*
X307387339Y-197861764D01*
X307300460Y-197911924D01*
X307229524Y-197982860D01*
X307179364Y-198069739D01*
X307153400Y-198166640D01*
X307153400Y-198189353D01*
X306482658Y-197518611D01*
X306437301Y-197583390D01*
X306377058Y-197712581D01*
X306330885Y-197765020D01*
X306263692Y-197784172D01*
X306196811Y-197763956D01*
X306152294Y-197712581D01*
X306091934Y-197583140D01*
X306091933Y-197583138D01*
X305965227Y-197402181D01*
X305909447Y-197346401D01*
X305809020Y-197245974D01*
X305809016Y-197245971D01*
X305809015Y-197245970D01*
X305628066Y-197119268D01*
X305628058Y-197119264D01*
X305499211Y-197059182D01*
X305446771Y-197013010D01*
X305427619Y-196945817D01*
X305447835Y-196878935D01*
X305499211Y-196834418D01*
X305505202Y-196831624D01*
X305628062Y-196774334D01*
X305809020Y-196647626D01*
X305965226Y-196491420D01*
X306091934Y-196310462D01*
X306152018Y-196181611D01*
X306198190Y-196129171D01*
X306265383Y-196110019D01*
X306332265Y-196130235D01*
G37*
%TD.AperFunction*%
%TA.AperFunction,Conductor*%
G36*
X306332265Y-193590235D02*
G01*
X306376782Y-193641611D01*
X306436864Y-193770458D01*
X306436868Y-193770466D01*
X306563570Y-193951415D01*
X306563575Y-193951421D01*
X306719778Y-194107624D01*
X306719784Y-194107629D01*
X306900733Y-194234331D01*
X306900735Y-194234332D01*
X306900738Y-194234334D01*
X307020148Y-194290015D01*
X307029589Y-194294418D01*
X307082028Y-194340590D01*
X307101180Y-194407784D01*
X307080964Y-194474665D01*
X307029589Y-194519182D01*
X306900740Y-194579265D01*
X306900738Y-194579266D01*
X306719777Y-194705975D01*
X306563575Y-194862177D01*
X306436866Y-195043138D01*
X306436865Y-195043140D01*
X306376782Y-195171989D01*
X306330609Y-195224428D01*
X306263416Y-195243580D01*
X306196535Y-195223364D01*
X306152018Y-195171989D01*
X306098218Y-195056615D01*
X306091934Y-195043139D01*
X305965226Y-194862180D01*
X305809020Y-194705974D01*
X305809016Y-194705971D01*
X305809015Y-194705970D01*
X305628066Y-194579268D01*
X305628058Y-194579264D01*
X305499211Y-194519182D01*
X305446771Y-194473010D01*
X305427619Y-194405817D01*
X305447835Y-194338935D01*
X305499211Y-194294418D01*
X305505202Y-194291624D01*
X305628062Y-194234334D01*
X305809020Y-194107626D01*
X305965226Y-193951420D01*
X306091934Y-193770462D01*
X306152018Y-193641611D01*
X306198190Y-193589171D01*
X306265383Y-193570019D01*
X306332265Y-193590235D01*
G37*
%TD.AperFunction*%
%TA.AperFunction,Conductor*%
G36*
X306332265Y-191050235D02*
G01*
X306376782Y-191101611D01*
X306436864Y-191230458D01*
X306436868Y-191230466D01*
X306563570Y-191411415D01*
X306563575Y-191411421D01*
X306719778Y-191567624D01*
X306719784Y-191567629D01*
X306900733Y-191694331D01*
X306900735Y-191694332D01*
X306900738Y-191694334D01*
X307020148Y-191750015D01*
X307029589Y-191754418D01*
X307082028Y-191800590D01*
X307101180Y-191867784D01*
X307080964Y-191934665D01*
X307029589Y-191979182D01*
X306900740Y-192039265D01*
X306900738Y-192039266D01*
X306719777Y-192165975D01*
X306563575Y-192322177D01*
X306436866Y-192503138D01*
X306436865Y-192503140D01*
X306376782Y-192631989D01*
X306330609Y-192684428D01*
X306263416Y-192703580D01*
X306196535Y-192683364D01*
X306152018Y-192631989D01*
X306107397Y-192536300D01*
X306091934Y-192503139D01*
X305965226Y-192322180D01*
X305809020Y-192165974D01*
X305809016Y-192165971D01*
X305809015Y-192165970D01*
X305628066Y-192039268D01*
X305628058Y-192039264D01*
X305499211Y-191979182D01*
X305446771Y-191933010D01*
X305427619Y-191865817D01*
X305447835Y-191798935D01*
X305499211Y-191754418D01*
X305505202Y-191751624D01*
X305628062Y-191694334D01*
X305809020Y-191567626D01*
X305965226Y-191411420D01*
X306091934Y-191230462D01*
X306152018Y-191101611D01*
X306198190Y-191049171D01*
X306265383Y-191030019D01*
X306332265Y-191050235D01*
G37*
%TD.AperFunction*%
%TA.AperFunction,Conductor*%
G36*
X306332265Y-188510235D02*
G01*
X306376782Y-188561611D01*
X306436864Y-188690458D01*
X306436868Y-188690466D01*
X306563570Y-188871415D01*
X306563575Y-188871421D01*
X306719778Y-189027624D01*
X306719784Y-189027629D01*
X306900733Y-189154331D01*
X306900735Y-189154332D01*
X306900738Y-189154334D01*
X307020148Y-189210015D01*
X307029589Y-189214418D01*
X307082028Y-189260590D01*
X307101180Y-189327784D01*
X307080964Y-189394665D01*
X307029589Y-189439182D01*
X306900740Y-189499265D01*
X306900738Y-189499266D01*
X306719777Y-189625975D01*
X306563575Y-189782177D01*
X306436866Y-189963138D01*
X306436865Y-189963140D01*
X306376782Y-190091989D01*
X306330609Y-190144428D01*
X306263416Y-190163580D01*
X306196535Y-190143364D01*
X306152018Y-190091989D01*
X306107397Y-189996300D01*
X306091934Y-189963139D01*
X305965226Y-189782180D01*
X305809020Y-189625974D01*
X305809016Y-189625971D01*
X305809015Y-189625970D01*
X305628066Y-189499268D01*
X305628058Y-189499264D01*
X305499211Y-189439182D01*
X305446771Y-189393010D01*
X305427619Y-189325817D01*
X305447835Y-189258935D01*
X305499211Y-189214418D01*
X305505202Y-189211624D01*
X305628062Y-189154334D01*
X305809020Y-189027626D01*
X305965226Y-188871420D01*
X306091934Y-188690462D01*
X306152018Y-188561611D01*
X306198190Y-188509171D01*
X306265383Y-188490019D01*
X306332265Y-188510235D01*
G37*
%TD.AperFunction*%
%TA.AperFunction,Conductor*%
G36*
X306332265Y-185970235D02*
G01*
X306376782Y-186021611D01*
X306436864Y-186150458D01*
X306436868Y-186150466D01*
X306563570Y-186331415D01*
X306563575Y-186331421D01*
X306719778Y-186487624D01*
X306719784Y-186487629D01*
X306900733Y-186614331D01*
X306900735Y-186614332D01*
X306900738Y-186614334D01*
X306976146Y-186649497D01*
X307029589Y-186674418D01*
X307082028Y-186720590D01*
X307101180Y-186787784D01*
X307080964Y-186854665D01*
X307029589Y-186899182D01*
X306900740Y-186959265D01*
X306900738Y-186959266D01*
X306719777Y-187085975D01*
X306563575Y-187242177D01*
X306436866Y-187423138D01*
X306436865Y-187423140D01*
X306376782Y-187551989D01*
X306330609Y-187604428D01*
X306263416Y-187623580D01*
X306196535Y-187603364D01*
X306152018Y-187551989D01*
X306123955Y-187491809D01*
X306091934Y-187423139D01*
X305965226Y-187242180D01*
X305809020Y-187085974D01*
X305809016Y-187085971D01*
X305809015Y-187085970D01*
X305628066Y-186959268D01*
X305628058Y-186959264D01*
X305499211Y-186899182D01*
X305446771Y-186853010D01*
X305427619Y-186785817D01*
X305447835Y-186718935D01*
X305499211Y-186674418D01*
X305552654Y-186649497D01*
X305628062Y-186614334D01*
X305809020Y-186487626D01*
X305965226Y-186331420D01*
X306091934Y-186150462D01*
X306152018Y-186021611D01*
X306198190Y-185969171D01*
X306265383Y-185950019D01*
X306332265Y-185970235D01*
G37*
%TD.AperFunction*%
%TA.AperFunction,Conductor*%
G36*
X306332265Y-183430235D02*
G01*
X306376782Y-183481611D01*
X306436864Y-183610458D01*
X306436868Y-183610466D01*
X306563570Y-183791415D01*
X306563575Y-183791421D01*
X306719778Y-183947624D01*
X306719784Y-183947629D01*
X306900733Y-184074331D01*
X306900735Y-184074332D01*
X306900738Y-184074334D01*
X307020148Y-184130015D01*
X307029589Y-184134418D01*
X307082028Y-184180590D01*
X307101180Y-184247784D01*
X307080964Y-184314665D01*
X307029589Y-184359182D01*
X306900740Y-184419265D01*
X306900738Y-184419266D01*
X306719777Y-184545975D01*
X306563575Y-184702177D01*
X306436866Y-184883138D01*
X306436865Y-184883140D01*
X306376782Y-185011989D01*
X306330609Y-185064428D01*
X306263416Y-185083580D01*
X306196535Y-185063364D01*
X306152018Y-185011989D01*
X306133459Y-184972190D01*
X306091934Y-184883139D01*
X305965226Y-184702180D01*
X305809020Y-184545974D01*
X305809016Y-184545971D01*
X305809015Y-184545970D01*
X305628066Y-184419268D01*
X305628058Y-184419264D01*
X305499211Y-184359182D01*
X305446771Y-184313010D01*
X305427619Y-184245817D01*
X305447835Y-184178935D01*
X305499211Y-184134418D01*
X305505202Y-184131624D01*
X305628062Y-184074334D01*
X305809020Y-183947626D01*
X305965226Y-183791420D01*
X306091934Y-183610462D01*
X306152018Y-183481611D01*
X306198190Y-183429171D01*
X306265383Y-183410019D01*
X306332265Y-183430235D01*
G37*
%TD.AperFunction*%
%TA.AperFunction,Conductor*%
G36*
X306332265Y-180890235D02*
G01*
X306376782Y-180941611D01*
X306436864Y-181070458D01*
X306436868Y-181070466D01*
X306563570Y-181251415D01*
X306563575Y-181251421D01*
X306719778Y-181407624D01*
X306719784Y-181407629D01*
X306900733Y-181534331D01*
X306900735Y-181534332D01*
X306900738Y-181534334D01*
X307020148Y-181590015D01*
X307029589Y-181594418D01*
X307082028Y-181640590D01*
X307101180Y-181707784D01*
X307080964Y-181774665D01*
X307029589Y-181819182D01*
X306900740Y-181879265D01*
X306900738Y-181879266D01*
X306719777Y-182005975D01*
X306563575Y-182162177D01*
X306436866Y-182343138D01*
X306436865Y-182343140D01*
X306376782Y-182471989D01*
X306330609Y-182524428D01*
X306263416Y-182543580D01*
X306196535Y-182523364D01*
X306152018Y-182471989D01*
X306107397Y-182376300D01*
X306091934Y-182343139D01*
X306002700Y-182215699D01*
X305965227Y-182162181D01*
X305893457Y-182090411D01*
X305809020Y-182005974D01*
X305809016Y-182005971D01*
X305809015Y-182005970D01*
X305628066Y-181879268D01*
X305628058Y-181879264D01*
X305499211Y-181819182D01*
X305446771Y-181773010D01*
X305427619Y-181705817D01*
X305447835Y-181638935D01*
X305499211Y-181594418D01*
X305505202Y-181591624D01*
X305628062Y-181534334D01*
X305809020Y-181407626D01*
X305965226Y-181251420D01*
X306091934Y-181070462D01*
X306152018Y-180941611D01*
X306198190Y-180889171D01*
X306265383Y-180870019D01*
X306332265Y-180890235D01*
G37*
%TD.AperFunction*%
%TA.AperFunction,Conductor*%
G36*
X306332265Y-178350235D02*
G01*
X306376782Y-178401611D01*
X306436864Y-178530458D01*
X306436868Y-178530466D01*
X306563570Y-178711415D01*
X306563575Y-178711421D01*
X306719778Y-178867624D01*
X306719784Y-178867629D01*
X306900733Y-178994331D01*
X306900735Y-178994332D01*
X306900738Y-178994334D01*
X307020148Y-179050015D01*
X307029589Y-179054418D01*
X307082028Y-179100590D01*
X307101180Y-179167784D01*
X307080964Y-179234665D01*
X307029589Y-179279182D01*
X306900740Y-179339265D01*
X306900738Y-179339266D01*
X306719777Y-179465975D01*
X306563575Y-179622177D01*
X306436866Y-179803138D01*
X306436865Y-179803140D01*
X306376782Y-179931989D01*
X306330609Y-179984428D01*
X306263416Y-180003580D01*
X306196535Y-179983364D01*
X306152018Y-179931989D01*
X306091934Y-179803140D01*
X306091933Y-179803138D01*
X305965227Y-179622181D01*
X305965223Y-179622177D01*
X305809020Y-179465974D01*
X305809016Y-179465971D01*
X305809015Y-179465970D01*
X305628066Y-179339268D01*
X305628058Y-179339264D01*
X305499211Y-179279182D01*
X305446771Y-179233010D01*
X305427619Y-179165817D01*
X305447835Y-179098935D01*
X305499211Y-179054418D01*
X305505202Y-179051624D01*
X305628062Y-178994334D01*
X305809020Y-178867626D01*
X305965226Y-178711420D01*
X306091934Y-178530462D01*
X306152018Y-178401611D01*
X306198190Y-178349171D01*
X306265383Y-178330019D01*
X306332265Y-178350235D01*
G37*
%TD.AperFunction*%
%TA.AperFunction,Conductor*%
G36*
X306332265Y-175810235D02*
G01*
X306376782Y-175861611D01*
X306436864Y-175990458D01*
X306436868Y-175990466D01*
X306563570Y-176171415D01*
X306563575Y-176171421D01*
X306719778Y-176327624D01*
X306719784Y-176327629D01*
X306900733Y-176454331D01*
X306900735Y-176454332D01*
X306900738Y-176454334D01*
X307020148Y-176510015D01*
X307029589Y-176514418D01*
X307082028Y-176560590D01*
X307101180Y-176627784D01*
X307080964Y-176694665D01*
X307029589Y-176739182D01*
X306900740Y-176799265D01*
X306900738Y-176799266D01*
X306719777Y-176925975D01*
X306563575Y-177082177D01*
X306436866Y-177263138D01*
X306436865Y-177263140D01*
X306376782Y-177391989D01*
X306330609Y-177444428D01*
X306263416Y-177463580D01*
X306196535Y-177443364D01*
X306152018Y-177391989D01*
X306091934Y-177263140D01*
X306091933Y-177263138D01*
X305965227Y-177082181D01*
X305944991Y-177061945D01*
X305809020Y-176925974D01*
X305809016Y-176925971D01*
X305809015Y-176925970D01*
X305628066Y-176799268D01*
X305628058Y-176799264D01*
X305499211Y-176739182D01*
X305446771Y-176693010D01*
X305427619Y-176625817D01*
X305447835Y-176558935D01*
X305499211Y-176514418D01*
X305505202Y-176511624D01*
X305628062Y-176454334D01*
X305809020Y-176327626D01*
X305965226Y-176171420D01*
X306091934Y-175990462D01*
X306152018Y-175861611D01*
X306198190Y-175809171D01*
X306265383Y-175790019D01*
X306332265Y-175810235D01*
G37*
%TD.AperFunction*%
%TA.AperFunction,Conductor*%
G36*
X306332265Y-173270235D02*
G01*
X306376782Y-173321611D01*
X306436864Y-173450458D01*
X306436868Y-173450466D01*
X306563570Y-173631415D01*
X306563575Y-173631421D01*
X306719778Y-173787624D01*
X306719784Y-173787629D01*
X306900733Y-173914331D01*
X306900735Y-173914332D01*
X306900738Y-173914334D01*
X307020148Y-173970015D01*
X307029589Y-173974418D01*
X307082028Y-174020590D01*
X307101180Y-174087784D01*
X307080964Y-174154665D01*
X307029589Y-174199182D01*
X306900740Y-174259265D01*
X306900738Y-174259266D01*
X306719777Y-174385975D01*
X306563575Y-174542177D01*
X306436866Y-174723138D01*
X306436865Y-174723140D01*
X306376782Y-174851989D01*
X306330609Y-174904428D01*
X306263416Y-174923580D01*
X306196535Y-174903364D01*
X306152018Y-174851989D01*
X306091934Y-174723140D01*
X306091933Y-174723138D01*
X305965227Y-174542181D01*
X305944991Y-174521945D01*
X305809020Y-174385974D01*
X305809016Y-174385971D01*
X305809015Y-174385970D01*
X305628066Y-174259268D01*
X305628058Y-174259264D01*
X305499211Y-174199182D01*
X305446771Y-174153010D01*
X305427619Y-174085817D01*
X305447835Y-174018935D01*
X305499211Y-173974418D01*
X305505202Y-173971624D01*
X305628062Y-173914334D01*
X305809020Y-173787626D01*
X305965226Y-173631420D01*
X306091934Y-173450462D01*
X306152018Y-173321611D01*
X306198190Y-173269171D01*
X306265383Y-173250019D01*
X306332265Y-173270235D01*
G37*
%TD.AperFunction*%
%TA.AperFunction,Conductor*%
G36*
X306332265Y-170730235D02*
G01*
X306376782Y-170781611D01*
X306436864Y-170910458D01*
X306436868Y-170910466D01*
X306563570Y-171091415D01*
X306563575Y-171091421D01*
X306719778Y-171247624D01*
X306719784Y-171247629D01*
X306900733Y-171374331D01*
X306900735Y-171374332D01*
X306900738Y-171374334D01*
X307020148Y-171430015D01*
X307029589Y-171434418D01*
X307082028Y-171480590D01*
X307101180Y-171547784D01*
X307080964Y-171614665D01*
X307029589Y-171659182D01*
X306900740Y-171719265D01*
X306900738Y-171719266D01*
X306719777Y-171845975D01*
X306563575Y-172002177D01*
X306436866Y-172183138D01*
X306436865Y-172183140D01*
X306376782Y-172311989D01*
X306330609Y-172364428D01*
X306263416Y-172383580D01*
X306196535Y-172363364D01*
X306152018Y-172311989D01*
X306107397Y-172216300D01*
X306091934Y-172183139D01*
X305965226Y-172002180D01*
X305809020Y-171845974D01*
X305809016Y-171845971D01*
X305809015Y-171845970D01*
X305628066Y-171719268D01*
X305628058Y-171719264D01*
X305499211Y-171659182D01*
X305446771Y-171613010D01*
X305427619Y-171545817D01*
X305447835Y-171478935D01*
X305499211Y-171434418D01*
X305505202Y-171431624D01*
X305628062Y-171374334D01*
X305809020Y-171247626D01*
X305965226Y-171091420D01*
X306091934Y-170910462D01*
X306152018Y-170781611D01*
X306198190Y-170729171D01*
X306265383Y-170710019D01*
X306332265Y-170730235D01*
G37*
%TD.AperFunction*%
%TA.AperFunction,Conductor*%
G36*
X306332265Y-168190235D02*
G01*
X306376782Y-168241611D01*
X306436864Y-168370458D01*
X306436868Y-168370466D01*
X306563570Y-168551415D01*
X306563575Y-168551421D01*
X306719778Y-168707624D01*
X306719784Y-168707629D01*
X306900733Y-168834331D01*
X306900735Y-168834332D01*
X306900738Y-168834334D01*
X306997415Y-168879415D01*
X307029589Y-168894418D01*
X307082028Y-168940590D01*
X307101180Y-169007784D01*
X307080964Y-169074665D01*
X307029589Y-169119182D01*
X306900740Y-169179265D01*
X306900738Y-169179266D01*
X306719777Y-169305975D01*
X306563575Y-169462177D01*
X306436866Y-169643138D01*
X306436865Y-169643140D01*
X306376782Y-169771989D01*
X306330609Y-169824428D01*
X306263416Y-169843580D01*
X306196535Y-169823364D01*
X306152018Y-169771989D01*
X306091934Y-169643140D01*
X306091933Y-169643138D01*
X305965227Y-169462181D01*
X305944991Y-169441945D01*
X305809020Y-169305974D01*
X305809016Y-169305971D01*
X305809015Y-169305970D01*
X305628066Y-169179268D01*
X305628058Y-169179264D01*
X305499211Y-169119182D01*
X305446771Y-169073010D01*
X305427619Y-169005817D01*
X305447835Y-168938935D01*
X305499211Y-168894418D01*
X305531385Y-168879415D01*
X305628062Y-168834334D01*
X305809020Y-168707626D01*
X305965226Y-168551420D01*
X306091934Y-168370462D01*
X306152018Y-168241611D01*
X306198190Y-168189171D01*
X306265383Y-168170019D01*
X306332265Y-168190235D01*
G37*
%TD.AperFunction*%
%TA.AperFunction,Conductor*%
G36*
X306332265Y-165650235D02*
G01*
X306376782Y-165701611D01*
X306436864Y-165830458D01*
X306436868Y-165830466D01*
X306563570Y-166011415D01*
X306563575Y-166011421D01*
X306719778Y-166167624D01*
X306719784Y-166167629D01*
X306900733Y-166294331D01*
X306900735Y-166294332D01*
X306900738Y-166294334D01*
X307020148Y-166350015D01*
X307029589Y-166354418D01*
X307082028Y-166400590D01*
X307101180Y-166467784D01*
X307080964Y-166534665D01*
X307029589Y-166579182D01*
X306900740Y-166639265D01*
X306900738Y-166639266D01*
X306719777Y-166765975D01*
X306563575Y-166922177D01*
X306436866Y-167103138D01*
X306436865Y-167103140D01*
X306376782Y-167231989D01*
X306330609Y-167284428D01*
X306263416Y-167303580D01*
X306196535Y-167283364D01*
X306152018Y-167231989D01*
X306091934Y-167103140D01*
X306091933Y-167103138D01*
X305965227Y-166922181D01*
X305965223Y-166922177D01*
X305809020Y-166765974D01*
X305809016Y-166765971D01*
X305809015Y-166765970D01*
X305628066Y-166639268D01*
X305628058Y-166639264D01*
X305499211Y-166579182D01*
X305446771Y-166533010D01*
X305427619Y-166465817D01*
X305447835Y-166398935D01*
X305499211Y-166354418D01*
X305505202Y-166351624D01*
X305628062Y-166294334D01*
X305809020Y-166167626D01*
X305965226Y-166011420D01*
X306091934Y-165830462D01*
X306152018Y-165701611D01*
X306198190Y-165649171D01*
X306265383Y-165630019D01*
X306332265Y-165650235D01*
G37*
%TD.AperFunction*%
%TA.AperFunction,Conductor*%
G36*
X306332265Y-163110235D02*
G01*
X306376782Y-163161611D01*
X306436864Y-163290458D01*
X306436868Y-163290466D01*
X306563570Y-163471415D01*
X306563575Y-163471421D01*
X306719778Y-163627624D01*
X306719784Y-163627629D01*
X306900733Y-163754331D01*
X306900735Y-163754332D01*
X306900738Y-163754334D01*
X307020148Y-163810015D01*
X307029589Y-163814418D01*
X307082028Y-163860590D01*
X307101180Y-163927784D01*
X307080964Y-163994665D01*
X307029589Y-164039182D01*
X306900740Y-164099265D01*
X306900738Y-164099266D01*
X306719777Y-164225975D01*
X306563575Y-164382177D01*
X306436866Y-164563138D01*
X306436865Y-164563140D01*
X306376782Y-164691989D01*
X306330609Y-164744428D01*
X306263416Y-164763580D01*
X306196535Y-164743364D01*
X306152018Y-164691989D01*
X306091934Y-164563140D01*
X306091933Y-164563138D01*
X305965227Y-164382181D01*
X305901912Y-164318866D01*
X305809020Y-164225974D01*
X305809016Y-164225971D01*
X305809015Y-164225970D01*
X305628066Y-164099268D01*
X305628058Y-164099264D01*
X305499211Y-164039182D01*
X305446771Y-163993010D01*
X305427619Y-163925817D01*
X305447835Y-163858935D01*
X305499211Y-163814418D01*
X305505202Y-163811624D01*
X305628062Y-163754334D01*
X305809020Y-163627626D01*
X305965226Y-163471420D01*
X306091934Y-163290462D01*
X306152018Y-163161611D01*
X306198190Y-163109171D01*
X306265383Y-163090019D01*
X306332265Y-163110235D01*
G37*
%TD.AperFunction*%
%TD*%
M02*
