%TF.GenerationSoftware,KiCad,Pcbnew,8.0.9*%
%TF.CreationDate,2025-09-12T10:49:09+02:00*%
%TF.ProjectId,iot_weatherstation_full_vcut,696f745f-7765-4617-9468-657273746174,rev?*%
%TF.SameCoordinates,Original*%
%TF.FileFunction,Legend,Top*%
%TF.FilePolarity,Positive*%
%FSLAX46Y46*%
G04 Gerber Fmt 4.6, Leading zero omitted, Abs format (unit mm)*
G04 Created by KiCad (PCBNEW 8.0.9) date 2025-09-12 10:49:09*
%MOMM*%
%LPD*%
G01*
G04 APERTURE LIST*
%ADD10C,0.250000*%
%ADD11C,0.200000*%
%ADD12C,0.254000*%
%ADD13C,0.100000*%
G04 APERTURE END LIST*
D10*
X296947568Y-117253675D02*
X296947568Y-116253675D01*
X297566615Y-117253675D02*
X297471377Y-117206056D01*
X297471377Y-117206056D02*
X297423758Y-117158436D01*
X297423758Y-117158436D02*
X297376139Y-117063198D01*
X297376139Y-117063198D02*
X297376139Y-116777484D01*
X297376139Y-116777484D02*
X297423758Y-116682246D01*
X297423758Y-116682246D02*
X297471377Y-116634627D01*
X297471377Y-116634627D02*
X297566615Y-116587008D01*
X297566615Y-116587008D02*
X297709472Y-116587008D01*
X297709472Y-116587008D02*
X297804710Y-116634627D01*
X297804710Y-116634627D02*
X297852329Y-116682246D01*
X297852329Y-116682246D02*
X297899948Y-116777484D01*
X297899948Y-116777484D02*
X297899948Y-117063198D01*
X297899948Y-117063198D02*
X297852329Y-117158436D01*
X297852329Y-117158436D02*
X297804710Y-117206056D01*
X297804710Y-117206056D02*
X297709472Y-117253675D01*
X297709472Y-117253675D02*
X297566615Y-117253675D01*
X298185663Y-116253675D02*
X298757091Y-116253675D01*
X298471377Y-117253675D02*
X298471377Y-116253675D01*
X299090425Y-116872722D02*
X299852330Y-116872722D01*
X300233282Y-116253675D02*
X300471377Y-117253675D01*
X300471377Y-117253675D02*
X300661853Y-116539389D01*
X300661853Y-116539389D02*
X300852329Y-117253675D01*
X300852329Y-117253675D02*
X301090425Y-116253675D01*
X301852329Y-117206056D02*
X301757091Y-117253675D01*
X301757091Y-117253675D02*
X301566615Y-117253675D01*
X301566615Y-117253675D02*
X301471377Y-117206056D01*
X301471377Y-117206056D02*
X301423758Y-117110817D01*
X301423758Y-117110817D02*
X301423758Y-116729865D01*
X301423758Y-116729865D02*
X301471377Y-116634627D01*
X301471377Y-116634627D02*
X301566615Y-116587008D01*
X301566615Y-116587008D02*
X301757091Y-116587008D01*
X301757091Y-116587008D02*
X301852329Y-116634627D01*
X301852329Y-116634627D02*
X301899948Y-116729865D01*
X301899948Y-116729865D02*
X301899948Y-116825103D01*
X301899948Y-116825103D02*
X301423758Y-116920341D01*
X302185663Y-116587008D02*
X302566615Y-116587008D01*
X302328520Y-116253675D02*
X302328520Y-117110817D01*
X302328520Y-117110817D02*
X302376139Y-117206056D01*
X302376139Y-117206056D02*
X302471377Y-117253675D01*
X302471377Y-117253675D02*
X302566615Y-117253675D01*
X302757092Y-116587008D02*
X303138044Y-116587008D01*
X302899949Y-116253675D02*
X302899949Y-117110817D01*
X302899949Y-117110817D02*
X302947568Y-117206056D01*
X302947568Y-117206056D02*
X303042806Y-117253675D01*
X303042806Y-117253675D02*
X303138044Y-117253675D01*
X303852330Y-117206056D02*
X303757092Y-117253675D01*
X303757092Y-117253675D02*
X303566616Y-117253675D01*
X303566616Y-117253675D02*
X303471378Y-117206056D01*
X303471378Y-117206056D02*
X303423759Y-117110817D01*
X303423759Y-117110817D02*
X303423759Y-116729865D01*
X303423759Y-116729865D02*
X303471378Y-116634627D01*
X303471378Y-116634627D02*
X303566616Y-116587008D01*
X303566616Y-116587008D02*
X303757092Y-116587008D01*
X303757092Y-116587008D02*
X303852330Y-116634627D01*
X303852330Y-116634627D02*
X303899949Y-116729865D01*
X303899949Y-116729865D02*
X303899949Y-116825103D01*
X303899949Y-116825103D02*
X303423759Y-116920341D01*
X304328521Y-117253675D02*
X304328521Y-116587008D01*
X304328521Y-116777484D02*
X304376140Y-116682246D01*
X304376140Y-116682246D02*
X304423759Y-116634627D01*
X304423759Y-116634627D02*
X304518997Y-116587008D01*
X304518997Y-116587008D02*
X304614235Y-116587008D01*
X304899950Y-117206056D02*
X304995188Y-117253675D01*
X304995188Y-117253675D02*
X305185664Y-117253675D01*
X305185664Y-117253675D02*
X305280902Y-117206056D01*
X305280902Y-117206056D02*
X305328521Y-117110817D01*
X305328521Y-117110817D02*
X305328521Y-117063198D01*
X305328521Y-117063198D02*
X305280902Y-116967960D01*
X305280902Y-116967960D02*
X305185664Y-116920341D01*
X305185664Y-116920341D02*
X305042807Y-116920341D01*
X305042807Y-116920341D02*
X304947569Y-116872722D01*
X304947569Y-116872722D02*
X304899950Y-116777484D01*
X304899950Y-116777484D02*
X304899950Y-116729865D01*
X304899950Y-116729865D02*
X304947569Y-116634627D01*
X304947569Y-116634627D02*
X305042807Y-116587008D01*
X305042807Y-116587008D02*
X305185664Y-116587008D01*
X305185664Y-116587008D02*
X305280902Y-116634627D01*
X305614236Y-116587008D02*
X305995188Y-116587008D01*
X305757093Y-116253675D02*
X305757093Y-117110817D01*
X305757093Y-117110817D02*
X305804712Y-117206056D01*
X305804712Y-117206056D02*
X305899950Y-117253675D01*
X305899950Y-117253675D02*
X305995188Y-117253675D01*
X306757093Y-117253675D02*
X306757093Y-116729865D01*
X306757093Y-116729865D02*
X306709474Y-116634627D01*
X306709474Y-116634627D02*
X306614236Y-116587008D01*
X306614236Y-116587008D02*
X306423760Y-116587008D01*
X306423760Y-116587008D02*
X306328522Y-116634627D01*
X306757093Y-117206056D02*
X306661855Y-117253675D01*
X306661855Y-117253675D02*
X306423760Y-117253675D01*
X306423760Y-117253675D02*
X306328522Y-117206056D01*
X306328522Y-117206056D02*
X306280903Y-117110817D01*
X306280903Y-117110817D02*
X306280903Y-117015579D01*
X306280903Y-117015579D02*
X306328522Y-116920341D01*
X306328522Y-116920341D02*
X306423760Y-116872722D01*
X306423760Y-116872722D02*
X306661855Y-116872722D01*
X306661855Y-116872722D02*
X306757093Y-116825103D01*
X307090427Y-116587008D02*
X307471379Y-116587008D01*
X307233284Y-116253675D02*
X307233284Y-117110817D01*
X307233284Y-117110817D02*
X307280903Y-117206056D01*
X307280903Y-117206056D02*
X307376141Y-117253675D01*
X307376141Y-117253675D02*
X307471379Y-117253675D01*
X307804713Y-117253675D02*
X307804713Y-116587008D01*
X307804713Y-116253675D02*
X307757094Y-116301294D01*
X307757094Y-116301294D02*
X307804713Y-116348913D01*
X307804713Y-116348913D02*
X307852332Y-116301294D01*
X307852332Y-116301294D02*
X307804713Y-116253675D01*
X307804713Y-116253675D02*
X307804713Y-116348913D01*
X308423760Y-117253675D02*
X308328522Y-117206056D01*
X308328522Y-117206056D02*
X308280903Y-117158436D01*
X308280903Y-117158436D02*
X308233284Y-117063198D01*
X308233284Y-117063198D02*
X308233284Y-116777484D01*
X308233284Y-116777484D02*
X308280903Y-116682246D01*
X308280903Y-116682246D02*
X308328522Y-116634627D01*
X308328522Y-116634627D02*
X308423760Y-116587008D01*
X308423760Y-116587008D02*
X308566617Y-116587008D01*
X308566617Y-116587008D02*
X308661855Y-116634627D01*
X308661855Y-116634627D02*
X308709474Y-116682246D01*
X308709474Y-116682246D02*
X308757093Y-116777484D01*
X308757093Y-116777484D02*
X308757093Y-117063198D01*
X308757093Y-117063198D02*
X308709474Y-117158436D01*
X308709474Y-117158436D02*
X308661855Y-117206056D01*
X308661855Y-117206056D02*
X308566617Y-117253675D01*
X308566617Y-117253675D02*
X308423760Y-117253675D01*
X309185665Y-116587008D02*
X309185665Y-117253675D01*
X309185665Y-116682246D02*
X309233284Y-116634627D01*
X309233284Y-116634627D02*
X309328522Y-116587008D01*
X309328522Y-116587008D02*
X309471379Y-116587008D01*
X309471379Y-116587008D02*
X309566617Y-116634627D01*
X309566617Y-116634627D02*
X309614236Y-116729865D01*
X309614236Y-116729865D02*
X309614236Y-117253675D01*
X297518996Y-118863619D02*
X297185663Y-118387428D01*
X296947568Y-118863619D02*
X296947568Y-117863619D01*
X296947568Y-117863619D02*
X297328520Y-117863619D01*
X297328520Y-117863619D02*
X297423758Y-117911238D01*
X297423758Y-117911238D02*
X297471377Y-117958857D01*
X297471377Y-117958857D02*
X297518996Y-118054095D01*
X297518996Y-118054095D02*
X297518996Y-118196952D01*
X297518996Y-118196952D02*
X297471377Y-118292190D01*
X297471377Y-118292190D02*
X297423758Y-118339809D01*
X297423758Y-118339809D02*
X297328520Y-118387428D01*
X297328520Y-118387428D02*
X296947568Y-118387428D01*
X298328520Y-118816000D02*
X298233282Y-118863619D01*
X298233282Y-118863619D02*
X298042806Y-118863619D01*
X298042806Y-118863619D02*
X297947568Y-118816000D01*
X297947568Y-118816000D02*
X297899949Y-118720761D01*
X297899949Y-118720761D02*
X297899949Y-118339809D01*
X297899949Y-118339809D02*
X297947568Y-118244571D01*
X297947568Y-118244571D02*
X298042806Y-118196952D01*
X298042806Y-118196952D02*
X298233282Y-118196952D01*
X298233282Y-118196952D02*
X298328520Y-118244571D01*
X298328520Y-118244571D02*
X298376139Y-118339809D01*
X298376139Y-118339809D02*
X298376139Y-118435047D01*
X298376139Y-118435047D02*
X297899949Y-118530285D01*
X298709473Y-118196952D02*
X298947568Y-118863619D01*
X298947568Y-118863619D02*
X299185663Y-118196952D01*
X300852330Y-118863619D02*
X300280902Y-118863619D01*
X300566616Y-118863619D02*
X300566616Y-117863619D01*
X300566616Y-117863619D02*
X300471378Y-118006476D01*
X300471378Y-118006476D02*
X300376140Y-118101714D01*
X300376140Y-118101714D02*
X300280902Y-118149333D01*
X301280902Y-118768380D02*
X301328521Y-118816000D01*
X301328521Y-118816000D02*
X301280902Y-118863619D01*
X301280902Y-118863619D02*
X301233283Y-118816000D01*
X301233283Y-118816000D02*
X301280902Y-118768380D01*
X301280902Y-118768380D02*
X301280902Y-118863619D01*
X301947568Y-117863619D02*
X302042806Y-117863619D01*
X302042806Y-117863619D02*
X302138044Y-117911238D01*
X302138044Y-117911238D02*
X302185663Y-117958857D01*
X302185663Y-117958857D02*
X302233282Y-118054095D01*
X302233282Y-118054095D02*
X302280901Y-118244571D01*
X302280901Y-118244571D02*
X302280901Y-118482666D01*
X302280901Y-118482666D02*
X302233282Y-118673142D01*
X302233282Y-118673142D02*
X302185663Y-118768380D01*
X302185663Y-118768380D02*
X302138044Y-118816000D01*
X302138044Y-118816000D02*
X302042806Y-118863619D01*
X302042806Y-118863619D02*
X301947568Y-118863619D01*
X301947568Y-118863619D02*
X301852330Y-118816000D01*
X301852330Y-118816000D02*
X301804711Y-118768380D01*
X301804711Y-118768380D02*
X301757092Y-118673142D01*
X301757092Y-118673142D02*
X301709473Y-118482666D01*
X301709473Y-118482666D02*
X301709473Y-118244571D01*
X301709473Y-118244571D02*
X301757092Y-118054095D01*
X301757092Y-118054095D02*
X301804711Y-117958857D01*
X301804711Y-117958857D02*
X301852330Y-117911238D01*
X301852330Y-117911238D02*
X301947568Y-117863619D01*
D11*
X136424701Y-195345619D02*
X136091368Y-194869428D01*
X135853273Y-195345619D02*
X135853273Y-194345619D01*
X135853273Y-194345619D02*
X136234225Y-194345619D01*
X136234225Y-194345619D02*
X136329463Y-194393238D01*
X136329463Y-194393238D02*
X136377082Y-194440857D01*
X136377082Y-194440857D02*
X136424701Y-194536095D01*
X136424701Y-194536095D02*
X136424701Y-194678952D01*
X136424701Y-194678952D02*
X136377082Y-194774190D01*
X136377082Y-194774190D02*
X136329463Y-194821809D01*
X136329463Y-194821809D02*
X136234225Y-194869428D01*
X136234225Y-194869428D02*
X135853273Y-194869428D01*
X136758035Y-194345619D02*
X137424701Y-195345619D01*
X137424701Y-194345619D02*
X136758035Y-195345619D01*
D10*
X289810168Y-225051275D02*
X289810168Y-224051275D01*
X290429215Y-225051275D02*
X290333977Y-225003656D01*
X290333977Y-225003656D02*
X290286358Y-224956036D01*
X290286358Y-224956036D02*
X290238739Y-224860798D01*
X290238739Y-224860798D02*
X290238739Y-224575084D01*
X290238739Y-224575084D02*
X290286358Y-224479846D01*
X290286358Y-224479846D02*
X290333977Y-224432227D01*
X290333977Y-224432227D02*
X290429215Y-224384608D01*
X290429215Y-224384608D02*
X290572072Y-224384608D01*
X290572072Y-224384608D02*
X290667310Y-224432227D01*
X290667310Y-224432227D02*
X290714929Y-224479846D01*
X290714929Y-224479846D02*
X290762548Y-224575084D01*
X290762548Y-224575084D02*
X290762548Y-224860798D01*
X290762548Y-224860798D02*
X290714929Y-224956036D01*
X290714929Y-224956036D02*
X290667310Y-225003656D01*
X290667310Y-225003656D02*
X290572072Y-225051275D01*
X290572072Y-225051275D02*
X290429215Y-225051275D01*
X291048263Y-224051275D02*
X291619691Y-224051275D01*
X291333977Y-225051275D02*
X291333977Y-224051275D01*
X291953025Y-224670322D02*
X292714930Y-224670322D01*
X293095882Y-224051275D02*
X293333977Y-225051275D01*
X293333977Y-225051275D02*
X293524453Y-224336989D01*
X293524453Y-224336989D02*
X293714929Y-225051275D01*
X293714929Y-225051275D02*
X293953025Y-224051275D01*
X294714929Y-225003656D02*
X294619691Y-225051275D01*
X294619691Y-225051275D02*
X294429215Y-225051275D01*
X294429215Y-225051275D02*
X294333977Y-225003656D01*
X294333977Y-225003656D02*
X294286358Y-224908417D01*
X294286358Y-224908417D02*
X294286358Y-224527465D01*
X294286358Y-224527465D02*
X294333977Y-224432227D01*
X294333977Y-224432227D02*
X294429215Y-224384608D01*
X294429215Y-224384608D02*
X294619691Y-224384608D01*
X294619691Y-224384608D02*
X294714929Y-224432227D01*
X294714929Y-224432227D02*
X294762548Y-224527465D01*
X294762548Y-224527465D02*
X294762548Y-224622703D01*
X294762548Y-224622703D02*
X294286358Y-224717941D01*
X295048263Y-224384608D02*
X295429215Y-224384608D01*
X295191120Y-224051275D02*
X295191120Y-224908417D01*
X295191120Y-224908417D02*
X295238739Y-225003656D01*
X295238739Y-225003656D02*
X295333977Y-225051275D01*
X295333977Y-225051275D02*
X295429215Y-225051275D01*
X295619692Y-224384608D02*
X296000644Y-224384608D01*
X295762549Y-224051275D02*
X295762549Y-224908417D01*
X295762549Y-224908417D02*
X295810168Y-225003656D01*
X295810168Y-225003656D02*
X295905406Y-225051275D01*
X295905406Y-225051275D02*
X296000644Y-225051275D01*
X296714930Y-225003656D02*
X296619692Y-225051275D01*
X296619692Y-225051275D02*
X296429216Y-225051275D01*
X296429216Y-225051275D02*
X296333978Y-225003656D01*
X296333978Y-225003656D02*
X296286359Y-224908417D01*
X296286359Y-224908417D02*
X296286359Y-224527465D01*
X296286359Y-224527465D02*
X296333978Y-224432227D01*
X296333978Y-224432227D02*
X296429216Y-224384608D01*
X296429216Y-224384608D02*
X296619692Y-224384608D01*
X296619692Y-224384608D02*
X296714930Y-224432227D01*
X296714930Y-224432227D02*
X296762549Y-224527465D01*
X296762549Y-224527465D02*
X296762549Y-224622703D01*
X296762549Y-224622703D02*
X296286359Y-224717941D01*
X297191121Y-225051275D02*
X297191121Y-224384608D01*
X297191121Y-224575084D02*
X297238740Y-224479846D01*
X297238740Y-224479846D02*
X297286359Y-224432227D01*
X297286359Y-224432227D02*
X297381597Y-224384608D01*
X297381597Y-224384608D02*
X297476835Y-224384608D01*
X297762550Y-225003656D02*
X297857788Y-225051275D01*
X297857788Y-225051275D02*
X298048264Y-225051275D01*
X298048264Y-225051275D02*
X298143502Y-225003656D01*
X298143502Y-225003656D02*
X298191121Y-224908417D01*
X298191121Y-224908417D02*
X298191121Y-224860798D01*
X298191121Y-224860798D02*
X298143502Y-224765560D01*
X298143502Y-224765560D02*
X298048264Y-224717941D01*
X298048264Y-224717941D02*
X297905407Y-224717941D01*
X297905407Y-224717941D02*
X297810169Y-224670322D01*
X297810169Y-224670322D02*
X297762550Y-224575084D01*
X297762550Y-224575084D02*
X297762550Y-224527465D01*
X297762550Y-224527465D02*
X297810169Y-224432227D01*
X297810169Y-224432227D02*
X297905407Y-224384608D01*
X297905407Y-224384608D02*
X298048264Y-224384608D01*
X298048264Y-224384608D02*
X298143502Y-224432227D01*
X298476836Y-224384608D02*
X298857788Y-224384608D01*
X298619693Y-224051275D02*
X298619693Y-224908417D01*
X298619693Y-224908417D02*
X298667312Y-225003656D01*
X298667312Y-225003656D02*
X298762550Y-225051275D01*
X298762550Y-225051275D02*
X298857788Y-225051275D01*
X299619693Y-225051275D02*
X299619693Y-224527465D01*
X299619693Y-224527465D02*
X299572074Y-224432227D01*
X299572074Y-224432227D02*
X299476836Y-224384608D01*
X299476836Y-224384608D02*
X299286360Y-224384608D01*
X299286360Y-224384608D02*
X299191122Y-224432227D01*
X299619693Y-225003656D02*
X299524455Y-225051275D01*
X299524455Y-225051275D02*
X299286360Y-225051275D01*
X299286360Y-225051275D02*
X299191122Y-225003656D01*
X299191122Y-225003656D02*
X299143503Y-224908417D01*
X299143503Y-224908417D02*
X299143503Y-224813179D01*
X299143503Y-224813179D02*
X299191122Y-224717941D01*
X299191122Y-224717941D02*
X299286360Y-224670322D01*
X299286360Y-224670322D02*
X299524455Y-224670322D01*
X299524455Y-224670322D02*
X299619693Y-224622703D01*
X299953027Y-224384608D02*
X300333979Y-224384608D01*
X300095884Y-224051275D02*
X300095884Y-224908417D01*
X300095884Y-224908417D02*
X300143503Y-225003656D01*
X300143503Y-225003656D02*
X300238741Y-225051275D01*
X300238741Y-225051275D02*
X300333979Y-225051275D01*
X300667313Y-225051275D02*
X300667313Y-224384608D01*
X300667313Y-224051275D02*
X300619694Y-224098894D01*
X300619694Y-224098894D02*
X300667313Y-224146513D01*
X300667313Y-224146513D02*
X300714932Y-224098894D01*
X300714932Y-224098894D02*
X300667313Y-224051275D01*
X300667313Y-224051275D02*
X300667313Y-224146513D01*
X301286360Y-225051275D02*
X301191122Y-225003656D01*
X301191122Y-225003656D02*
X301143503Y-224956036D01*
X301143503Y-224956036D02*
X301095884Y-224860798D01*
X301095884Y-224860798D02*
X301095884Y-224575084D01*
X301095884Y-224575084D02*
X301143503Y-224479846D01*
X301143503Y-224479846D02*
X301191122Y-224432227D01*
X301191122Y-224432227D02*
X301286360Y-224384608D01*
X301286360Y-224384608D02*
X301429217Y-224384608D01*
X301429217Y-224384608D02*
X301524455Y-224432227D01*
X301524455Y-224432227D02*
X301572074Y-224479846D01*
X301572074Y-224479846D02*
X301619693Y-224575084D01*
X301619693Y-224575084D02*
X301619693Y-224860798D01*
X301619693Y-224860798D02*
X301572074Y-224956036D01*
X301572074Y-224956036D02*
X301524455Y-225003656D01*
X301524455Y-225003656D02*
X301429217Y-225051275D01*
X301429217Y-225051275D02*
X301286360Y-225051275D01*
X302048265Y-224384608D02*
X302048265Y-225051275D01*
X302048265Y-224479846D02*
X302095884Y-224432227D01*
X302095884Y-224432227D02*
X302191122Y-224384608D01*
X302191122Y-224384608D02*
X302333979Y-224384608D01*
X302333979Y-224384608D02*
X302429217Y-224432227D01*
X302429217Y-224432227D02*
X302476836Y-224527465D01*
X302476836Y-224527465D02*
X302476836Y-225051275D01*
X290381596Y-226661219D02*
X290048263Y-226185028D01*
X289810168Y-226661219D02*
X289810168Y-225661219D01*
X289810168Y-225661219D02*
X290191120Y-225661219D01*
X290191120Y-225661219D02*
X290286358Y-225708838D01*
X290286358Y-225708838D02*
X290333977Y-225756457D01*
X290333977Y-225756457D02*
X290381596Y-225851695D01*
X290381596Y-225851695D02*
X290381596Y-225994552D01*
X290381596Y-225994552D02*
X290333977Y-226089790D01*
X290333977Y-226089790D02*
X290286358Y-226137409D01*
X290286358Y-226137409D02*
X290191120Y-226185028D01*
X290191120Y-226185028D02*
X289810168Y-226185028D01*
X291191120Y-226613600D02*
X291095882Y-226661219D01*
X291095882Y-226661219D02*
X290905406Y-226661219D01*
X290905406Y-226661219D02*
X290810168Y-226613600D01*
X290810168Y-226613600D02*
X290762549Y-226518361D01*
X290762549Y-226518361D02*
X290762549Y-226137409D01*
X290762549Y-226137409D02*
X290810168Y-226042171D01*
X290810168Y-226042171D02*
X290905406Y-225994552D01*
X290905406Y-225994552D02*
X291095882Y-225994552D01*
X291095882Y-225994552D02*
X291191120Y-226042171D01*
X291191120Y-226042171D02*
X291238739Y-226137409D01*
X291238739Y-226137409D02*
X291238739Y-226232647D01*
X291238739Y-226232647D02*
X290762549Y-226327885D01*
X291572073Y-225994552D02*
X291810168Y-226661219D01*
X291810168Y-226661219D02*
X292048263Y-225994552D01*
X293714930Y-226661219D02*
X293143502Y-226661219D01*
X293429216Y-226661219D02*
X293429216Y-225661219D01*
X293429216Y-225661219D02*
X293333978Y-225804076D01*
X293333978Y-225804076D02*
X293238740Y-225899314D01*
X293238740Y-225899314D02*
X293143502Y-225946933D01*
X294143502Y-226565980D02*
X294191121Y-226613600D01*
X294191121Y-226613600D02*
X294143502Y-226661219D01*
X294143502Y-226661219D02*
X294095883Y-226613600D01*
X294095883Y-226613600D02*
X294143502Y-226565980D01*
X294143502Y-226565980D02*
X294143502Y-226661219D01*
X294810168Y-225661219D02*
X294905406Y-225661219D01*
X294905406Y-225661219D02*
X295000644Y-225708838D01*
X295000644Y-225708838D02*
X295048263Y-225756457D01*
X295048263Y-225756457D02*
X295095882Y-225851695D01*
X295095882Y-225851695D02*
X295143501Y-226042171D01*
X295143501Y-226042171D02*
X295143501Y-226280266D01*
X295143501Y-226280266D02*
X295095882Y-226470742D01*
X295095882Y-226470742D02*
X295048263Y-226565980D01*
X295048263Y-226565980D02*
X295000644Y-226613600D01*
X295000644Y-226613600D02*
X294905406Y-226661219D01*
X294905406Y-226661219D02*
X294810168Y-226661219D01*
X294810168Y-226661219D02*
X294714930Y-226613600D01*
X294714930Y-226613600D02*
X294667311Y-226565980D01*
X294667311Y-226565980D02*
X294619692Y-226470742D01*
X294619692Y-226470742D02*
X294572073Y-226280266D01*
X294572073Y-226280266D02*
X294572073Y-226042171D01*
X294572073Y-226042171D02*
X294619692Y-225851695D01*
X294619692Y-225851695D02*
X294667311Y-225756457D01*
X294667311Y-225756457D02*
X294714930Y-225708838D01*
X294714930Y-225708838D02*
X294810168Y-225661219D01*
D11*
X138599654Y-132403768D02*
X138742511Y-132451387D01*
X138742511Y-132451387D02*
X138980606Y-132451387D01*
X138980606Y-132451387D02*
X139075844Y-132403768D01*
X139075844Y-132403768D02*
X139123463Y-132356148D01*
X139123463Y-132356148D02*
X139171082Y-132260910D01*
X139171082Y-132260910D02*
X139171082Y-132165672D01*
X139171082Y-132165672D02*
X139123463Y-132070434D01*
X139123463Y-132070434D02*
X139075844Y-132022815D01*
X139075844Y-132022815D02*
X138980606Y-131975196D01*
X138980606Y-131975196D02*
X138790130Y-131927577D01*
X138790130Y-131927577D02*
X138694892Y-131879958D01*
X138694892Y-131879958D02*
X138647273Y-131832339D01*
X138647273Y-131832339D02*
X138599654Y-131737101D01*
X138599654Y-131737101D02*
X138599654Y-131641863D01*
X138599654Y-131641863D02*
X138647273Y-131546625D01*
X138647273Y-131546625D02*
X138694892Y-131499006D01*
X138694892Y-131499006D02*
X138790130Y-131451387D01*
X138790130Y-131451387D02*
X139028225Y-131451387D01*
X139028225Y-131451387D02*
X139171082Y-131499006D01*
X140171082Y-132356148D02*
X140123463Y-132403768D01*
X140123463Y-132403768D02*
X139980606Y-132451387D01*
X139980606Y-132451387D02*
X139885368Y-132451387D01*
X139885368Y-132451387D02*
X139742511Y-132403768D01*
X139742511Y-132403768D02*
X139647273Y-132308529D01*
X139647273Y-132308529D02*
X139599654Y-132213291D01*
X139599654Y-132213291D02*
X139552035Y-132022815D01*
X139552035Y-132022815D02*
X139552035Y-131879958D01*
X139552035Y-131879958D02*
X139599654Y-131689482D01*
X139599654Y-131689482D02*
X139647273Y-131594244D01*
X139647273Y-131594244D02*
X139742511Y-131499006D01*
X139742511Y-131499006D02*
X139885368Y-131451387D01*
X139885368Y-131451387D02*
X139980606Y-131451387D01*
X139980606Y-131451387D02*
X140123463Y-131499006D01*
X140123463Y-131499006D02*
X140171082Y-131546625D01*
X141075844Y-132451387D02*
X140599654Y-132451387D01*
X140599654Y-132451387D02*
X140599654Y-131451387D01*
X138599654Y-134013712D02*
X138742511Y-134061331D01*
X138742511Y-134061331D02*
X138980606Y-134061331D01*
X138980606Y-134061331D02*
X139075844Y-134013712D01*
X139075844Y-134013712D02*
X139123463Y-133966092D01*
X139123463Y-133966092D02*
X139171082Y-133870854D01*
X139171082Y-133870854D02*
X139171082Y-133775616D01*
X139171082Y-133775616D02*
X139123463Y-133680378D01*
X139123463Y-133680378D02*
X139075844Y-133632759D01*
X139075844Y-133632759D02*
X138980606Y-133585140D01*
X138980606Y-133585140D02*
X138790130Y-133537521D01*
X138790130Y-133537521D02*
X138694892Y-133489902D01*
X138694892Y-133489902D02*
X138647273Y-133442283D01*
X138647273Y-133442283D02*
X138599654Y-133347045D01*
X138599654Y-133347045D02*
X138599654Y-133251807D01*
X138599654Y-133251807D02*
X138647273Y-133156569D01*
X138647273Y-133156569D02*
X138694892Y-133108950D01*
X138694892Y-133108950D02*
X138790130Y-133061331D01*
X138790130Y-133061331D02*
X139028225Y-133061331D01*
X139028225Y-133061331D02*
X139171082Y-133108950D01*
X139599654Y-134061331D02*
X139599654Y-133061331D01*
X139599654Y-133061331D02*
X139837749Y-133061331D01*
X139837749Y-133061331D02*
X139980606Y-133108950D01*
X139980606Y-133108950D02*
X140075844Y-133204188D01*
X140075844Y-133204188D02*
X140123463Y-133299426D01*
X140123463Y-133299426D02*
X140171082Y-133489902D01*
X140171082Y-133489902D02*
X140171082Y-133632759D01*
X140171082Y-133632759D02*
X140123463Y-133823235D01*
X140123463Y-133823235D02*
X140075844Y-133918473D01*
X140075844Y-133918473D02*
X139980606Y-134013712D01*
X139980606Y-134013712D02*
X139837749Y-134061331D01*
X139837749Y-134061331D02*
X139599654Y-134061331D01*
X140552035Y-133775616D02*
X141028225Y-133775616D01*
X140456797Y-134061331D02*
X140790130Y-133061331D01*
X140790130Y-133061331D02*
X141123463Y-134061331D01*
X139171082Y-134718894D02*
X139075844Y-134671275D01*
X139075844Y-134671275D02*
X138932987Y-134671275D01*
X138932987Y-134671275D02*
X138790130Y-134718894D01*
X138790130Y-134718894D02*
X138694892Y-134814132D01*
X138694892Y-134814132D02*
X138647273Y-134909370D01*
X138647273Y-134909370D02*
X138599654Y-135099846D01*
X138599654Y-135099846D02*
X138599654Y-135242703D01*
X138599654Y-135242703D02*
X138647273Y-135433179D01*
X138647273Y-135433179D02*
X138694892Y-135528417D01*
X138694892Y-135528417D02*
X138790130Y-135623656D01*
X138790130Y-135623656D02*
X138932987Y-135671275D01*
X138932987Y-135671275D02*
X139028225Y-135671275D01*
X139028225Y-135671275D02*
X139171082Y-135623656D01*
X139171082Y-135623656D02*
X139218701Y-135576036D01*
X139218701Y-135576036D02*
X139218701Y-135242703D01*
X139218701Y-135242703D02*
X139028225Y-135242703D01*
X139647273Y-135671275D02*
X139647273Y-134671275D01*
X139647273Y-134671275D02*
X140218701Y-135671275D01*
X140218701Y-135671275D02*
X140218701Y-134671275D01*
X140694892Y-135671275D02*
X140694892Y-134671275D01*
X140694892Y-134671275D02*
X140932987Y-134671275D01*
X140932987Y-134671275D02*
X141075844Y-134718894D01*
X141075844Y-134718894D02*
X141171082Y-134814132D01*
X141171082Y-134814132D02*
X141218701Y-134909370D01*
X141218701Y-134909370D02*
X141266320Y-135099846D01*
X141266320Y-135099846D02*
X141266320Y-135242703D01*
X141266320Y-135242703D02*
X141218701Y-135433179D01*
X141218701Y-135433179D02*
X141171082Y-135528417D01*
X141171082Y-135528417D02*
X141075844Y-135623656D01*
X141075844Y-135623656D02*
X140932987Y-135671275D01*
X140932987Y-135671275D02*
X140694892Y-135671275D01*
X138552035Y-136281219D02*
X139171082Y-136281219D01*
X139171082Y-136281219D02*
X138837749Y-136662171D01*
X138837749Y-136662171D02*
X138980606Y-136662171D01*
X138980606Y-136662171D02*
X139075844Y-136709790D01*
X139075844Y-136709790D02*
X139123463Y-136757409D01*
X139123463Y-136757409D02*
X139171082Y-136852647D01*
X139171082Y-136852647D02*
X139171082Y-137090742D01*
X139171082Y-137090742D02*
X139123463Y-137185980D01*
X139123463Y-137185980D02*
X139075844Y-137233600D01*
X139075844Y-137233600D02*
X138980606Y-137281219D01*
X138980606Y-137281219D02*
X138694892Y-137281219D01*
X138694892Y-137281219D02*
X138599654Y-137233600D01*
X138599654Y-137233600D02*
X138552035Y-137185980D01*
X139456797Y-136281219D02*
X139790130Y-137281219D01*
X139790130Y-137281219D02*
X140123463Y-136281219D01*
X140361559Y-136281219D02*
X140980606Y-136281219D01*
X140980606Y-136281219D02*
X140647273Y-136662171D01*
X140647273Y-136662171D02*
X140790130Y-136662171D01*
X140790130Y-136662171D02*
X140885368Y-136709790D01*
X140885368Y-136709790D02*
X140932987Y-136757409D01*
X140932987Y-136757409D02*
X140980606Y-136852647D01*
X140980606Y-136852647D02*
X140980606Y-137090742D01*
X140980606Y-137090742D02*
X140932987Y-137185980D01*
X140932987Y-137185980D02*
X140885368Y-137233600D01*
X140885368Y-137233600D02*
X140790130Y-137281219D01*
X140790130Y-137281219D02*
X140504416Y-137281219D01*
X140504416Y-137281219D02*
X140409178Y-137233600D01*
X140409178Y-137233600D02*
X140361559Y-137185980D01*
X136329463Y-189367219D02*
X135853273Y-189367219D01*
X135853273Y-189367219D02*
X135805654Y-189843409D01*
X135805654Y-189843409D02*
X135853273Y-189795790D01*
X135853273Y-189795790D02*
X135948511Y-189748171D01*
X135948511Y-189748171D02*
X136186606Y-189748171D01*
X136186606Y-189748171D02*
X136281844Y-189795790D01*
X136281844Y-189795790D02*
X136329463Y-189843409D01*
X136329463Y-189843409D02*
X136377082Y-189938647D01*
X136377082Y-189938647D02*
X136377082Y-190176742D01*
X136377082Y-190176742D02*
X136329463Y-190271980D01*
X136329463Y-190271980D02*
X136281844Y-190319600D01*
X136281844Y-190319600D02*
X136186606Y-190367219D01*
X136186606Y-190367219D02*
X135948511Y-190367219D01*
X135948511Y-190367219D02*
X135853273Y-190319600D01*
X135853273Y-190319600D02*
X135805654Y-190271980D01*
X136662797Y-189367219D02*
X136996130Y-190367219D01*
X136996130Y-190367219D02*
X137329463Y-189367219D01*
X136377082Y-196984038D02*
X136281844Y-196936419D01*
X136281844Y-196936419D02*
X136138987Y-196936419D01*
X136138987Y-196936419D02*
X135996130Y-196984038D01*
X135996130Y-196984038D02*
X135900892Y-197079276D01*
X135900892Y-197079276D02*
X135853273Y-197174514D01*
X135853273Y-197174514D02*
X135805654Y-197364990D01*
X135805654Y-197364990D02*
X135805654Y-197507847D01*
X135805654Y-197507847D02*
X135853273Y-197698323D01*
X135853273Y-197698323D02*
X135900892Y-197793561D01*
X135900892Y-197793561D02*
X135996130Y-197888800D01*
X135996130Y-197888800D02*
X136138987Y-197936419D01*
X136138987Y-197936419D02*
X136234225Y-197936419D01*
X136234225Y-197936419D02*
X136377082Y-197888800D01*
X136377082Y-197888800D02*
X136424701Y-197841180D01*
X136424701Y-197841180D02*
X136424701Y-197507847D01*
X136424701Y-197507847D02*
X136234225Y-197507847D01*
X136853273Y-197936419D02*
X136853273Y-196936419D01*
X136853273Y-196936419D02*
X137424701Y-197936419D01*
X137424701Y-197936419D02*
X137424701Y-196936419D01*
X137900892Y-197936419D02*
X137900892Y-196936419D01*
X137900892Y-196936419D02*
X138138987Y-196936419D01*
X138138987Y-196936419D02*
X138281844Y-196984038D01*
X138281844Y-196984038D02*
X138377082Y-197079276D01*
X138377082Y-197079276D02*
X138424701Y-197174514D01*
X138424701Y-197174514D02*
X138472320Y-197364990D01*
X138472320Y-197364990D02*
X138472320Y-197507847D01*
X138472320Y-197507847D02*
X138424701Y-197698323D01*
X138424701Y-197698323D02*
X138377082Y-197793561D01*
X138377082Y-197793561D02*
X138281844Y-197888800D01*
X138281844Y-197888800D02*
X138138987Y-197936419D01*
X138138987Y-197936419D02*
X137900892Y-197936419D01*
X135685016Y-191805619D02*
X136256444Y-191805619D01*
X135970730Y-192805619D02*
X135970730Y-191805619D01*
X136494540Y-191805619D02*
X137161206Y-192805619D01*
X137161206Y-191805619D02*
X136494540Y-192805619D01*
X137103635Y-111166908D02*
X137246492Y-111214527D01*
X137246492Y-111214527D02*
X137484587Y-111214527D01*
X137484587Y-111214527D02*
X137579825Y-111166908D01*
X137579825Y-111166908D02*
X137627444Y-111119288D01*
X137627444Y-111119288D02*
X137675063Y-111024050D01*
X137675063Y-111024050D02*
X137675063Y-110928812D01*
X137675063Y-110928812D02*
X137627444Y-110833574D01*
X137627444Y-110833574D02*
X137579825Y-110785955D01*
X137579825Y-110785955D02*
X137484587Y-110738336D01*
X137484587Y-110738336D02*
X137294111Y-110690717D01*
X137294111Y-110690717D02*
X137198873Y-110643098D01*
X137198873Y-110643098D02*
X137151254Y-110595479D01*
X137151254Y-110595479D02*
X137103635Y-110500241D01*
X137103635Y-110500241D02*
X137103635Y-110405003D01*
X137103635Y-110405003D02*
X137151254Y-110309765D01*
X137151254Y-110309765D02*
X137198873Y-110262146D01*
X137198873Y-110262146D02*
X137294111Y-110214527D01*
X137294111Y-110214527D02*
X137532206Y-110214527D01*
X137532206Y-110214527D02*
X137675063Y-110262146D01*
X138675063Y-111119288D02*
X138627444Y-111166908D01*
X138627444Y-111166908D02*
X138484587Y-111214527D01*
X138484587Y-111214527D02*
X138389349Y-111214527D01*
X138389349Y-111214527D02*
X138246492Y-111166908D01*
X138246492Y-111166908D02*
X138151254Y-111071669D01*
X138151254Y-111071669D02*
X138103635Y-110976431D01*
X138103635Y-110976431D02*
X138056016Y-110785955D01*
X138056016Y-110785955D02*
X138056016Y-110643098D01*
X138056016Y-110643098D02*
X138103635Y-110452622D01*
X138103635Y-110452622D02*
X138151254Y-110357384D01*
X138151254Y-110357384D02*
X138246492Y-110262146D01*
X138246492Y-110262146D02*
X138389349Y-110214527D01*
X138389349Y-110214527D02*
X138484587Y-110214527D01*
X138484587Y-110214527D02*
X138627444Y-110262146D01*
X138627444Y-110262146D02*
X138675063Y-110309765D01*
X139579825Y-111214527D02*
X139103635Y-111214527D01*
X139103635Y-111214527D02*
X139103635Y-110214527D01*
X137103635Y-112776852D02*
X137246492Y-112824471D01*
X137246492Y-112824471D02*
X137484587Y-112824471D01*
X137484587Y-112824471D02*
X137579825Y-112776852D01*
X137579825Y-112776852D02*
X137627444Y-112729232D01*
X137627444Y-112729232D02*
X137675063Y-112633994D01*
X137675063Y-112633994D02*
X137675063Y-112538756D01*
X137675063Y-112538756D02*
X137627444Y-112443518D01*
X137627444Y-112443518D02*
X137579825Y-112395899D01*
X137579825Y-112395899D02*
X137484587Y-112348280D01*
X137484587Y-112348280D02*
X137294111Y-112300661D01*
X137294111Y-112300661D02*
X137198873Y-112253042D01*
X137198873Y-112253042D02*
X137151254Y-112205423D01*
X137151254Y-112205423D02*
X137103635Y-112110185D01*
X137103635Y-112110185D02*
X137103635Y-112014947D01*
X137103635Y-112014947D02*
X137151254Y-111919709D01*
X137151254Y-111919709D02*
X137198873Y-111872090D01*
X137198873Y-111872090D02*
X137294111Y-111824471D01*
X137294111Y-111824471D02*
X137532206Y-111824471D01*
X137532206Y-111824471D02*
X137675063Y-111872090D01*
X138103635Y-112824471D02*
X138103635Y-111824471D01*
X138103635Y-111824471D02*
X138341730Y-111824471D01*
X138341730Y-111824471D02*
X138484587Y-111872090D01*
X138484587Y-111872090D02*
X138579825Y-111967328D01*
X138579825Y-111967328D02*
X138627444Y-112062566D01*
X138627444Y-112062566D02*
X138675063Y-112253042D01*
X138675063Y-112253042D02*
X138675063Y-112395899D01*
X138675063Y-112395899D02*
X138627444Y-112586375D01*
X138627444Y-112586375D02*
X138579825Y-112681613D01*
X138579825Y-112681613D02*
X138484587Y-112776852D01*
X138484587Y-112776852D02*
X138341730Y-112824471D01*
X138341730Y-112824471D02*
X138103635Y-112824471D01*
X139056016Y-112538756D02*
X139532206Y-112538756D01*
X138960778Y-112824471D02*
X139294111Y-111824471D01*
X139294111Y-111824471D02*
X139627444Y-112824471D01*
X137675063Y-113482034D02*
X137579825Y-113434415D01*
X137579825Y-113434415D02*
X137436968Y-113434415D01*
X137436968Y-113434415D02*
X137294111Y-113482034D01*
X137294111Y-113482034D02*
X137198873Y-113577272D01*
X137198873Y-113577272D02*
X137151254Y-113672510D01*
X137151254Y-113672510D02*
X137103635Y-113862986D01*
X137103635Y-113862986D02*
X137103635Y-114005843D01*
X137103635Y-114005843D02*
X137151254Y-114196319D01*
X137151254Y-114196319D02*
X137198873Y-114291557D01*
X137198873Y-114291557D02*
X137294111Y-114386796D01*
X137294111Y-114386796D02*
X137436968Y-114434415D01*
X137436968Y-114434415D02*
X137532206Y-114434415D01*
X137532206Y-114434415D02*
X137675063Y-114386796D01*
X137675063Y-114386796D02*
X137722682Y-114339176D01*
X137722682Y-114339176D02*
X137722682Y-114005843D01*
X137722682Y-114005843D02*
X137532206Y-114005843D01*
X138151254Y-114434415D02*
X138151254Y-113434415D01*
X138151254Y-113434415D02*
X138722682Y-114434415D01*
X138722682Y-114434415D02*
X138722682Y-113434415D01*
X139198873Y-114434415D02*
X139198873Y-113434415D01*
X139198873Y-113434415D02*
X139436968Y-113434415D01*
X139436968Y-113434415D02*
X139579825Y-113482034D01*
X139579825Y-113482034D02*
X139675063Y-113577272D01*
X139675063Y-113577272D02*
X139722682Y-113672510D01*
X139722682Y-113672510D02*
X139770301Y-113862986D01*
X139770301Y-113862986D02*
X139770301Y-114005843D01*
X139770301Y-114005843D02*
X139722682Y-114196319D01*
X139722682Y-114196319D02*
X139675063Y-114291557D01*
X139675063Y-114291557D02*
X139579825Y-114386796D01*
X139579825Y-114386796D02*
X139436968Y-114434415D01*
X139436968Y-114434415D02*
X139198873Y-114434415D01*
X137056016Y-115044359D02*
X137675063Y-115044359D01*
X137675063Y-115044359D02*
X137341730Y-115425311D01*
X137341730Y-115425311D02*
X137484587Y-115425311D01*
X137484587Y-115425311D02*
X137579825Y-115472930D01*
X137579825Y-115472930D02*
X137627444Y-115520549D01*
X137627444Y-115520549D02*
X137675063Y-115615787D01*
X137675063Y-115615787D02*
X137675063Y-115853882D01*
X137675063Y-115853882D02*
X137627444Y-115949120D01*
X137627444Y-115949120D02*
X137579825Y-115996740D01*
X137579825Y-115996740D02*
X137484587Y-116044359D01*
X137484587Y-116044359D02*
X137198873Y-116044359D01*
X137198873Y-116044359D02*
X137103635Y-115996740D01*
X137103635Y-115996740D02*
X137056016Y-115949120D01*
X137960778Y-115044359D02*
X138294111Y-116044359D01*
X138294111Y-116044359D02*
X138627444Y-115044359D01*
X138865540Y-115044359D02*
X139484587Y-115044359D01*
X139484587Y-115044359D02*
X139151254Y-115425311D01*
X139151254Y-115425311D02*
X139294111Y-115425311D01*
X139294111Y-115425311D02*
X139389349Y-115472930D01*
X139389349Y-115472930D02*
X139436968Y-115520549D01*
X139436968Y-115520549D02*
X139484587Y-115615787D01*
X139484587Y-115615787D02*
X139484587Y-115853882D01*
X139484587Y-115853882D02*
X139436968Y-115949120D01*
X139436968Y-115949120D02*
X139389349Y-115996740D01*
X139389349Y-115996740D02*
X139294111Y-116044359D01*
X139294111Y-116044359D02*
X139008397Y-116044359D01*
X139008397Y-116044359D02*
X138913159Y-115996740D01*
X138913159Y-115996740D02*
X138865540Y-115949120D01*
D12*
X132810318Y-134973132D02*
X133717461Y-134973132D01*
X133717461Y-134973132D02*
X133898889Y-135033609D01*
X133898889Y-135033609D02*
X134019842Y-135154561D01*
X134019842Y-135154561D02*
X134080318Y-135335990D01*
X134080318Y-135335990D02*
X134080318Y-135456942D01*
X132810318Y-133824085D02*
X132810318Y-134065990D01*
X132810318Y-134065990D02*
X132870794Y-134186942D01*
X132870794Y-134186942D02*
X132931270Y-134247418D01*
X132931270Y-134247418D02*
X133112699Y-134368371D01*
X133112699Y-134368371D02*
X133354603Y-134428847D01*
X133354603Y-134428847D02*
X133838413Y-134428847D01*
X133838413Y-134428847D02*
X133959365Y-134368371D01*
X133959365Y-134368371D02*
X134019842Y-134307894D01*
X134019842Y-134307894D02*
X134080318Y-134186942D01*
X134080318Y-134186942D02*
X134080318Y-133945037D01*
X134080318Y-133945037D02*
X134019842Y-133824085D01*
X134019842Y-133824085D02*
X133959365Y-133763609D01*
X133959365Y-133763609D02*
X133838413Y-133703132D01*
X133838413Y-133703132D02*
X133536032Y-133703132D01*
X133536032Y-133703132D02*
X133415080Y-133763609D01*
X133415080Y-133763609D02*
X133354603Y-133824085D01*
X133354603Y-133824085D02*
X133294127Y-133945037D01*
X133294127Y-133945037D02*
X133294127Y-134186942D01*
X133294127Y-134186942D02*
X133354603Y-134307894D01*
X133354603Y-134307894D02*
X133415080Y-134368371D01*
X133415080Y-134368371D02*
X133536032Y-134428847D01*
X143229415Y-113722134D02*
X144136558Y-113722134D01*
X144136558Y-113722134D02*
X144317986Y-113782611D01*
X144317986Y-113782611D02*
X144438939Y-113903563D01*
X144438939Y-113903563D02*
X144499415Y-114084992D01*
X144499415Y-114084992D02*
X144499415Y-114205944D01*
X143773700Y-112935944D02*
X143713224Y-113056896D01*
X143713224Y-113056896D02*
X143652748Y-113117373D01*
X143652748Y-113117373D02*
X143531796Y-113177849D01*
X143531796Y-113177849D02*
X143471319Y-113177849D01*
X143471319Y-113177849D02*
X143350367Y-113117373D01*
X143350367Y-113117373D02*
X143289891Y-113056896D01*
X143289891Y-113056896D02*
X143229415Y-112935944D01*
X143229415Y-112935944D02*
X143229415Y-112694039D01*
X143229415Y-112694039D02*
X143289891Y-112573087D01*
X143289891Y-112573087D02*
X143350367Y-112512611D01*
X143350367Y-112512611D02*
X143471319Y-112452134D01*
X143471319Y-112452134D02*
X143531796Y-112452134D01*
X143531796Y-112452134D02*
X143652748Y-112512611D01*
X143652748Y-112512611D02*
X143713224Y-112573087D01*
X143713224Y-112573087D02*
X143773700Y-112694039D01*
X143773700Y-112694039D02*
X143773700Y-112935944D01*
X143773700Y-112935944D02*
X143834177Y-113056896D01*
X143834177Y-113056896D02*
X143894653Y-113117373D01*
X143894653Y-113117373D02*
X144015605Y-113177849D01*
X144015605Y-113177849D02*
X144257510Y-113177849D01*
X144257510Y-113177849D02*
X144378462Y-113117373D01*
X144378462Y-113117373D02*
X144438939Y-113056896D01*
X144438939Y-113056896D02*
X144499415Y-112935944D01*
X144499415Y-112935944D02*
X144499415Y-112694039D01*
X144499415Y-112694039D02*
X144438939Y-112573087D01*
X144438939Y-112573087D02*
X144378462Y-112512611D01*
X144378462Y-112512611D02*
X144257510Y-112452134D01*
X144257510Y-112452134D02*
X144015605Y-112452134D01*
X144015605Y-112452134D02*
X143894653Y-112512611D01*
X143894653Y-112512611D02*
X143834177Y-112573087D01*
X143834177Y-112573087D02*
X143773700Y-112694039D01*
%TO.C,J10*%
D13*
X219280133Y-119423723D02*
X220346933Y-119423723D01*
X220346933Y-117391723D01*
X219280133Y-117391723D01*
X219280133Y-119423723D01*
%TO.C,J9*%
X174042125Y-119378455D02*
X175108925Y-119378455D01*
X175108925Y-117346455D01*
X174042125Y-117346455D01*
X174042125Y-119378455D01*
%TO.C,J6*%
X130294000Y-136049800D02*
X130294000Y-136049800D01*
X130394000Y-136049800D02*
X130394000Y-136049800D01*
D11*
X131831000Y-131549800D02*
X131831000Y-132349800D01*
X131831000Y-137549800D02*
X131831000Y-136749800D01*
X134194000Y-131549800D02*
X131831000Y-131549800D01*
X134194000Y-137549800D02*
X131831000Y-137549800D01*
D13*
X130294000Y-136049800D02*
G75*
G02*
X130394000Y-136049800I50000J0D01*
G01*
X130394000Y-136049800D02*
G75*
G02*
X130294000Y-136049800I-50000J0D01*
G01*
%TO.C,J11*%
X264545162Y-119245192D02*
X265611962Y-119245192D01*
X265611962Y-117213192D01*
X264545162Y-117213192D01*
X264545162Y-119245192D01*
%TO.C,J3*%
X174040800Y-122656600D02*
X175107600Y-122656600D01*
X175107600Y-120624600D01*
X174040800Y-120624600D01*
X174040800Y-122656600D01*
%TO.C,J8*%
X140713097Y-114798802D02*
X140713097Y-114798802D01*
X140813097Y-114798802D02*
X140813097Y-114798802D01*
D11*
X142250097Y-110298802D02*
X142250097Y-111098802D01*
X142250097Y-116298802D02*
X142250097Y-115498802D01*
X144613097Y-110298802D02*
X142250097Y-110298802D01*
X144613097Y-116298802D02*
X142250097Y-116298802D01*
D13*
X140713097Y-114798802D02*
G75*
G02*
X140813097Y-114798802I50000J0D01*
G01*
X140813097Y-114798802D02*
G75*
G02*
X140713097Y-114798802I-50000J0D01*
G01*
%TO.C,J4*%
X219252800Y-122732800D02*
X220319600Y-122732800D01*
X220319600Y-120700800D01*
X219252800Y-120700800D01*
X219252800Y-122732800D01*
%TO.C,J7*%
X264566400Y-122682000D02*
X265633200Y-122682000D01*
X265633200Y-120650000D01*
X264566400Y-120650000D01*
X264566400Y-122682000D01*
%TD*%
M02*
