%TF.GenerationSoftware,KiCad,Pcbnew,8.0.9*%
%TF.CreationDate,2025-09-12T10:49:12+02:00*%
%TF.ProjectId,iot_weatherstation_full_vcut,696f745f-7765-4617-9468-657273746174,rev?*%
%TF.SameCoordinates,Original*%
%TF.FileFunction,Drillmap*%
%TF.FilePolarity,Positive*%
%FSLAX45Y45*%
G04 Gerber Fmt 4.5, Leading zero omitted, Abs format (unit mm)*
G04 Created by KiCad (PCBNEW 8.0.9) date 2025-09-12 10:49:12*
%MOMM*%
%LPD*%
G01*
G04 APERTURE LIST*
%ADD10C,0.050000*%
%ADD11C,0.200000*%
%ADD12C,0.320000*%
G04 APERTURE END LIST*
D10*
X12931140Y-22804040D02*
X31031140Y-22804040D01*
X31031438Y-10573774D02*
X12931438Y-10573774D01*
X31031140Y-22804040D02*
X31031438Y-10573774D01*
X12931438Y-10573774D02*
X12931140Y-22804040D01*
D11*
D12*
X13071000Y-12147000D02*
X13391000Y-12467000D01*
X13391000Y-12147000D02*
X13071000Y-12467000D01*
X13071000Y-22347000D02*
X13391000Y-22667000D01*
X13391000Y-22347000D02*
X13071000Y-22667000D01*
X30571000Y-12147000D02*
X30891000Y-12467000D01*
X30891000Y-12147000D02*
X30571000Y-12467000D01*
X30571000Y-22347000D02*
X30891000Y-22667000D01*
X30891000Y-22347000D02*
X30571000Y-22667000D01*
D11*
X13189417Y-23118024D02*
X13189417Y-22918024D01*
X13189417Y-22918024D02*
X13237036Y-22918024D01*
X13237036Y-22918024D02*
X13265607Y-22927548D01*
X13265607Y-22927548D02*
X13284655Y-22946595D01*
X13284655Y-22946595D02*
X13294179Y-22965643D01*
X13294179Y-22965643D02*
X13303702Y-23003738D01*
X13303702Y-23003738D02*
X13303702Y-23032309D01*
X13303702Y-23032309D02*
X13294179Y-23070405D01*
X13294179Y-23070405D02*
X13284655Y-23089452D01*
X13284655Y-23089452D02*
X13265607Y-23108500D01*
X13265607Y-23108500D02*
X13237036Y-23118024D01*
X13237036Y-23118024D02*
X13189417Y-23118024D01*
X13389417Y-23118024D02*
X13389417Y-22984690D01*
X13389417Y-23022786D02*
X13398941Y-23003738D01*
X13398941Y-23003738D02*
X13408464Y-22994214D01*
X13408464Y-22994214D02*
X13427512Y-22984690D01*
X13427512Y-22984690D02*
X13446560Y-22984690D01*
X13513226Y-23118024D02*
X13513226Y-22984690D01*
X13513226Y-22918024D02*
X13503702Y-22927548D01*
X13503702Y-22927548D02*
X13513226Y-22937071D01*
X13513226Y-22937071D02*
X13522750Y-22927548D01*
X13522750Y-22927548D02*
X13513226Y-22918024D01*
X13513226Y-22918024D02*
X13513226Y-22937071D01*
X13637036Y-23118024D02*
X13617988Y-23108500D01*
X13617988Y-23108500D02*
X13608464Y-23089452D01*
X13608464Y-23089452D02*
X13608464Y-22918024D01*
X13741798Y-23118024D02*
X13722750Y-23108500D01*
X13722750Y-23108500D02*
X13713226Y-23089452D01*
X13713226Y-23089452D02*
X13713226Y-22918024D01*
X13970369Y-23118024D02*
X13970369Y-22918024D01*
X13970369Y-22918024D02*
X14037036Y-23060881D01*
X14037036Y-23060881D02*
X14103702Y-22918024D01*
X14103702Y-22918024D02*
X14103702Y-23118024D01*
X14284655Y-23118024D02*
X14284655Y-23013262D01*
X14284655Y-23013262D02*
X14275131Y-22994214D01*
X14275131Y-22994214D02*
X14256083Y-22984690D01*
X14256083Y-22984690D02*
X14217988Y-22984690D01*
X14217988Y-22984690D02*
X14198941Y-22994214D01*
X14284655Y-23108500D02*
X14265607Y-23118024D01*
X14265607Y-23118024D02*
X14217988Y-23118024D01*
X14217988Y-23118024D02*
X14198941Y-23108500D01*
X14198941Y-23108500D02*
X14189417Y-23089452D01*
X14189417Y-23089452D02*
X14189417Y-23070405D01*
X14189417Y-23070405D02*
X14198941Y-23051357D01*
X14198941Y-23051357D02*
X14217988Y-23041833D01*
X14217988Y-23041833D02*
X14265607Y-23041833D01*
X14265607Y-23041833D02*
X14284655Y-23032309D01*
X14379893Y-22984690D02*
X14379893Y-23184690D01*
X14379893Y-22994214D02*
X14398941Y-22984690D01*
X14398941Y-22984690D02*
X14437036Y-22984690D01*
X14437036Y-22984690D02*
X14456083Y-22994214D01*
X14456083Y-22994214D02*
X14465607Y-23003738D01*
X14465607Y-23003738D02*
X14475131Y-23022786D01*
X14475131Y-23022786D02*
X14475131Y-23079928D01*
X14475131Y-23079928D02*
X14465607Y-23098976D01*
X14465607Y-23098976D02*
X14456083Y-23108500D01*
X14456083Y-23108500D02*
X14437036Y-23118024D01*
X14437036Y-23118024D02*
X14398941Y-23118024D01*
X14398941Y-23118024D02*
X14379893Y-23108500D01*
X14560845Y-23098976D02*
X14570369Y-23108500D01*
X14570369Y-23108500D02*
X14560845Y-23118024D01*
X14560845Y-23118024D02*
X14551322Y-23108500D01*
X14551322Y-23108500D02*
X14560845Y-23098976D01*
X14560845Y-23098976D02*
X14560845Y-23118024D01*
X14560845Y-22994214D02*
X14570369Y-23003738D01*
X14570369Y-23003738D02*
X14560845Y-23013262D01*
X14560845Y-23013262D02*
X14551322Y-23003738D01*
X14551322Y-23003738D02*
X14560845Y-22994214D01*
X14560845Y-22994214D02*
X14560845Y-23013262D01*
X12728640Y-23346540D02*
X12928640Y-23546540D01*
X12928640Y-23346540D02*
X12728640Y-23546540D01*
X13170369Y-23338024D02*
X13294179Y-23338024D01*
X13294179Y-23338024D02*
X13227512Y-23414214D01*
X13227512Y-23414214D02*
X13256083Y-23414214D01*
X13256083Y-23414214D02*
X13275131Y-23423738D01*
X13275131Y-23423738D02*
X13284655Y-23433262D01*
X13284655Y-23433262D02*
X13294179Y-23452309D01*
X13294179Y-23452309D02*
X13294179Y-23499928D01*
X13294179Y-23499928D02*
X13284655Y-23518976D01*
X13284655Y-23518976D02*
X13275131Y-23528500D01*
X13275131Y-23528500D02*
X13256083Y-23538024D01*
X13256083Y-23538024D02*
X13198941Y-23538024D01*
X13198941Y-23538024D02*
X13179893Y-23528500D01*
X13179893Y-23528500D02*
X13170369Y-23518976D01*
X13379893Y-23518976D02*
X13389417Y-23528500D01*
X13389417Y-23528500D02*
X13379893Y-23538024D01*
X13379893Y-23538024D02*
X13370369Y-23528500D01*
X13370369Y-23528500D02*
X13379893Y-23518976D01*
X13379893Y-23518976D02*
X13379893Y-23538024D01*
X13465607Y-23357071D02*
X13475131Y-23347548D01*
X13475131Y-23347548D02*
X13494179Y-23338024D01*
X13494179Y-23338024D02*
X13541798Y-23338024D01*
X13541798Y-23338024D02*
X13560845Y-23347548D01*
X13560845Y-23347548D02*
X13570369Y-23357071D01*
X13570369Y-23357071D02*
X13579893Y-23376119D01*
X13579893Y-23376119D02*
X13579893Y-23395167D01*
X13579893Y-23395167D02*
X13570369Y-23423738D01*
X13570369Y-23423738D02*
X13456083Y-23538024D01*
X13456083Y-23538024D02*
X13579893Y-23538024D01*
X13703702Y-23338024D02*
X13722750Y-23338024D01*
X13722750Y-23338024D02*
X13741798Y-23347548D01*
X13741798Y-23347548D02*
X13751322Y-23357071D01*
X13751322Y-23357071D02*
X13760845Y-23376119D01*
X13760845Y-23376119D02*
X13770369Y-23414214D01*
X13770369Y-23414214D02*
X13770369Y-23461833D01*
X13770369Y-23461833D02*
X13760845Y-23499928D01*
X13760845Y-23499928D02*
X13751322Y-23518976D01*
X13751322Y-23518976D02*
X13741798Y-23528500D01*
X13741798Y-23528500D02*
X13722750Y-23538024D01*
X13722750Y-23538024D02*
X13703702Y-23538024D01*
X13703702Y-23538024D02*
X13684655Y-23528500D01*
X13684655Y-23528500D02*
X13675131Y-23518976D01*
X13675131Y-23518976D02*
X13665607Y-23499928D01*
X13665607Y-23499928D02*
X13656083Y-23461833D01*
X13656083Y-23461833D02*
X13656083Y-23414214D01*
X13656083Y-23414214D02*
X13665607Y-23376119D01*
X13665607Y-23376119D02*
X13675131Y-23357071D01*
X13675131Y-23357071D02*
X13684655Y-23347548D01*
X13684655Y-23347548D02*
X13703702Y-23338024D01*
X13894179Y-23338024D02*
X13913226Y-23338024D01*
X13913226Y-23338024D02*
X13932274Y-23347548D01*
X13932274Y-23347548D02*
X13941798Y-23357071D01*
X13941798Y-23357071D02*
X13951322Y-23376119D01*
X13951322Y-23376119D02*
X13960845Y-23414214D01*
X13960845Y-23414214D02*
X13960845Y-23461833D01*
X13960845Y-23461833D02*
X13951322Y-23499928D01*
X13951322Y-23499928D02*
X13941798Y-23518976D01*
X13941798Y-23518976D02*
X13932274Y-23528500D01*
X13932274Y-23528500D02*
X13913226Y-23538024D01*
X13913226Y-23538024D02*
X13894179Y-23538024D01*
X13894179Y-23538024D02*
X13875131Y-23528500D01*
X13875131Y-23528500D02*
X13865607Y-23518976D01*
X13865607Y-23518976D02*
X13856083Y-23499928D01*
X13856083Y-23499928D02*
X13846560Y-23461833D01*
X13846560Y-23461833D02*
X13846560Y-23414214D01*
X13846560Y-23414214D02*
X13856083Y-23376119D01*
X13856083Y-23376119D02*
X13865607Y-23357071D01*
X13865607Y-23357071D02*
X13875131Y-23347548D01*
X13875131Y-23347548D02*
X13894179Y-23338024D01*
X14046560Y-23538024D02*
X14046560Y-23404690D01*
X14046560Y-23423738D02*
X14056083Y-23414214D01*
X14056083Y-23414214D02*
X14075131Y-23404690D01*
X14075131Y-23404690D02*
X14103703Y-23404690D01*
X14103703Y-23404690D02*
X14122750Y-23414214D01*
X14122750Y-23414214D02*
X14132274Y-23433262D01*
X14132274Y-23433262D02*
X14132274Y-23538024D01*
X14132274Y-23433262D02*
X14141798Y-23414214D01*
X14141798Y-23414214D02*
X14160845Y-23404690D01*
X14160845Y-23404690D02*
X14189417Y-23404690D01*
X14189417Y-23404690D02*
X14208464Y-23414214D01*
X14208464Y-23414214D02*
X14217988Y-23433262D01*
X14217988Y-23433262D02*
X14217988Y-23538024D01*
X14313226Y-23538024D02*
X14313226Y-23404690D01*
X14313226Y-23423738D02*
X14322750Y-23414214D01*
X14322750Y-23414214D02*
X14341798Y-23404690D01*
X14341798Y-23404690D02*
X14370369Y-23404690D01*
X14370369Y-23404690D02*
X14389417Y-23414214D01*
X14389417Y-23414214D02*
X14398941Y-23433262D01*
X14398941Y-23433262D02*
X14398941Y-23538024D01*
X14398941Y-23433262D02*
X14408464Y-23414214D01*
X14408464Y-23414214D02*
X14427512Y-23404690D01*
X14427512Y-23404690D02*
X14456083Y-23404690D01*
X14456083Y-23404690D02*
X14475131Y-23414214D01*
X14475131Y-23414214D02*
X14484655Y-23433262D01*
X14484655Y-23433262D02*
X14484655Y-23538024D01*
X14875131Y-23328500D02*
X14703703Y-23585643D01*
X15132274Y-23338024D02*
X15151322Y-23338024D01*
X15151322Y-23338024D02*
X15170369Y-23347548D01*
X15170369Y-23347548D02*
X15179893Y-23357071D01*
X15179893Y-23357071D02*
X15189417Y-23376119D01*
X15189417Y-23376119D02*
X15198941Y-23414214D01*
X15198941Y-23414214D02*
X15198941Y-23461833D01*
X15198941Y-23461833D02*
X15189417Y-23499928D01*
X15189417Y-23499928D02*
X15179893Y-23518976D01*
X15179893Y-23518976D02*
X15170369Y-23528500D01*
X15170369Y-23528500D02*
X15151322Y-23538024D01*
X15151322Y-23538024D02*
X15132274Y-23538024D01*
X15132274Y-23538024D02*
X15113226Y-23528500D01*
X15113226Y-23528500D02*
X15103703Y-23518976D01*
X15103703Y-23518976D02*
X15094179Y-23499928D01*
X15094179Y-23499928D02*
X15084655Y-23461833D01*
X15084655Y-23461833D02*
X15084655Y-23414214D01*
X15084655Y-23414214D02*
X15094179Y-23376119D01*
X15094179Y-23376119D02*
X15103703Y-23357071D01*
X15103703Y-23357071D02*
X15113226Y-23347548D01*
X15113226Y-23347548D02*
X15132274Y-23338024D01*
X15284655Y-23518976D02*
X15294179Y-23528500D01*
X15294179Y-23528500D02*
X15284655Y-23538024D01*
X15284655Y-23538024D02*
X15275131Y-23528500D01*
X15275131Y-23528500D02*
X15284655Y-23518976D01*
X15284655Y-23518976D02*
X15284655Y-23538024D01*
X15484655Y-23538024D02*
X15370369Y-23538024D01*
X15427512Y-23538024D02*
X15427512Y-23338024D01*
X15427512Y-23338024D02*
X15408465Y-23366595D01*
X15408465Y-23366595D02*
X15389417Y-23385643D01*
X15389417Y-23385643D02*
X15370369Y-23395167D01*
X15560846Y-23357071D02*
X15570369Y-23347548D01*
X15570369Y-23347548D02*
X15589417Y-23338024D01*
X15589417Y-23338024D02*
X15637036Y-23338024D01*
X15637036Y-23338024D02*
X15656084Y-23347548D01*
X15656084Y-23347548D02*
X15665607Y-23357071D01*
X15665607Y-23357071D02*
X15675131Y-23376119D01*
X15675131Y-23376119D02*
X15675131Y-23395167D01*
X15675131Y-23395167D02*
X15665607Y-23423738D01*
X15665607Y-23423738D02*
X15551322Y-23538024D01*
X15551322Y-23538024D02*
X15675131Y-23538024D01*
X15846560Y-23338024D02*
X15808465Y-23338024D01*
X15808465Y-23338024D02*
X15789417Y-23347548D01*
X15789417Y-23347548D02*
X15779893Y-23357071D01*
X15779893Y-23357071D02*
X15760846Y-23385643D01*
X15760846Y-23385643D02*
X15751322Y-23423738D01*
X15751322Y-23423738D02*
X15751322Y-23499928D01*
X15751322Y-23499928D02*
X15760846Y-23518976D01*
X15760846Y-23518976D02*
X15770369Y-23528500D01*
X15770369Y-23528500D02*
X15789417Y-23538024D01*
X15789417Y-23538024D02*
X15827512Y-23538024D01*
X15827512Y-23538024D02*
X15846560Y-23528500D01*
X15846560Y-23528500D02*
X15856084Y-23518976D01*
X15856084Y-23518976D02*
X15865607Y-23499928D01*
X15865607Y-23499928D02*
X15865607Y-23452309D01*
X15865607Y-23452309D02*
X15856084Y-23433262D01*
X15856084Y-23433262D02*
X15846560Y-23423738D01*
X15846560Y-23423738D02*
X15827512Y-23414214D01*
X15827512Y-23414214D02*
X15789417Y-23414214D01*
X15789417Y-23414214D02*
X15770369Y-23423738D01*
X15770369Y-23423738D02*
X15760846Y-23433262D01*
X15760846Y-23433262D02*
X15751322Y-23452309D01*
X15989417Y-23338024D02*
X16008465Y-23338024D01*
X16008465Y-23338024D02*
X16027512Y-23347548D01*
X16027512Y-23347548D02*
X16037036Y-23357071D01*
X16037036Y-23357071D02*
X16046560Y-23376119D01*
X16046560Y-23376119D02*
X16056084Y-23414214D01*
X16056084Y-23414214D02*
X16056084Y-23461833D01*
X16056084Y-23461833D02*
X16046560Y-23499928D01*
X16046560Y-23499928D02*
X16037036Y-23518976D01*
X16037036Y-23518976D02*
X16027512Y-23528500D01*
X16027512Y-23528500D02*
X16008465Y-23538024D01*
X16008465Y-23538024D02*
X15989417Y-23538024D01*
X15989417Y-23538024D02*
X15970369Y-23528500D01*
X15970369Y-23528500D02*
X15960846Y-23518976D01*
X15960846Y-23518976D02*
X15951322Y-23499928D01*
X15951322Y-23499928D02*
X15941798Y-23461833D01*
X15941798Y-23461833D02*
X15941798Y-23414214D01*
X15941798Y-23414214D02*
X15951322Y-23376119D01*
X15951322Y-23376119D02*
X15960846Y-23357071D01*
X15960846Y-23357071D02*
X15970369Y-23347548D01*
X15970369Y-23347548D02*
X15989417Y-23338024D01*
X16132274Y-23338024D02*
X16132274Y-23376119D01*
X16208465Y-23338024D02*
X16208465Y-23376119D01*
X16503703Y-23614214D02*
X16494179Y-23604690D01*
X16494179Y-23604690D02*
X16475131Y-23576119D01*
X16475131Y-23576119D02*
X16465608Y-23557071D01*
X16465608Y-23557071D02*
X16456084Y-23528500D01*
X16456084Y-23528500D02*
X16446560Y-23480881D01*
X16446560Y-23480881D02*
X16446560Y-23442786D01*
X16446560Y-23442786D02*
X16456084Y-23395167D01*
X16456084Y-23395167D02*
X16465608Y-23366595D01*
X16465608Y-23366595D02*
X16475131Y-23347548D01*
X16475131Y-23347548D02*
X16494179Y-23318976D01*
X16494179Y-23318976D02*
X16503703Y-23309452D01*
X16665608Y-23404690D02*
X16665608Y-23538024D01*
X16617988Y-23328500D02*
X16570369Y-23471357D01*
X16570369Y-23471357D02*
X16694179Y-23471357D01*
X16922751Y-23538024D02*
X16922751Y-23338024D01*
X17008465Y-23538024D02*
X17008465Y-23433262D01*
X17008465Y-23433262D02*
X16998941Y-23414214D01*
X16998941Y-23414214D02*
X16979893Y-23404690D01*
X16979893Y-23404690D02*
X16951322Y-23404690D01*
X16951322Y-23404690D02*
X16932274Y-23414214D01*
X16932274Y-23414214D02*
X16922751Y-23423738D01*
X17132274Y-23538024D02*
X17113227Y-23528500D01*
X17113227Y-23528500D02*
X17103703Y-23518976D01*
X17103703Y-23518976D02*
X17094179Y-23499928D01*
X17094179Y-23499928D02*
X17094179Y-23442786D01*
X17094179Y-23442786D02*
X17103703Y-23423738D01*
X17103703Y-23423738D02*
X17113227Y-23414214D01*
X17113227Y-23414214D02*
X17132274Y-23404690D01*
X17132274Y-23404690D02*
X17160846Y-23404690D01*
X17160846Y-23404690D02*
X17179893Y-23414214D01*
X17179893Y-23414214D02*
X17189417Y-23423738D01*
X17189417Y-23423738D02*
X17198941Y-23442786D01*
X17198941Y-23442786D02*
X17198941Y-23499928D01*
X17198941Y-23499928D02*
X17189417Y-23518976D01*
X17189417Y-23518976D02*
X17179893Y-23528500D01*
X17179893Y-23528500D02*
X17160846Y-23538024D01*
X17160846Y-23538024D02*
X17132274Y-23538024D01*
X17313227Y-23538024D02*
X17294179Y-23528500D01*
X17294179Y-23528500D02*
X17284655Y-23509452D01*
X17284655Y-23509452D02*
X17284655Y-23338024D01*
X17465608Y-23528500D02*
X17446560Y-23538024D01*
X17446560Y-23538024D02*
X17408465Y-23538024D01*
X17408465Y-23538024D02*
X17389417Y-23528500D01*
X17389417Y-23528500D02*
X17379893Y-23509452D01*
X17379893Y-23509452D02*
X17379893Y-23433262D01*
X17379893Y-23433262D02*
X17389417Y-23414214D01*
X17389417Y-23414214D02*
X17408465Y-23404690D01*
X17408465Y-23404690D02*
X17446560Y-23404690D01*
X17446560Y-23404690D02*
X17465608Y-23414214D01*
X17465608Y-23414214D02*
X17475132Y-23433262D01*
X17475132Y-23433262D02*
X17475132Y-23452309D01*
X17475132Y-23452309D02*
X17379893Y-23471357D01*
X17551322Y-23528500D02*
X17570370Y-23538024D01*
X17570370Y-23538024D02*
X17608465Y-23538024D01*
X17608465Y-23538024D02*
X17627513Y-23528500D01*
X17627513Y-23528500D02*
X17637036Y-23509452D01*
X17637036Y-23509452D02*
X17637036Y-23499928D01*
X17637036Y-23499928D02*
X17627513Y-23480881D01*
X17627513Y-23480881D02*
X17608465Y-23471357D01*
X17608465Y-23471357D02*
X17579893Y-23471357D01*
X17579893Y-23471357D02*
X17560846Y-23461833D01*
X17560846Y-23461833D02*
X17551322Y-23442786D01*
X17551322Y-23442786D02*
X17551322Y-23433262D01*
X17551322Y-23433262D02*
X17560846Y-23414214D01*
X17560846Y-23414214D02*
X17579893Y-23404690D01*
X17579893Y-23404690D02*
X17608465Y-23404690D01*
X17608465Y-23404690D02*
X17627513Y-23414214D01*
X17703703Y-23614214D02*
X17713227Y-23604690D01*
X17713227Y-23604690D02*
X17732274Y-23576119D01*
X17732274Y-23576119D02*
X17741798Y-23557071D01*
X17741798Y-23557071D02*
X17751322Y-23528500D01*
X17751322Y-23528500D02*
X17760846Y-23480881D01*
X17760846Y-23480881D02*
X17760846Y-23442786D01*
X17760846Y-23442786D02*
X17751322Y-23395167D01*
X17751322Y-23395167D02*
X17741798Y-23366595D01*
X17741798Y-23366595D02*
X17732274Y-23347548D01*
X17732274Y-23347548D02*
X17713227Y-23318976D01*
X17713227Y-23318976D02*
X17703703Y-23309452D01*
X18065608Y-23614214D02*
X18056084Y-23604690D01*
X18056084Y-23604690D02*
X18037036Y-23576119D01*
X18037036Y-23576119D02*
X18027513Y-23557071D01*
X18027513Y-23557071D02*
X18017989Y-23528500D01*
X18017989Y-23528500D02*
X18008465Y-23480881D01*
X18008465Y-23480881D02*
X18008465Y-23442786D01*
X18008465Y-23442786D02*
X18017989Y-23395167D01*
X18017989Y-23395167D02*
X18027513Y-23366595D01*
X18027513Y-23366595D02*
X18037036Y-23347548D01*
X18037036Y-23347548D02*
X18056084Y-23318976D01*
X18056084Y-23318976D02*
X18065608Y-23309452D01*
X18141798Y-23404690D02*
X18141798Y-23538024D01*
X18141798Y-23423738D02*
X18151322Y-23414214D01*
X18151322Y-23414214D02*
X18170370Y-23404690D01*
X18170370Y-23404690D02*
X18198941Y-23404690D01*
X18198941Y-23404690D02*
X18217989Y-23414214D01*
X18217989Y-23414214D02*
X18227513Y-23433262D01*
X18227513Y-23433262D02*
X18227513Y-23538024D01*
X18351322Y-23538024D02*
X18332274Y-23528500D01*
X18332274Y-23528500D02*
X18322751Y-23518976D01*
X18322751Y-23518976D02*
X18313227Y-23499928D01*
X18313227Y-23499928D02*
X18313227Y-23442786D01*
X18313227Y-23442786D02*
X18322751Y-23423738D01*
X18322751Y-23423738D02*
X18332274Y-23414214D01*
X18332274Y-23414214D02*
X18351322Y-23404690D01*
X18351322Y-23404690D02*
X18379894Y-23404690D01*
X18379894Y-23404690D02*
X18398941Y-23414214D01*
X18398941Y-23414214D02*
X18408465Y-23423738D01*
X18408465Y-23423738D02*
X18417989Y-23442786D01*
X18417989Y-23442786D02*
X18417989Y-23499928D01*
X18417989Y-23499928D02*
X18408465Y-23518976D01*
X18408465Y-23518976D02*
X18398941Y-23528500D01*
X18398941Y-23528500D02*
X18379894Y-23538024D01*
X18379894Y-23538024D02*
X18351322Y-23538024D01*
X18475132Y-23404690D02*
X18551322Y-23404690D01*
X18503703Y-23338024D02*
X18503703Y-23509452D01*
X18503703Y-23509452D02*
X18513227Y-23528500D01*
X18513227Y-23528500D02*
X18532274Y-23538024D01*
X18532274Y-23538024D02*
X18551322Y-23538024D01*
X18770370Y-23404690D02*
X18770370Y-23604690D01*
X18770370Y-23414214D02*
X18789417Y-23404690D01*
X18789417Y-23404690D02*
X18827513Y-23404690D01*
X18827513Y-23404690D02*
X18846560Y-23414214D01*
X18846560Y-23414214D02*
X18856084Y-23423738D01*
X18856084Y-23423738D02*
X18865608Y-23442786D01*
X18865608Y-23442786D02*
X18865608Y-23499928D01*
X18865608Y-23499928D02*
X18856084Y-23518976D01*
X18856084Y-23518976D02*
X18846560Y-23528500D01*
X18846560Y-23528500D02*
X18827513Y-23538024D01*
X18827513Y-23538024D02*
X18789417Y-23538024D01*
X18789417Y-23538024D02*
X18770370Y-23528500D01*
X18979894Y-23538024D02*
X18960846Y-23528500D01*
X18960846Y-23528500D02*
X18951322Y-23509452D01*
X18951322Y-23509452D02*
X18951322Y-23338024D01*
X19141798Y-23538024D02*
X19141798Y-23433262D01*
X19141798Y-23433262D02*
X19132275Y-23414214D01*
X19132275Y-23414214D02*
X19113227Y-23404690D01*
X19113227Y-23404690D02*
X19075132Y-23404690D01*
X19075132Y-23404690D02*
X19056084Y-23414214D01*
X19141798Y-23528500D02*
X19122751Y-23538024D01*
X19122751Y-23538024D02*
X19075132Y-23538024D01*
X19075132Y-23538024D02*
X19056084Y-23528500D01*
X19056084Y-23528500D02*
X19046560Y-23509452D01*
X19046560Y-23509452D02*
X19046560Y-23490405D01*
X19046560Y-23490405D02*
X19056084Y-23471357D01*
X19056084Y-23471357D02*
X19075132Y-23461833D01*
X19075132Y-23461833D02*
X19122751Y-23461833D01*
X19122751Y-23461833D02*
X19141798Y-23452309D01*
X19208465Y-23404690D02*
X19284655Y-23404690D01*
X19237036Y-23338024D02*
X19237036Y-23509452D01*
X19237036Y-23509452D02*
X19246560Y-23528500D01*
X19246560Y-23528500D02*
X19265608Y-23538024D01*
X19265608Y-23538024D02*
X19284655Y-23538024D01*
X19427513Y-23528500D02*
X19408465Y-23538024D01*
X19408465Y-23538024D02*
X19370370Y-23538024D01*
X19370370Y-23538024D02*
X19351322Y-23528500D01*
X19351322Y-23528500D02*
X19341798Y-23509452D01*
X19341798Y-23509452D02*
X19341798Y-23433262D01*
X19341798Y-23433262D02*
X19351322Y-23414214D01*
X19351322Y-23414214D02*
X19370370Y-23404690D01*
X19370370Y-23404690D02*
X19408465Y-23404690D01*
X19408465Y-23404690D02*
X19427513Y-23414214D01*
X19427513Y-23414214D02*
X19437036Y-23433262D01*
X19437036Y-23433262D02*
X19437036Y-23452309D01*
X19437036Y-23452309D02*
X19341798Y-23471357D01*
X19608465Y-23538024D02*
X19608465Y-23338024D01*
X19608465Y-23528500D02*
X19589417Y-23538024D01*
X19589417Y-23538024D02*
X19551322Y-23538024D01*
X19551322Y-23538024D02*
X19532275Y-23528500D01*
X19532275Y-23528500D02*
X19522751Y-23518976D01*
X19522751Y-23518976D02*
X19513227Y-23499928D01*
X19513227Y-23499928D02*
X19513227Y-23442786D01*
X19513227Y-23442786D02*
X19522751Y-23423738D01*
X19522751Y-23423738D02*
X19532275Y-23414214D01*
X19532275Y-23414214D02*
X19551322Y-23404690D01*
X19551322Y-23404690D02*
X19589417Y-23404690D01*
X19589417Y-23404690D02*
X19608465Y-23414214D01*
X19684656Y-23614214D02*
X19694179Y-23604690D01*
X19694179Y-23604690D02*
X19713227Y-23576119D01*
X19713227Y-23576119D02*
X19722751Y-23557071D01*
X19722751Y-23557071D02*
X19732275Y-23528500D01*
X19732275Y-23528500D02*
X19741798Y-23480881D01*
X19741798Y-23480881D02*
X19741798Y-23442786D01*
X19741798Y-23442786D02*
X19732275Y-23395167D01*
X19732275Y-23395167D02*
X19722751Y-23366595D01*
X19722751Y-23366595D02*
X19713227Y-23347548D01*
X19713227Y-23347548D02*
X19694179Y-23318976D01*
X19694179Y-23318976D02*
X19684656Y-23309452D01*
M02*
