M48
; DRILL file {KiCad 8.0.9} date 2025-09-15T10:43:38+0200
; FORMAT={-:-/ absolute / inch / decimal}
; #@! TF.CreationDate,2025-09-15T10:43:38+02:00
; #@! TF.GenerationSoftware,Kicad,Pcbnew,8.0.9
; #@! TF.FileFunction,Plated,1,2,PTH
FMAT,2
INCH
; #@! TA.AperFunction,Plated,PTH,ViaDrill
T1C0.0118
; #@! TA.AperFunction,Plated,PTH,ComponentDrill
T2C0.0300
; #@! TA.AperFunction,Plated,PTH,ComponentDrill
T3C0.0394
; #@! TA.AperFunction,Plated,PTH,ComponentDrill
T4C0.0528
%
G90
G05
T1
X5.1774Y-5.2382
X5.1774Y-5.2776
X5.1774Y-5.3164
X5.1774Y-5.3563
X5.3285Y-5.185
X5.33Y-5.407
X5.407Y-8.0667
X5.407Y-8.2832
X5.4289Y-7.1585
X5.432Y-6.577
X5.481Y-6.622
X5.492Y-6.312
X5.517Y-7.9805
X5.52Y-6.268
X5.523Y-7.141
X5.5309Y-7.1975
X5.5465Y-6.624
X5.567Y-8.188
X5.5809Y-6.5085
X5.5876Y-4.5196
X5.588Y-4.4407
X5.5882Y-4.4013
X5.5895Y-4.4798
X5.6309Y-6.5085
X5.6436Y-8.165
X5.6797Y-6.7388
X5.6797Y-6.7939
X5.6797Y-6.8491
X5.6809Y-6.5085
X5.695Y-7.433
X5.7309Y-6.5085
X5.7349Y-6.7388
X5.7349Y-6.7939
X5.7349Y-6.8491
X5.7421Y-4.3499
X5.7421Y-4.5704
X5.7795Y-8.264
X5.7809Y-6.5085
X5.79Y-6.7388
X5.79Y-6.7939
X5.79Y-6.8491
X5.817Y-8.347
X5.8309Y-6.5085
X5.856Y-7.328
X5.87Y-8.016
X5.8809Y-6.5085
X5.91Y-7.328
X5.9309Y-6.5085
X5.9382Y-7.891
X5.9606Y-8.264
X5.9809Y-6.5085
X5.984Y-8.347
X6.0309Y-7.1975
X6.081Y-7.1975
X6.1301Y-6.678
X6.1301Y-6.728
X6.1301Y-6.778
X6.1301Y-6.828
X6.1301Y-6.878
X6.1301Y-6.928
X6.1301Y-6.978
X6.2383Y-7.5265
X6.2386Y-6.1525
X6.321Y-7.404
X6.3997Y-7.5265
X6.4Y-6.1525
X6.7661Y-4.4729
X6.7681Y-4.4405
X6.8391Y-4.5355
X6.9243Y-4.2869
X8.5288Y-4.3115
X8.6471Y-4.5665
X8.6801Y-4.3319
X8.7221Y-4.3319
X10.3711Y-4.3839
X10.3711Y-4.4349
X10.6391Y-4.3579
X11.937Y-6.438
X11.958Y-8.1782
X11.986Y-8.2503
X11.986Y-8.3003
X11.986Y-8.3503
X12.036Y-8.2003
X12.036Y-8.2503
X12.036Y-8.3003
X12.036Y-8.3503
X12.037Y-5.793
X12.0588Y-5.6944
X12.086Y-8.25
X12.086Y-8.3003
X12.086Y-8.3503
X12.1077Y-8.2
X12.136Y-8.25
X12.136Y-8.3003
X12.136Y-8.3503
X12.177Y-8.2
X12.177Y-8.25
X12.177Y-8.301
X12.177Y-8.35
X12.1826Y-8.1326
T2
X12.0077Y-5.9038
X12.0077Y-6.0038
X12.0077Y-6.1038
X12.0077Y-6.2038
X12.0077Y-6.3038
X12.0077Y-6.4038
X12.0077Y-6.5038
X12.0077Y-6.6038
X12.0077Y-6.7038
X12.0077Y-6.8038
X12.0077Y-6.9038
X12.0077Y-7.0038
X12.0077Y-7.1038
X12.0077Y-7.2038
X12.0077Y-7.3038
X12.0077Y-7.4038
X12.0077Y-7.5038
X12.0077Y-7.6038
X12.0077Y-7.7038
X12.0077Y-7.8038
X12.1077Y-5.9038
X12.1077Y-6.0038
X12.1077Y-6.1038
X12.1077Y-6.2038
X12.1077Y-6.3038
X12.1077Y-6.4038
X12.1077Y-6.5038
X12.1077Y-6.6038
X12.1077Y-6.7038
X12.1077Y-6.8038
X12.1077Y-6.9038
X12.1077Y-7.0038
X12.1077Y-7.1038
X12.1077Y-7.2038
X12.1077Y-7.3038
X12.1077Y-7.4038
X12.1077Y-7.5038
X12.1077Y-7.6038
X12.1077Y-7.7038
X12.1077Y-7.8038
T3
X5.488Y-7.47
X5.488Y-7.57
X5.488Y-7.67
X5.488Y-7.77
T4
X5.246Y-8.0048
X5.246Y-8.345
X5.3956Y-8.0048
X5.3956Y-8.345
M30
